M48
; DRILL file {KiCad (6.0.2)} date Tue Mar 22 22:11:52 2022
; FORMAT={-:-/ absolute / metric / decimal}
; #@! TF.CreationDate,2022-03-22T22:11:52-04:00
; #@! TF.GenerationSoftware,Kicad,Pcbnew,(6.0.2)
; #@! TF.FileFunction,Plated,1,2,PTH
FMAT,2
METRIC
; #@! TA.AperFunction,Plated,PTH,ViaDrill
T1C0.350
; #@! TA.AperFunction,Plated,PTH,ViaDrill
T2C0.400
; #@! TA.AperFunction,Plated,PTH,ComponentDrill
T3C1.000
%
G90
G05
T1
X103.977Y-103.109
X104.6Y-105.09
X110.74Y-103.37
X111.11Y-105.651
X113.15Y-102.19
X113.532Y-105.651
X118.548Y-119.66
X119.852Y-119.66
X126.709Y-112.011
X128.023Y-111.491
X134.08Y-131.43
X136.02Y-131.43
T2
X92.92Y-121.89
X93.12Y-126.99
X95.3Y-90.9
X96.29Y-104.3
X96.5Y-95.9
X99.11Y-133.26
X99.2Y-101.8
X99.55Y-114.42
X101.8Y-88.2
X102.75Y-124.56
X102.76Y-127.09
X103.9Y-109.8
X104.13Y-95.78
X105.41Y-122.36
X106.1Y-103.0
X106.36Y-128.21
X106.9Y-116.6
X107.02Y-89.84
X108.11Y-134.62
X109.8Y-119.4
X112.04Y-125.54
X115.6Y-117.0
X116.59Y-94.5
X116.6Y-104.4
X116.6Y-106.9
X116.61Y-87.54
X116.7Y-97.6
X116.7Y-134.62
X117.6Y-108.96
X119.3Y-88.2
X120.79Y-125.46
X120.815Y-114.153
X121.54Y-130.54
X121.7Y-103.0
X122.0Y-119.8
X124.5Y-91.1
X124.5Y-93.3
X125.13Y-104.31
X127.09Y-134.6
X127.3Y-107.64
X127.4Y-97.4
X127.5Y-119.8
X129.0Y-103.9
X129.9Y-108.6
X130.14Y-125.39
X135.04Y-134.52
X136.2Y-118.81
X136.31Y-93.62
X138.21Y-101.13
X139.05Y-88.0
X139.71Y-92.76
X140.03Y-119.87
X140.9Y-104.4
X140.9Y-106.9
X140.9Y-115.6
X141.0Y-108.8
X141.2Y-97.5
X143.91Y-126.5
X146.49Y-133.84
X146.5Y-114.3
X147.18Y-117.47
X147.4Y-103.8
X147.67Y-122.38
X148.7Y-93.6
X150.2Y-90.2
X150.54Y-117.47
X150.84Y-98.66
X151.2Y-91.3
X151.4Y-107.09
X151.4Y-112.24
T3
X98.4Y-82.25
X98.4Y-84.79
X98.47Y-92.0
X100.94Y-82.25
X100.94Y-84.79
X101.01Y-92.0
X101.2Y-119.48
X101.2Y-122.02
X101.2Y-124.56
X101.2Y-127.1
X103.48Y-82.25
X103.48Y-84.79
X103.55Y-92.0
X106.02Y-82.25
X106.02Y-84.79
X106.09Y-92.0
X108.56Y-82.25
X108.56Y-84.79
X108.63Y-92.0
X111.1Y-82.25
X111.1Y-84.79
X111.17Y-92.0
X113.64Y-82.25
X113.64Y-84.79
X113.71Y-92.0
X116.18Y-82.25
X116.18Y-84.79
X116.25Y-92.0
X118.72Y-82.25
X118.72Y-84.79
X118.79Y-92.0
X121.26Y-82.25
X121.26Y-84.79
X121.33Y-92.0
X123.8Y-82.25
X123.8Y-84.79
X126.34Y-82.25
X126.34Y-84.79
X128.88Y-82.25
X128.88Y-84.79
X131.42Y-82.25
X131.42Y-84.79
X132.09Y-91.225
X133.96Y-82.25
X133.96Y-84.79
X134.63Y-91.225
X136.5Y-82.25
X136.5Y-84.79
X137.17Y-91.225
X139.04Y-82.25
X139.04Y-84.79
X139.71Y-91.225
X141.58Y-82.25
X141.58Y-84.79
X142.25Y-91.225
X144.12Y-82.25
X144.12Y-84.79
X146.66Y-82.25
X146.66Y-84.79
T0
M30
