%FSLAX45Y45*%
G04 Gerber Fmt 4.5, Leading zero omitted, Abs format (unit mm)*
G04 Created by KiCad (PCBNEW (6.0.2)) date 2022-03-22 22:12:15*
%MOMM*%
%LPD*%
G01*
G04 APERTURE LIST*
%TA.AperFunction,Profile*%
%ADD10C,0.100000*%
%TD*%
%ADD11C,0.200000*%
%ADD12C,0.035000*%
%ADD13C,0.040000*%
%ADD14C,0.100000*%
G04 APERTURE END LIST*
D10*
X15500000Y-8300000D02*
X15500000Y-13300000D01*
X9100000Y-9900000D02*
X9387500Y-9900000D01*
X15200000Y-13600000D02*
X9300000Y-13600000D01*
X9387500Y-11700000D02*
G75*
G03*
X9487500Y-11600000I0J100000D01*
G01*
X9487500Y-10000000D02*
X9487500Y-10800000D01*
X9487500Y-10800000D02*
X9487500Y-11600000D01*
X9487500Y-8350000D02*
G75*
G03*
X9487500Y-8350000I-137500J0D01*
G01*
X9487500Y-10000000D02*
G75*
G03*
X9387500Y-9900000I-100000J0D01*
G01*
X9300000Y-8000000D02*
X15200000Y-8000000D01*
X15287500Y-13250000D02*
G75*
G03*
X15287500Y-13250000I-137500J0D01*
G01*
X9000000Y-9800000D02*
G75*
G03*
X9100000Y-9900000I100000J0D01*
G01*
X15200000Y-13600000D02*
G75*
G03*
X15500000Y-13300000I0J300000D01*
G01*
X9100000Y-11700000D02*
G75*
G03*
X9000000Y-11800000I0J-100000D01*
G01*
X9487500Y-13250000D02*
G75*
G03*
X9487500Y-13250000I-137500J0D01*
G01*
X9100000Y-11700000D02*
X9387500Y-11700000D01*
X9300000Y-8000000D02*
G75*
G03*
X9000000Y-8300000I0J-300000D01*
G01*
X15287500Y-8350000D02*
G75*
G03*
X15287500Y-8350000I-137500J0D01*
G01*
X15500000Y-8300000D02*
G75*
G03*
X15200000Y-8000000I-300000J0D01*
G01*
X9000000Y-11800000D02*
X9000000Y-13300000D01*
X9000000Y-13300000D02*
G75*
G03*
X9300000Y-13600000I300000J0D01*
G01*
X9000000Y-8300000D02*
X9000000Y-9800000D01*
D11*
D12*
X10380210Y-10293430D02*
X10415210Y-10328430D01*
X10415210Y-10293430D02*
X10380210Y-10328430D01*
X10442500Y-10491500D02*
X10477500Y-10526500D01*
X10477500Y-10491500D02*
X10442500Y-10526500D01*
X11056500Y-10319500D02*
X11091500Y-10354500D01*
X11091500Y-10319500D02*
X11056500Y-10354500D01*
X11093500Y-10547591D02*
X11128500Y-10582591D01*
X11128500Y-10547591D02*
X11093500Y-10582591D01*
X11297500Y-10201500D02*
X11332500Y-10236500D01*
X11332500Y-10201500D02*
X11297500Y-10236500D01*
X11335741Y-10547612D02*
X11370741Y-10582612D01*
X11370741Y-10547612D02*
X11335741Y-10582612D01*
X11837350Y-11948500D02*
X11872350Y-11983500D01*
X11872350Y-11948500D02*
X11837350Y-11983500D01*
X11967650Y-11948500D02*
X12002650Y-11983500D01*
X12002650Y-11948500D02*
X11967650Y-11983500D01*
X12653432Y-11183568D02*
X12688432Y-11218568D01*
X12688432Y-11183568D02*
X12653432Y-11218568D01*
X12784753Y-11131588D02*
X12819753Y-11166588D01*
X12819753Y-11131588D02*
X12784753Y-11166588D01*
X13390500Y-13125500D02*
X13425500Y-13160500D01*
X13425500Y-13125500D02*
X13390500Y-13160500D01*
X13584500Y-13125500D02*
X13619500Y-13160500D01*
X13619500Y-13125500D02*
X13584500Y-13160500D01*
D13*
X9312000Y-12189000D02*
G75*
G03*
X9312000Y-12189000I-20000J0D01*
G01*
X9332000Y-12699000D02*
G75*
G03*
X9332000Y-12699000I-20000J0D01*
G01*
X9550000Y-9090000D02*
G75*
G03*
X9550000Y-9090000I-20000J0D01*
G01*
X9649000Y-10430000D02*
G75*
G03*
X9649000Y-10430000I-20000J0D01*
G01*
X9670000Y-9590000D02*
G75*
G03*
X9670000Y-9590000I-20000J0D01*
G01*
X9931000Y-13326000D02*
G75*
G03*
X9931000Y-13326000I-20000J0D01*
G01*
X9940000Y-10180000D02*
G75*
G03*
X9940000Y-10180000I-20000J0D01*
G01*
X9975000Y-11442000D02*
G75*
G03*
X9975000Y-11442000I-20000J0D01*
G01*
X10200000Y-8820000D02*
G75*
G03*
X10200000Y-8820000I-20000J0D01*
G01*
X10295000Y-12456000D02*
G75*
G03*
X10295000Y-12456000I-20000J0D01*
G01*
X10296000Y-12709000D02*
G75*
G03*
X10296000Y-12709000I-20000J0D01*
G01*
X10410000Y-10980000D02*
G75*
G03*
X10410000Y-10980000I-20000J0D01*
G01*
X10433000Y-9578000D02*
G75*
G03*
X10433000Y-9578000I-20000J0D01*
G01*
X10561000Y-12236000D02*
G75*
G03*
X10561000Y-12236000I-20000J0D01*
G01*
X10630000Y-10300000D02*
G75*
G03*
X10630000Y-10300000I-20000J0D01*
G01*
X10656000Y-12821000D02*
G75*
G03*
X10656000Y-12821000I-20000J0D01*
G01*
X10710000Y-11660000D02*
G75*
G03*
X10710000Y-11660000I-20000J0D01*
G01*
X10722000Y-8984000D02*
G75*
G03*
X10722000Y-8984000I-20000J0D01*
G01*
X10831000Y-13462000D02*
G75*
G03*
X10831000Y-13462000I-20000J0D01*
G01*
X11000000Y-11940000D02*
G75*
G03*
X11000000Y-11940000I-20000J0D01*
G01*
X11224000Y-12554000D02*
G75*
G03*
X11224000Y-12554000I-20000J0D01*
G01*
X11580000Y-11700000D02*
G75*
G03*
X11580000Y-11700000I-20000J0D01*
G01*
X11679000Y-9450000D02*
G75*
G03*
X11679000Y-9450000I-20000J0D01*
G01*
X11680000Y-10440000D02*
G75*
G03*
X11680000Y-10440000I-20000J0D01*
G01*
X11680000Y-10690000D02*
G75*
G03*
X11680000Y-10690000I-20000J0D01*
G01*
X11681000Y-8754000D02*
G75*
G03*
X11681000Y-8754000I-20000J0D01*
G01*
X11690000Y-9760000D02*
G75*
G03*
X11690000Y-9760000I-20000J0D01*
G01*
X11690000Y-13462000D02*
G75*
G03*
X11690000Y-13462000I-20000J0D01*
G01*
X11780000Y-10896000D02*
G75*
G03*
X11780000Y-10896000I-20000J0D01*
G01*
X11950000Y-8820000D02*
G75*
G03*
X11950000Y-8820000I-20000J0D01*
G01*
X12099000Y-12546000D02*
G75*
G03*
X12099000Y-12546000I-20000J0D01*
G01*
X12101510Y-11415283D02*
G75*
G03*
X12101510Y-11415283I-20000J0D01*
G01*
X12174000Y-13054000D02*
G75*
G03*
X12174000Y-13054000I-20000J0D01*
G01*
X12190000Y-10300000D02*
G75*
G03*
X12190000Y-10300000I-20000J0D01*
G01*
X12220000Y-11980000D02*
G75*
G03*
X12220000Y-11980000I-20000J0D01*
G01*
X12470000Y-9110000D02*
G75*
G03*
X12470000Y-9110000I-20000J0D01*
G01*
X12470000Y-9330000D02*
G75*
G03*
X12470000Y-9330000I-20000J0D01*
G01*
X12533000Y-10431000D02*
G75*
G03*
X12533000Y-10431000I-20000J0D01*
G01*
X12729000Y-13460000D02*
G75*
G03*
X12729000Y-13460000I-20000J0D01*
G01*
X12750000Y-10764000D02*
G75*
G03*
X12750000Y-10764000I-20000J0D01*
G01*
X12760000Y-9740000D02*
G75*
G03*
X12760000Y-9740000I-20000J0D01*
G01*
X12770000Y-11980000D02*
G75*
G03*
X12770000Y-11980000I-20000J0D01*
G01*
X12920000Y-10390000D02*
G75*
G03*
X12920000Y-10390000I-20000J0D01*
G01*
X13010000Y-10860000D02*
G75*
G03*
X13010000Y-10860000I-20000J0D01*
G01*
X13034000Y-12539000D02*
G75*
G03*
X13034000Y-12539000I-20000J0D01*
G01*
X13524000Y-13452000D02*
G75*
G03*
X13524000Y-13452000I-20000J0D01*
G01*
X13640000Y-11881000D02*
G75*
G03*
X13640000Y-11881000I-20000J0D01*
G01*
X13651000Y-9362000D02*
G75*
G03*
X13651000Y-9362000I-20000J0D01*
G01*
X13841000Y-10113000D02*
G75*
G03*
X13841000Y-10113000I-20000J0D01*
G01*
X13925000Y-8800000D02*
G75*
G03*
X13925000Y-8800000I-20000J0D01*
G01*
X13991000Y-9276000D02*
G75*
G03*
X13991000Y-9276000I-20000J0D01*
G01*
X14023000Y-11987000D02*
G75*
G03*
X14023000Y-11987000I-20000J0D01*
G01*
X14110000Y-10440000D02*
G75*
G03*
X14110000Y-10440000I-20000J0D01*
G01*
X14110000Y-10690000D02*
G75*
G03*
X14110000Y-10690000I-20000J0D01*
G01*
X14110000Y-11560000D02*
G75*
G03*
X14110000Y-11560000I-20000J0D01*
G01*
X14120000Y-10880000D02*
G75*
G03*
X14120000Y-10880000I-20000J0D01*
G01*
X14140000Y-9750000D02*
G75*
G03*
X14140000Y-9750000I-20000J0D01*
G01*
X14411000Y-12650000D02*
G75*
G03*
X14411000Y-12650000I-20000J0D01*
G01*
X14669000Y-13384000D02*
G75*
G03*
X14669000Y-13384000I-20000J0D01*
G01*
X14670000Y-11430000D02*
G75*
G03*
X14670000Y-11430000I-20000J0D01*
G01*
X14738000Y-11747000D02*
G75*
G03*
X14738000Y-11747000I-20000J0D01*
G01*
X14760000Y-10380000D02*
G75*
G03*
X14760000Y-10380000I-20000J0D01*
G01*
X14787000Y-12238000D02*
G75*
G03*
X14787000Y-12238000I-20000J0D01*
G01*
X14890000Y-9360000D02*
G75*
G03*
X14890000Y-9360000I-20000J0D01*
G01*
X15040000Y-9020000D02*
G75*
G03*
X15040000Y-9020000I-20000J0D01*
G01*
X15074000Y-11747000D02*
G75*
G03*
X15074000Y-11747000I-20000J0D01*
G01*
X15104000Y-9866000D02*
G75*
G03*
X15104000Y-9866000I-20000J0D01*
G01*
X15140000Y-9130000D02*
G75*
G03*
X15140000Y-9130000I-20000J0D01*
G01*
X15160000Y-10709000D02*
G75*
G03*
X15160000Y-10709000I-20000J0D01*
G01*
X15160000Y-11224000D02*
G75*
G03*
X15160000Y-11224000I-20000J0D01*
G01*
D14*
X9840000Y-8175000D02*
X9840000Y-8275000D01*
X9790000Y-8225000D02*
X9890000Y-8225000D01*
X9840000Y-8429000D02*
X9840000Y-8529000D01*
X9790000Y-8479000D02*
X9890000Y-8479000D01*
X9847000Y-9150000D02*
X9847000Y-9250000D01*
X9797000Y-9200000D02*
X9897000Y-9200000D01*
X10094000Y-8175000D02*
X10094000Y-8275000D01*
X10044000Y-8225000D02*
X10144000Y-8225000D01*
X10094000Y-8429000D02*
X10094000Y-8529000D01*
X10044000Y-8479000D02*
X10144000Y-8479000D01*
X10101000Y-9150000D02*
X10101000Y-9250000D01*
X10051000Y-9200000D02*
X10151000Y-9200000D01*
X10120000Y-11898000D02*
X10120000Y-11998000D01*
X10070000Y-11948000D02*
X10170000Y-11948000D01*
X10120000Y-12152000D02*
X10120000Y-12252000D01*
X10070000Y-12202000D02*
X10170000Y-12202000D01*
X10120000Y-12406000D02*
X10120000Y-12506000D01*
X10070000Y-12456000D02*
X10170000Y-12456000D01*
X10120000Y-12660000D02*
X10120000Y-12760000D01*
X10070000Y-12710000D02*
X10170000Y-12710000D01*
X10348000Y-8175000D02*
X10348000Y-8275000D01*
X10298000Y-8225000D02*
X10398000Y-8225000D01*
X10348000Y-8429000D02*
X10348000Y-8529000D01*
X10298000Y-8479000D02*
X10398000Y-8479000D01*
X10355000Y-9150000D02*
X10355000Y-9250000D01*
X10305000Y-9200000D02*
X10405000Y-9200000D01*
X10602000Y-8175000D02*
X10602000Y-8275000D01*
X10552000Y-8225000D02*
X10652000Y-8225000D01*
X10602000Y-8429000D02*
X10602000Y-8529000D01*
X10552000Y-8479000D02*
X10652000Y-8479000D01*
X10609000Y-9150000D02*
X10609000Y-9250000D01*
X10559000Y-9200000D02*
X10659000Y-9200000D01*
X10856000Y-8175000D02*
X10856000Y-8275000D01*
X10806000Y-8225000D02*
X10906000Y-8225000D01*
X10856000Y-8429000D02*
X10856000Y-8529000D01*
X10806000Y-8479000D02*
X10906000Y-8479000D01*
X10863000Y-9150000D02*
X10863000Y-9250000D01*
X10813000Y-9200000D02*
X10913000Y-9200000D01*
X11110000Y-8175000D02*
X11110000Y-8275000D01*
X11060000Y-8225000D02*
X11160000Y-8225000D01*
X11110000Y-8429000D02*
X11110000Y-8529000D01*
X11060000Y-8479000D02*
X11160000Y-8479000D01*
X11117000Y-9150000D02*
X11117000Y-9250000D01*
X11067000Y-9200000D02*
X11167000Y-9200000D01*
X11364000Y-8175000D02*
X11364000Y-8275000D01*
X11314000Y-8225000D02*
X11414000Y-8225000D01*
X11364000Y-8429000D02*
X11364000Y-8529000D01*
X11314000Y-8479000D02*
X11414000Y-8479000D01*
X11371000Y-9150000D02*
X11371000Y-9250000D01*
X11321000Y-9200000D02*
X11421000Y-9200000D01*
X11618000Y-8175000D02*
X11618000Y-8275000D01*
X11568000Y-8225000D02*
X11668000Y-8225000D01*
X11618000Y-8429000D02*
X11618000Y-8529000D01*
X11568000Y-8479000D02*
X11668000Y-8479000D01*
X11625000Y-9150000D02*
X11625000Y-9250000D01*
X11575000Y-9200000D02*
X11675000Y-9200000D01*
X11872000Y-8175000D02*
X11872000Y-8275000D01*
X11822000Y-8225000D02*
X11922000Y-8225000D01*
X11872000Y-8429000D02*
X11872000Y-8529000D01*
X11822000Y-8479000D02*
X11922000Y-8479000D01*
X11879000Y-9150000D02*
X11879000Y-9250000D01*
X11829000Y-9200000D02*
X11929000Y-9200000D01*
X12126000Y-8175000D02*
X12126000Y-8275000D01*
X12076000Y-8225000D02*
X12176000Y-8225000D01*
X12126000Y-8429000D02*
X12126000Y-8529000D01*
X12076000Y-8479000D02*
X12176000Y-8479000D01*
X12133000Y-9150000D02*
X12133000Y-9250000D01*
X12083000Y-9200000D02*
X12183000Y-9200000D01*
X12380000Y-8175000D02*
X12380000Y-8275000D01*
X12330000Y-8225000D02*
X12430000Y-8225000D01*
X12380000Y-8429000D02*
X12380000Y-8529000D01*
X12330000Y-8479000D02*
X12430000Y-8479000D01*
X12634000Y-8175000D02*
X12634000Y-8275000D01*
X12584000Y-8225000D02*
X12684000Y-8225000D01*
X12634000Y-8429000D02*
X12634000Y-8529000D01*
X12584000Y-8479000D02*
X12684000Y-8479000D01*
X12888000Y-8175000D02*
X12888000Y-8275000D01*
X12838000Y-8225000D02*
X12938000Y-8225000D01*
X12888000Y-8429000D02*
X12888000Y-8529000D01*
X12838000Y-8479000D02*
X12938000Y-8479000D01*
X13142000Y-8175000D02*
X13142000Y-8275000D01*
X13092000Y-8225000D02*
X13192000Y-8225000D01*
X13142000Y-8429000D02*
X13142000Y-8529000D01*
X13092000Y-8479000D02*
X13192000Y-8479000D01*
X13209000Y-9072500D02*
X13209000Y-9172500D01*
X13159000Y-9122500D02*
X13259000Y-9122500D01*
X13396000Y-8175000D02*
X13396000Y-8275000D01*
X13346000Y-8225000D02*
X13446000Y-8225000D01*
X13396000Y-8429000D02*
X13396000Y-8529000D01*
X13346000Y-8479000D02*
X13446000Y-8479000D01*
X13463000Y-9072500D02*
X13463000Y-9172500D01*
X13413000Y-9122500D02*
X13513000Y-9122500D01*
X13650000Y-8175000D02*
X13650000Y-8275000D01*
X13600000Y-8225000D02*
X13700000Y-8225000D01*
X13650000Y-8429000D02*
X13650000Y-8529000D01*
X13600000Y-8479000D02*
X13700000Y-8479000D01*
X13717000Y-9072500D02*
X13717000Y-9172500D01*
X13667000Y-9122500D02*
X13767000Y-9122500D01*
X13904000Y-8175000D02*
X13904000Y-8275000D01*
X13854000Y-8225000D02*
X13954000Y-8225000D01*
X13904000Y-8429000D02*
X13904000Y-8529000D01*
X13854000Y-8479000D02*
X13954000Y-8479000D01*
X13971000Y-9072500D02*
X13971000Y-9172500D01*
X13921000Y-9122500D02*
X14021000Y-9122500D01*
X14158000Y-8175000D02*
X14158000Y-8275000D01*
X14108000Y-8225000D02*
X14208000Y-8225000D01*
X14158000Y-8429000D02*
X14158000Y-8529000D01*
X14108000Y-8479000D02*
X14208000Y-8479000D01*
X14225000Y-9072500D02*
X14225000Y-9172500D01*
X14175000Y-9122500D02*
X14275000Y-9122500D01*
X14412000Y-8175000D02*
X14412000Y-8275000D01*
X14362000Y-8225000D02*
X14462000Y-8225000D01*
X14412000Y-8429000D02*
X14412000Y-8529000D01*
X14362000Y-8479000D02*
X14462000Y-8479000D01*
X14666000Y-8175000D02*
X14666000Y-8275000D01*
X14616000Y-8225000D02*
X14716000Y-8225000D01*
X14666000Y-8429000D02*
X14666000Y-8529000D01*
X14616000Y-8479000D02*
X14716000Y-8479000D01*
D11*
X9252619Y-13915476D02*
X9252619Y-13715476D01*
X9300238Y-13715476D01*
X9328810Y-13725000D01*
X9347857Y-13744048D01*
X9357381Y-13763095D01*
X9366905Y-13801190D01*
X9366905Y-13829762D01*
X9357381Y-13867857D01*
X9347857Y-13886905D01*
X9328810Y-13905952D01*
X9300238Y-13915476D01*
X9252619Y-13915476D01*
X9452619Y-13915476D02*
X9452619Y-13782143D01*
X9452619Y-13820238D02*
X9462143Y-13801190D01*
X9471667Y-13791667D01*
X9490714Y-13782143D01*
X9509762Y-13782143D01*
X9576429Y-13915476D02*
X9576429Y-13782143D01*
X9576429Y-13715476D02*
X9566905Y-13725000D01*
X9576429Y-13734524D01*
X9585952Y-13725000D01*
X9576429Y-13715476D01*
X9576429Y-13734524D01*
X9700238Y-13915476D02*
X9681190Y-13905952D01*
X9671667Y-13886905D01*
X9671667Y-13715476D01*
X9805000Y-13915476D02*
X9785952Y-13905952D01*
X9776429Y-13886905D01*
X9776429Y-13715476D01*
X10033571Y-13915476D02*
X10033571Y-13715476D01*
X10100238Y-13858333D01*
X10166905Y-13715476D01*
X10166905Y-13915476D01*
X10347857Y-13915476D02*
X10347857Y-13810714D01*
X10338333Y-13791667D01*
X10319286Y-13782143D01*
X10281190Y-13782143D01*
X10262143Y-13791667D01*
X10347857Y-13905952D02*
X10328810Y-13915476D01*
X10281190Y-13915476D01*
X10262143Y-13905952D01*
X10252619Y-13886905D01*
X10252619Y-13867857D01*
X10262143Y-13848809D01*
X10281190Y-13839286D01*
X10328810Y-13839286D01*
X10347857Y-13829762D01*
X10443095Y-13782143D02*
X10443095Y-13982143D01*
X10443095Y-13791667D02*
X10462143Y-13782143D01*
X10500238Y-13782143D01*
X10519286Y-13791667D01*
X10528810Y-13801190D01*
X10538333Y-13820238D01*
X10538333Y-13877381D01*
X10528810Y-13896428D01*
X10519286Y-13905952D01*
X10500238Y-13915476D01*
X10462143Y-13915476D01*
X10443095Y-13905952D01*
X10624048Y-13896428D02*
X10633571Y-13905952D01*
X10624048Y-13915476D01*
X10614524Y-13905952D01*
X10624048Y-13896428D01*
X10624048Y-13915476D01*
X10624048Y-13791667D02*
X10633571Y-13801190D01*
X10624048Y-13810714D01*
X10614524Y-13801190D01*
X10624048Y-13791667D01*
X10624048Y-13810714D01*
D12*
X8960000Y-14227500D02*
X8995000Y-14262500D01*
X8995000Y-14227500D02*
X8960000Y-14262500D01*
D11*
X9290714Y-14135476D02*
X9309762Y-14135476D01*
X9328810Y-14145000D01*
X9338333Y-14154524D01*
X9347857Y-14173571D01*
X9357381Y-14211667D01*
X9357381Y-14259286D01*
X9347857Y-14297381D01*
X9338333Y-14316428D01*
X9328810Y-14325952D01*
X9309762Y-14335476D01*
X9290714Y-14335476D01*
X9271667Y-14325952D01*
X9262143Y-14316428D01*
X9252619Y-14297381D01*
X9243095Y-14259286D01*
X9243095Y-14211667D01*
X9252619Y-14173571D01*
X9262143Y-14154524D01*
X9271667Y-14145000D01*
X9290714Y-14135476D01*
X9443095Y-14316428D02*
X9452619Y-14325952D01*
X9443095Y-14335476D01*
X9433571Y-14325952D01*
X9443095Y-14316428D01*
X9443095Y-14335476D01*
X9519286Y-14135476D02*
X9643095Y-14135476D01*
X9576429Y-14211667D01*
X9605000Y-14211667D01*
X9624048Y-14221190D01*
X9633571Y-14230714D01*
X9643095Y-14249762D01*
X9643095Y-14297381D01*
X9633571Y-14316428D01*
X9624048Y-14325952D01*
X9605000Y-14335476D01*
X9547857Y-14335476D01*
X9528810Y-14325952D01*
X9519286Y-14316428D01*
X9824048Y-14135476D02*
X9728810Y-14135476D01*
X9719286Y-14230714D01*
X9728810Y-14221190D01*
X9747857Y-14211667D01*
X9795476Y-14211667D01*
X9814524Y-14221190D01*
X9824048Y-14230714D01*
X9833571Y-14249762D01*
X9833571Y-14297381D01*
X9824048Y-14316428D01*
X9814524Y-14325952D01*
X9795476Y-14335476D01*
X9747857Y-14335476D01*
X9728810Y-14325952D01*
X9719286Y-14316428D01*
X9957381Y-14135476D02*
X9976429Y-14135476D01*
X9995476Y-14145000D01*
X10005000Y-14154524D01*
X10014524Y-14173571D01*
X10024048Y-14211667D01*
X10024048Y-14259286D01*
X10014524Y-14297381D01*
X10005000Y-14316428D01*
X9995476Y-14325952D01*
X9976429Y-14335476D01*
X9957381Y-14335476D01*
X9938333Y-14325952D01*
X9928810Y-14316428D01*
X9919286Y-14297381D01*
X9909762Y-14259286D01*
X9909762Y-14211667D01*
X9919286Y-14173571D01*
X9928810Y-14154524D01*
X9938333Y-14145000D01*
X9957381Y-14135476D01*
X10109762Y-14335476D02*
X10109762Y-14202143D01*
X10109762Y-14221190D02*
X10119286Y-14211667D01*
X10138333Y-14202143D01*
X10166905Y-14202143D01*
X10185952Y-14211667D01*
X10195476Y-14230714D01*
X10195476Y-14335476D01*
X10195476Y-14230714D02*
X10205000Y-14211667D01*
X10224048Y-14202143D01*
X10252619Y-14202143D01*
X10271667Y-14211667D01*
X10281190Y-14230714D01*
X10281190Y-14335476D01*
X10376429Y-14335476D02*
X10376429Y-14202143D01*
X10376429Y-14221190D02*
X10385952Y-14211667D01*
X10405000Y-14202143D01*
X10433571Y-14202143D01*
X10452619Y-14211667D01*
X10462143Y-14230714D01*
X10462143Y-14335476D01*
X10462143Y-14230714D02*
X10471667Y-14211667D01*
X10490714Y-14202143D01*
X10519286Y-14202143D01*
X10538333Y-14211667D01*
X10547857Y-14230714D01*
X10547857Y-14335476D01*
X10938333Y-14125952D02*
X10766905Y-14383095D01*
X11195476Y-14135476D02*
X11214524Y-14135476D01*
X11233571Y-14145000D01*
X11243095Y-14154524D01*
X11252619Y-14173571D01*
X11262143Y-14211667D01*
X11262143Y-14259286D01*
X11252619Y-14297381D01*
X11243095Y-14316428D01*
X11233571Y-14325952D01*
X11214524Y-14335476D01*
X11195476Y-14335476D01*
X11176429Y-14325952D01*
X11166905Y-14316428D01*
X11157381Y-14297381D01*
X11147857Y-14259286D01*
X11147857Y-14211667D01*
X11157381Y-14173571D01*
X11166905Y-14154524D01*
X11176429Y-14145000D01*
X11195476Y-14135476D01*
X11347857Y-14316428D02*
X11357381Y-14325952D01*
X11347857Y-14335476D01*
X11338333Y-14325952D01*
X11347857Y-14316428D01*
X11347857Y-14335476D01*
X11481190Y-14135476D02*
X11500238Y-14135476D01*
X11519286Y-14145000D01*
X11528809Y-14154524D01*
X11538333Y-14173571D01*
X11547857Y-14211667D01*
X11547857Y-14259286D01*
X11538333Y-14297381D01*
X11528809Y-14316428D01*
X11519286Y-14325952D01*
X11500238Y-14335476D01*
X11481190Y-14335476D01*
X11462143Y-14325952D01*
X11452619Y-14316428D01*
X11443095Y-14297381D01*
X11433571Y-14259286D01*
X11433571Y-14211667D01*
X11443095Y-14173571D01*
X11452619Y-14154524D01*
X11462143Y-14145000D01*
X11481190Y-14135476D01*
X11738333Y-14335476D02*
X11624048Y-14335476D01*
X11681190Y-14335476D02*
X11681190Y-14135476D01*
X11662143Y-14164048D01*
X11643095Y-14183095D01*
X11624048Y-14192619D01*
X11805000Y-14135476D02*
X11928809Y-14135476D01*
X11862143Y-14211667D01*
X11890714Y-14211667D01*
X11909762Y-14221190D01*
X11919286Y-14230714D01*
X11928809Y-14249762D01*
X11928809Y-14297381D01*
X11919286Y-14316428D01*
X11909762Y-14325952D01*
X11890714Y-14335476D01*
X11833571Y-14335476D01*
X11814524Y-14325952D01*
X11805000Y-14316428D01*
X12043095Y-14221190D02*
X12024048Y-14211667D01*
X12014524Y-14202143D01*
X12005000Y-14183095D01*
X12005000Y-14173571D01*
X12014524Y-14154524D01*
X12024048Y-14145000D01*
X12043095Y-14135476D01*
X12081190Y-14135476D01*
X12100238Y-14145000D01*
X12109762Y-14154524D01*
X12119286Y-14173571D01*
X12119286Y-14183095D01*
X12109762Y-14202143D01*
X12100238Y-14211667D01*
X12081190Y-14221190D01*
X12043095Y-14221190D01*
X12024048Y-14230714D01*
X12014524Y-14240238D01*
X12005000Y-14259286D01*
X12005000Y-14297381D01*
X12014524Y-14316428D01*
X12024048Y-14325952D01*
X12043095Y-14335476D01*
X12081190Y-14335476D01*
X12100238Y-14325952D01*
X12109762Y-14316428D01*
X12119286Y-14297381D01*
X12119286Y-14259286D01*
X12109762Y-14240238D01*
X12100238Y-14230714D01*
X12081190Y-14221190D01*
X12195476Y-14135476D02*
X12195476Y-14173571D01*
X12271667Y-14135476D02*
X12271667Y-14173571D01*
X12566905Y-14411667D02*
X12557381Y-14402143D01*
X12538333Y-14373571D01*
X12528809Y-14354524D01*
X12519286Y-14325952D01*
X12509762Y-14278333D01*
X12509762Y-14240238D01*
X12519286Y-14192619D01*
X12528809Y-14164048D01*
X12538333Y-14145000D01*
X12557381Y-14116428D01*
X12566905Y-14106905D01*
X12747857Y-14335476D02*
X12633571Y-14335476D01*
X12690714Y-14335476D02*
X12690714Y-14135476D01*
X12671667Y-14164048D01*
X12652619Y-14183095D01*
X12633571Y-14192619D01*
X12824048Y-14154524D02*
X12833571Y-14145000D01*
X12852619Y-14135476D01*
X12900238Y-14135476D01*
X12919286Y-14145000D01*
X12928809Y-14154524D01*
X12938333Y-14173571D01*
X12938333Y-14192619D01*
X12928809Y-14221190D01*
X12814524Y-14335476D01*
X12938333Y-14335476D01*
X13176428Y-14335476D02*
X13176428Y-14135476D01*
X13262143Y-14335476D02*
X13262143Y-14230714D01*
X13252619Y-14211667D01*
X13233571Y-14202143D01*
X13205000Y-14202143D01*
X13185952Y-14211667D01*
X13176428Y-14221190D01*
X13385952Y-14335476D02*
X13366905Y-14325952D01*
X13357381Y-14316428D01*
X13347857Y-14297381D01*
X13347857Y-14240238D01*
X13357381Y-14221190D01*
X13366905Y-14211667D01*
X13385952Y-14202143D01*
X13414524Y-14202143D01*
X13433571Y-14211667D01*
X13443095Y-14221190D01*
X13452619Y-14240238D01*
X13452619Y-14297381D01*
X13443095Y-14316428D01*
X13433571Y-14325952D01*
X13414524Y-14335476D01*
X13385952Y-14335476D01*
X13566905Y-14335476D02*
X13547857Y-14325952D01*
X13538333Y-14306905D01*
X13538333Y-14135476D01*
X13719286Y-14325952D02*
X13700238Y-14335476D01*
X13662143Y-14335476D01*
X13643095Y-14325952D01*
X13633571Y-14306905D01*
X13633571Y-14230714D01*
X13643095Y-14211667D01*
X13662143Y-14202143D01*
X13700238Y-14202143D01*
X13719286Y-14211667D01*
X13728809Y-14230714D01*
X13728809Y-14249762D01*
X13633571Y-14268809D01*
X13805000Y-14325952D02*
X13824048Y-14335476D01*
X13862143Y-14335476D01*
X13881190Y-14325952D01*
X13890714Y-14306905D01*
X13890714Y-14297381D01*
X13881190Y-14278333D01*
X13862143Y-14268809D01*
X13833571Y-14268809D01*
X13814524Y-14259286D01*
X13805000Y-14240238D01*
X13805000Y-14230714D01*
X13814524Y-14211667D01*
X13833571Y-14202143D01*
X13862143Y-14202143D01*
X13881190Y-14211667D01*
X13957381Y-14411667D02*
X13966905Y-14402143D01*
X13985952Y-14373571D01*
X13995476Y-14354524D01*
X14005000Y-14325952D01*
X14014524Y-14278333D01*
X14014524Y-14240238D01*
X14005000Y-14192619D01*
X13995476Y-14164048D01*
X13985952Y-14145000D01*
X13966905Y-14116428D01*
X13957381Y-14106905D01*
D13*
X8995000Y-14509000D02*
G75*
G03*
X8995000Y-14509000I-20000J0D01*
G01*
D11*
X9290714Y-14399476D02*
X9309762Y-14399476D01*
X9328810Y-14409000D01*
X9338333Y-14418524D01*
X9347857Y-14437571D01*
X9357381Y-14475667D01*
X9357381Y-14523286D01*
X9347857Y-14561381D01*
X9338333Y-14580428D01*
X9328810Y-14589952D01*
X9309762Y-14599476D01*
X9290714Y-14599476D01*
X9271667Y-14589952D01*
X9262143Y-14580428D01*
X9252619Y-14561381D01*
X9243095Y-14523286D01*
X9243095Y-14475667D01*
X9252619Y-14437571D01*
X9262143Y-14418524D01*
X9271667Y-14409000D01*
X9290714Y-14399476D01*
X9443095Y-14580428D02*
X9452619Y-14589952D01*
X9443095Y-14599476D01*
X9433571Y-14589952D01*
X9443095Y-14580428D01*
X9443095Y-14599476D01*
X9624048Y-14466143D02*
X9624048Y-14599476D01*
X9576429Y-14389952D02*
X9528810Y-14532809D01*
X9652619Y-14532809D01*
X9766905Y-14399476D02*
X9785952Y-14399476D01*
X9805000Y-14409000D01*
X9814524Y-14418524D01*
X9824048Y-14437571D01*
X9833571Y-14475667D01*
X9833571Y-14523286D01*
X9824048Y-14561381D01*
X9814524Y-14580428D01*
X9805000Y-14589952D01*
X9785952Y-14599476D01*
X9766905Y-14599476D01*
X9747857Y-14589952D01*
X9738333Y-14580428D01*
X9728810Y-14561381D01*
X9719286Y-14523286D01*
X9719286Y-14475667D01*
X9728810Y-14437571D01*
X9738333Y-14418524D01*
X9747857Y-14409000D01*
X9766905Y-14399476D01*
X9957381Y-14399476D02*
X9976429Y-14399476D01*
X9995476Y-14409000D01*
X10005000Y-14418524D01*
X10014524Y-14437571D01*
X10024048Y-14475667D01*
X10024048Y-14523286D01*
X10014524Y-14561381D01*
X10005000Y-14580428D01*
X9995476Y-14589952D01*
X9976429Y-14599476D01*
X9957381Y-14599476D01*
X9938333Y-14589952D01*
X9928810Y-14580428D01*
X9919286Y-14561381D01*
X9909762Y-14523286D01*
X9909762Y-14475667D01*
X9919286Y-14437571D01*
X9928810Y-14418524D01*
X9938333Y-14409000D01*
X9957381Y-14399476D01*
X10109762Y-14599476D02*
X10109762Y-14466143D01*
X10109762Y-14485190D02*
X10119286Y-14475667D01*
X10138333Y-14466143D01*
X10166905Y-14466143D01*
X10185952Y-14475667D01*
X10195476Y-14494714D01*
X10195476Y-14599476D01*
X10195476Y-14494714D02*
X10205000Y-14475667D01*
X10224048Y-14466143D01*
X10252619Y-14466143D01*
X10271667Y-14475667D01*
X10281190Y-14494714D01*
X10281190Y-14599476D01*
X10376429Y-14599476D02*
X10376429Y-14466143D01*
X10376429Y-14485190D02*
X10385952Y-14475667D01*
X10405000Y-14466143D01*
X10433571Y-14466143D01*
X10452619Y-14475667D01*
X10462143Y-14494714D01*
X10462143Y-14599476D01*
X10462143Y-14494714D02*
X10471667Y-14475667D01*
X10490714Y-14466143D01*
X10519286Y-14466143D01*
X10538333Y-14475667D01*
X10547857Y-14494714D01*
X10547857Y-14599476D01*
X10938333Y-14389952D02*
X10766905Y-14647095D01*
X11195476Y-14399476D02*
X11214524Y-14399476D01*
X11233571Y-14409000D01*
X11243095Y-14418524D01*
X11252619Y-14437571D01*
X11262143Y-14475667D01*
X11262143Y-14523286D01*
X11252619Y-14561381D01*
X11243095Y-14580428D01*
X11233571Y-14589952D01*
X11214524Y-14599476D01*
X11195476Y-14599476D01*
X11176429Y-14589952D01*
X11166905Y-14580428D01*
X11157381Y-14561381D01*
X11147857Y-14523286D01*
X11147857Y-14475667D01*
X11157381Y-14437571D01*
X11166905Y-14418524D01*
X11176429Y-14409000D01*
X11195476Y-14399476D01*
X11347857Y-14580428D02*
X11357381Y-14589952D01*
X11347857Y-14599476D01*
X11338333Y-14589952D01*
X11347857Y-14580428D01*
X11347857Y-14599476D01*
X11481190Y-14399476D02*
X11500238Y-14399476D01*
X11519286Y-14409000D01*
X11528809Y-14418524D01*
X11538333Y-14437571D01*
X11547857Y-14475667D01*
X11547857Y-14523286D01*
X11538333Y-14561381D01*
X11528809Y-14580428D01*
X11519286Y-14589952D01*
X11500238Y-14599476D01*
X11481190Y-14599476D01*
X11462143Y-14589952D01*
X11452619Y-14580428D01*
X11443095Y-14561381D01*
X11433571Y-14523286D01*
X11433571Y-14475667D01*
X11443095Y-14437571D01*
X11452619Y-14418524D01*
X11462143Y-14409000D01*
X11481190Y-14399476D01*
X11738333Y-14599476D02*
X11624048Y-14599476D01*
X11681190Y-14599476D02*
X11681190Y-14399476D01*
X11662143Y-14428048D01*
X11643095Y-14447095D01*
X11624048Y-14456619D01*
X11919286Y-14399476D02*
X11824048Y-14399476D01*
X11814524Y-14494714D01*
X11824048Y-14485190D01*
X11843095Y-14475667D01*
X11890714Y-14475667D01*
X11909762Y-14485190D01*
X11919286Y-14494714D01*
X11928809Y-14513762D01*
X11928809Y-14561381D01*
X11919286Y-14580428D01*
X11909762Y-14589952D01*
X11890714Y-14599476D01*
X11843095Y-14599476D01*
X11824048Y-14589952D01*
X11814524Y-14580428D01*
X11995476Y-14399476D02*
X12128809Y-14399476D01*
X12043095Y-14599476D01*
X12195476Y-14399476D02*
X12195476Y-14437571D01*
X12271667Y-14399476D02*
X12271667Y-14437571D01*
X12566905Y-14675667D02*
X12557381Y-14666143D01*
X12538333Y-14637571D01*
X12528809Y-14618524D01*
X12519286Y-14589952D01*
X12509762Y-14542333D01*
X12509762Y-14504238D01*
X12519286Y-14456619D01*
X12528809Y-14428048D01*
X12538333Y-14409000D01*
X12557381Y-14380428D01*
X12566905Y-14370905D01*
X12624048Y-14399476D02*
X12757381Y-14399476D01*
X12671667Y-14599476D01*
X12871667Y-14399476D02*
X12890714Y-14399476D01*
X12909762Y-14409000D01*
X12919286Y-14418524D01*
X12928809Y-14437571D01*
X12938333Y-14475667D01*
X12938333Y-14523286D01*
X12928809Y-14561381D01*
X12919286Y-14580428D01*
X12909762Y-14589952D01*
X12890714Y-14599476D01*
X12871667Y-14599476D01*
X12852619Y-14589952D01*
X12843095Y-14580428D01*
X12833571Y-14561381D01*
X12824048Y-14523286D01*
X12824048Y-14475667D01*
X12833571Y-14437571D01*
X12843095Y-14418524D01*
X12852619Y-14409000D01*
X12871667Y-14399476D01*
X13176428Y-14599476D02*
X13176428Y-14399476D01*
X13262143Y-14599476D02*
X13262143Y-14494714D01*
X13252619Y-14475667D01*
X13233571Y-14466143D01*
X13205000Y-14466143D01*
X13185952Y-14475667D01*
X13176428Y-14485190D01*
X13385952Y-14599476D02*
X13366905Y-14589952D01*
X13357381Y-14580428D01*
X13347857Y-14561381D01*
X13347857Y-14504238D01*
X13357381Y-14485190D01*
X13366905Y-14475667D01*
X13385952Y-14466143D01*
X13414524Y-14466143D01*
X13433571Y-14475667D01*
X13443095Y-14485190D01*
X13452619Y-14504238D01*
X13452619Y-14561381D01*
X13443095Y-14580428D01*
X13433571Y-14589952D01*
X13414524Y-14599476D01*
X13385952Y-14599476D01*
X13566905Y-14599476D02*
X13547857Y-14589952D01*
X13538333Y-14570905D01*
X13538333Y-14399476D01*
X13719286Y-14589952D02*
X13700238Y-14599476D01*
X13662143Y-14599476D01*
X13643095Y-14589952D01*
X13633571Y-14570905D01*
X13633571Y-14494714D01*
X13643095Y-14475667D01*
X13662143Y-14466143D01*
X13700238Y-14466143D01*
X13719286Y-14475667D01*
X13728809Y-14494714D01*
X13728809Y-14513762D01*
X13633571Y-14532809D01*
X13805000Y-14589952D02*
X13824048Y-14599476D01*
X13862143Y-14599476D01*
X13881190Y-14589952D01*
X13890714Y-14570905D01*
X13890714Y-14561381D01*
X13881190Y-14542333D01*
X13862143Y-14532809D01*
X13833571Y-14532809D01*
X13814524Y-14523286D01*
X13805000Y-14504238D01*
X13805000Y-14494714D01*
X13814524Y-14475667D01*
X13833571Y-14466143D01*
X13862143Y-14466143D01*
X13881190Y-14475667D01*
X13957381Y-14675667D02*
X13966905Y-14666143D01*
X13985952Y-14637571D01*
X13995476Y-14618524D01*
X14005000Y-14589952D01*
X14014524Y-14542333D01*
X14014524Y-14504238D01*
X14005000Y-14456619D01*
X13995476Y-14428048D01*
X13985952Y-14409000D01*
X13966905Y-14380428D01*
X13957381Y-14370905D01*
D14*
X8945000Y-14723000D02*
X8945000Y-14823000D01*
X8895000Y-14773000D02*
X8995000Y-14773000D01*
D11*
X9357381Y-14863476D02*
X9243095Y-14863476D01*
X9300238Y-14863476D02*
X9300238Y-14663476D01*
X9281190Y-14692048D01*
X9262143Y-14711095D01*
X9243095Y-14720619D01*
X9443095Y-14844428D02*
X9452619Y-14853952D01*
X9443095Y-14863476D01*
X9433571Y-14853952D01*
X9443095Y-14844428D01*
X9443095Y-14863476D01*
X9576429Y-14663476D02*
X9595476Y-14663476D01*
X9614524Y-14673000D01*
X9624048Y-14682524D01*
X9633571Y-14701571D01*
X9643095Y-14739667D01*
X9643095Y-14787286D01*
X9633571Y-14825381D01*
X9624048Y-14844428D01*
X9614524Y-14853952D01*
X9595476Y-14863476D01*
X9576429Y-14863476D01*
X9557381Y-14853952D01*
X9547857Y-14844428D01*
X9538333Y-14825381D01*
X9528810Y-14787286D01*
X9528810Y-14739667D01*
X9538333Y-14701571D01*
X9547857Y-14682524D01*
X9557381Y-14673000D01*
X9576429Y-14663476D01*
X9766905Y-14663476D02*
X9785952Y-14663476D01*
X9805000Y-14673000D01*
X9814524Y-14682524D01*
X9824048Y-14701571D01*
X9833571Y-14739667D01*
X9833571Y-14787286D01*
X9824048Y-14825381D01*
X9814524Y-14844428D01*
X9805000Y-14853952D01*
X9785952Y-14863476D01*
X9766905Y-14863476D01*
X9747857Y-14853952D01*
X9738333Y-14844428D01*
X9728810Y-14825381D01*
X9719286Y-14787286D01*
X9719286Y-14739667D01*
X9728810Y-14701571D01*
X9738333Y-14682524D01*
X9747857Y-14673000D01*
X9766905Y-14663476D01*
X9957381Y-14663476D02*
X9976429Y-14663476D01*
X9995476Y-14673000D01*
X10005000Y-14682524D01*
X10014524Y-14701571D01*
X10024048Y-14739667D01*
X10024048Y-14787286D01*
X10014524Y-14825381D01*
X10005000Y-14844428D01*
X9995476Y-14853952D01*
X9976429Y-14863476D01*
X9957381Y-14863476D01*
X9938333Y-14853952D01*
X9928810Y-14844428D01*
X9919286Y-14825381D01*
X9909762Y-14787286D01*
X9909762Y-14739667D01*
X9919286Y-14701571D01*
X9928810Y-14682524D01*
X9938333Y-14673000D01*
X9957381Y-14663476D01*
X10109762Y-14863476D02*
X10109762Y-14730143D01*
X10109762Y-14749190D02*
X10119286Y-14739667D01*
X10138333Y-14730143D01*
X10166905Y-14730143D01*
X10185952Y-14739667D01*
X10195476Y-14758714D01*
X10195476Y-14863476D01*
X10195476Y-14758714D02*
X10205000Y-14739667D01*
X10224048Y-14730143D01*
X10252619Y-14730143D01*
X10271667Y-14739667D01*
X10281190Y-14758714D01*
X10281190Y-14863476D01*
X10376429Y-14863476D02*
X10376429Y-14730143D01*
X10376429Y-14749190D02*
X10385952Y-14739667D01*
X10405000Y-14730143D01*
X10433571Y-14730143D01*
X10452619Y-14739667D01*
X10462143Y-14758714D01*
X10462143Y-14863476D01*
X10462143Y-14758714D02*
X10471667Y-14739667D01*
X10490714Y-14730143D01*
X10519286Y-14730143D01*
X10538333Y-14739667D01*
X10547857Y-14758714D01*
X10547857Y-14863476D01*
X10938333Y-14653952D02*
X10766905Y-14911095D01*
X11195476Y-14663476D02*
X11214524Y-14663476D01*
X11233571Y-14673000D01*
X11243095Y-14682524D01*
X11252619Y-14701571D01*
X11262143Y-14739667D01*
X11262143Y-14787286D01*
X11252619Y-14825381D01*
X11243095Y-14844428D01*
X11233571Y-14853952D01*
X11214524Y-14863476D01*
X11195476Y-14863476D01*
X11176429Y-14853952D01*
X11166905Y-14844428D01*
X11157381Y-14825381D01*
X11147857Y-14787286D01*
X11147857Y-14739667D01*
X11157381Y-14701571D01*
X11166905Y-14682524D01*
X11176429Y-14673000D01*
X11195476Y-14663476D01*
X11347857Y-14844428D02*
X11357381Y-14853952D01*
X11347857Y-14863476D01*
X11338333Y-14853952D01*
X11347857Y-14844428D01*
X11347857Y-14863476D01*
X11481190Y-14663476D02*
X11500238Y-14663476D01*
X11519286Y-14673000D01*
X11528809Y-14682524D01*
X11538333Y-14701571D01*
X11547857Y-14739667D01*
X11547857Y-14787286D01*
X11538333Y-14825381D01*
X11528809Y-14844428D01*
X11519286Y-14853952D01*
X11500238Y-14863476D01*
X11481190Y-14863476D01*
X11462143Y-14853952D01*
X11452619Y-14844428D01*
X11443095Y-14825381D01*
X11433571Y-14787286D01*
X11433571Y-14739667D01*
X11443095Y-14701571D01*
X11452619Y-14682524D01*
X11462143Y-14673000D01*
X11481190Y-14663476D01*
X11614524Y-14663476D02*
X11738333Y-14663476D01*
X11671667Y-14739667D01*
X11700238Y-14739667D01*
X11719286Y-14749190D01*
X11728809Y-14758714D01*
X11738333Y-14777762D01*
X11738333Y-14825381D01*
X11728809Y-14844428D01*
X11719286Y-14853952D01*
X11700238Y-14863476D01*
X11643095Y-14863476D01*
X11624048Y-14853952D01*
X11614524Y-14844428D01*
X11833571Y-14863476D02*
X11871667Y-14863476D01*
X11890714Y-14853952D01*
X11900238Y-14844428D01*
X11919286Y-14815857D01*
X11928809Y-14777762D01*
X11928809Y-14701571D01*
X11919286Y-14682524D01*
X11909762Y-14673000D01*
X11890714Y-14663476D01*
X11852619Y-14663476D01*
X11833571Y-14673000D01*
X11824048Y-14682524D01*
X11814524Y-14701571D01*
X11814524Y-14749190D01*
X11824048Y-14768238D01*
X11833571Y-14777762D01*
X11852619Y-14787286D01*
X11890714Y-14787286D01*
X11909762Y-14777762D01*
X11919286Y-14768238D01*
X11928809Y-14749190D01*
X12100238Y-14730143D02*
X12100238Y-14863476D01*
X12052619Y-14653952D02*
X12005000Y-14796809D01*
X12128809Y-14796809D01*
X12195476Y-14663476D02*
X12195476Y-14701571D01*
X12271667Y-14663476D02*
X12271667Y-14701571D01*
X12566905Y-14939667D02*
X12557381Y-14930143D01*
X12538333Y-14901571D01*
X12528809Y-14882524D01*
X12519286Y-14853952D01*
X12509762Y-14806333D01*
X12509762Y-14768238D01*
X12519286Y-14720619D01*
X12528809Y-14692048D01*
X12538333Y-14673000D01*
X12557381Y-14644428D01*
X12566905Y-14634905D01*
X12738333Y-14663476D02*
X12643095Y-14663476D01*
X12633571Y-14758714D01*
X12643095Y-14749190D01*
X12662143Y-14739667D01*
X12709762Y-14739667D01*
X12728809Y-14749190D01*
X12738333Y-14758714D01*
X12747857Y-14777762D01*
X12747857Y-14825381D01*
X12738333Y-14844428D01*
X12728809Y-14853952D01*
X12709762Y-14863476D01*
X12662143Y-14863476D01*
X12643095Y-14853952D01*
X12633571Y-14844428D01*
X12843095Y-14863476D02*
X12881190Y-14863476D01*
X12900238Y-14853952D01*
X12909762Y-14844428D01*
X12928809Y-14815857D01*
X12938333Y-14777762D01*
X12938333Y-14701571D01*
X12928809Y-14682524D01*
X12919286Y-14673000D01*
X12900238Y-14663476D01*
X12862143Y-14663476D01*
X12843095Y-14673000D01*
X12833571Y-14682524D01*
X12824048Y-14701571D01*
X12824048Y-14749190D01*
X12833571Y-14768238D01*
X12843095Y-14777762D01*
X12862143Y-14787286D01*
X12900238Y-14787286D01*
X12919286Y-14777762D01*
X12928809Y-14768238D01*
X12938333Y-14749190D01*
X13176428Y-14863476D02*
X13176428Y-14663476D01*
X13262143Y-14863476D02*
X13262143Y-14758714D01*
X13252619Y-14739667D01*
X13233571Y-14730143D01*
X13205000Y-14730143D01*
X13185952Y-14739667D01*
X13176428Y-14749190D01*
X13385952Y-14863476D02*
X13366905Y-14853952D01*
X13357381Y-14844428D01*
X13347857Y-14825381D01*
X13347857Y-14768238D01*
X13357381Y-14749190D01*
X13366905Y-14739667D01*
X13385952Y-14730143D01*
X13414524Y-14730143D01*
X13433571Y-14739667D01*
X13443095Y-14749190D01*
X13452619Y-14768238D01*
X13452619Y-14825381D01*
X13443095Y-14844428D01*
X13433571Y-14853952D01*
X13414524Y-14863476D01*
X13385952Y-14863476D01*
X13566905Y-14863476D02*
X13547857Y-14853952D01*
X13538333Y-14834905D01*
X13538333Y-14663476D01*
X13719286Y-14853952D02*
X13700238Y-14863476D01*
X13662143Y-14863476D01*
X13643095Y-14853952D01*
X13633571Y-14834905D01*
X13633571Y-14758714D01*
X13643095Y-14739667D01*
X13662143Y-14730143D01*
X13700238Y-14730143D01*
X13719286Y-14739667D01*
X13728809Y-14758714D01*
X13728809Y-14777762D01*
X13633571Y-14796809D01*
X13805000Y-14853952D02*
X13824048Y-14863476D01*
X13862143Y-14863476D01*
X13881190Y-14853952D01*
X13890714Y-14834905D01*
X13890714Y-14825381D01*
X13881190Y-14806333D01*
X13862143Y-14796809D01*
X13833571Y-14796809D01*
X13814524Y-14787286D01*
X13805000Y-14768238D01*
X13805000Y-14758714D01*
X13814524Y-14739667D01*
X13833571Y-14730143D01*
X13862143Y-14730143D01*
X13881190Y-14739667D01*
X13957381Y-14939667D02*
X13966905Y-14930143D01*
X13985952Y-14901571D01*
X13995476Y-14882524D01*
X14005000Y-14853952D01*
X14014524Y-14806333D01*
X14014524Y-14768238D01*
X14005000Y-14720619D01*
X13995476Y-14692048D01*
X13985952Y-14673000D01*
X13966905Y-14644428D01*
X13957381Y-14634905D01*
M02*
