G04 #@! TF.GenerationSoftware,KiCad,Pcbnew,(6.0.2)*
G04 #@! TF.CreationDate,2022-03-22T22:10:50-04:00*
G04 #@! TF.ProjectId,PCB,5043422e-6b69-4636-9164-5f7063625858,rev?*
G04 #@! TF.SameCoordinates,Original*
G04 #@! TF.FileFunction,Legend,Bot*
G04 #@! TF.FilePolarity,Positive*
%FSLAX46Y46*%
G04 Gerber Fmt 4.6, Leading zero omitted, Abs format (unit mm)*
G04 Created by KiCad (PCBNEW (6.0.2)) date 2022-03-22 22:10:50*
%MOMM*%
%LPD*%
G01*
G04 APERTURE LIST*
%ADD10C,0.150000*%
%ADD11C,0.120000*%
%ADD12C,1.625000*%
%ADD13R,1.700000X1.700000*%
%ADD14O,1.700000X1.700000*%
G04 APERTURE END LIST*
D10*
X98753333Y-86482380D02*
X98753333Y-87196666D01*
X98800952Y-87339523D01*
X98896190Y-87434761D01*
X99039047Y-87482380D01*
X99134285Y-87482380D01*
X97848571Y-86815714D02*
X97848571Y-87482380D01*
X98086666Y-86434761D02*
X98324761Y-87149047D01*
X97705714Y-87149047D01*
D11*
X97070000Y-80920000D02*
X97070000Y-83520000D01*
X147990000Y-80920000D02*
X147990000Y-86120000D01*
X99670000Y-83520000D02*
X99670000Y-86120000D01*
X97070000Y-83520000D02*
X99670000Y-83520000D01*
X99670000Y-86120000D02*
X147990000Y-86120000D01*
X97070000Y-86120000D02*
X98400000Y-86120000D01*
X97070000Y-84790000D02*
X97070000Y-86120000D01*
X97070000Y-80920000D02*
X147990000Y-80920000D01*
%LPC*%
D12*
X95687500Y-132500000D02*
G75*
G03*
X95687500Y-132500000I-2187500J0D01*
G01*
X153687500Y-132500000D02*
G75*
G03*
X153687500Y-132500000I-2187500J0D01*
G01*
X95687500Y-83500000D02*
G75*
G03*
X95687500Y-83500000I-2187500J0D01*
G01*
X153687500Y-83500000D02*
G75*
G03*
X153687500Y-83500000I-2187500J0D01*
G01*
D13*
X101200000Y-119480000D03*
D14*
X101200000Y-122020000D03*
X101200000Y-124560000D03*
X101200000Y-127100000D03*
X142250000Y-91225000D03*
X139710000Y-91225000D03*
X137170000Y-91225000D03*
X134630000Y-91225000D03*
D13*
X132090000Y-91225000D03*
X121330000Y-92000000D03*
D14*
X118790000Y-92000000D03*
X116250000Y-92000000D03*
X113710000Y-92000000D03*
X111170000Y-92000000D03*
X108630000Y-92000000D03*
X106090000Y-92000000D03*
X103550000Y-92000000D03*
X101010000Y-92000000D03*
X98470000Y-92000000D03*
D13*
X98400000Y-84790000D03*
D14*
X98400000Y-82250000D03*
X100940000Y-84790000D03*
X100940000Y-82250000D03*
X103480000Y-84790000D03*
X103480000Y-82250000D03*
X106020000Y-84790000D03*
X106020000Y-82250000D03*
X108560000Y-84790000D03*
X108560000Y-82250000D03*
X111100000Y-84790000D03*
X111100000Y-82250000D03*
X113640000Y-84790000D03*
X113640000Y-82250000D03*
X116180000Y-84790000D03*
X116180000Y-82250000D03*
X118720000Y-84790000D03*
X118720000Y-82250000D03*
X121260000Y-84790000D03*
X121260000Y-82250000D03*
X123800000Y-84790000D03*
X123800000Y-82250000D03*
X126340000Y-84790000D03*
X126340000Y-82250000D03*
X128880000Y-84790000D03*
X128880000Y-82250000D03*
X131420000Y-84790000D03*
X131420000Y-82250000D03*
X133960000Y-84790000D03*
X133960000Y-82250000D03*
X136500000Y-84790000D03*
X136500000Y-82250000D03*
X139040000Y-84790000D03*
X139040000Y-82250000D03*
X141580000Y-84790000D03*
X141580000Y-82250000D03*
X144120000Y-84790000D03*
X144120000Y-82250000D03*
X146660000Y-84790000D03*
X146660000Y-82250000D03*
M02*
