G04 #@! TF.GenerationSoftware,KiCad,Pcbnew,(6.0.2)*
G04 #@! TF.CreationDate,2022-03-22T22:10:50-04:00*
G04 #@! TF.ProjectId,PCB,5043422e-6b69-4636-9164-5f7063625858,rev?*
G04 #@! TF.SameCoordinates,Original*
G04 #@! TF.FileFunction,Paste,Top*
G04 #@! TF.FilePolarity,Positive*
%FSLAX46Y46*%
G04 Gerber Fmt 4.6, Leading zero omitted, Abs format (unit mm)*
G04 Created by KiCad (PCBNEW (6.0.2)) date 2022-03-22 22:10:50*
%MOMM*%
%LPD*%
G01*
G04 APERTURE LIST*
G04 Aperture macros list*
%AMRoundRect*
0 Rectangle with rounded corners*
0 $1 Rounding radius*
0 $2 $3 $4 $5 $6 $7 $8 $9 X,Y pos of 4 corners*
0 Add a 4 corners polygon primitive as box body*
4,1,4,$2,$3,$4,$5,$6,$7,$8,$9,$2,$3,0*
0 Add four circle primitives for the rounded corners*
1,1,$1+$1,$2,$3*
1,1,$1+$1,$4,$5*
1,1,$1+$1,$6,$7*
1,1,$1+$1,$8,$9*
0 Add four rect primitives between the rounded corners*
20,1,$1+$1,$2,$3,$4,$5,0*
20,1,$1+$1,$4,$5,$6,$7,0*
20,1,$1+$1,$6,$7,$8,$9,0*
20,1,$1+$1,$8,$9,$2,$3,0*%
G04 Aperture macros list end*
%ADD10RoundRect,0.200000X-0.200000X0.400000X-0.200000X-0.400000X0.200000X-0.400000X0.200000X0.400000X0*%
%ADD11RoundRect,0.175000X-0.675000X0.175000X-0.675000X-0.175000X0.675000X-0.175000X0.675000X0.175000X0*%
%ADD12RoundRect,0.250001X0.499999X0.924999X-0.499999X0.924999X-0.499999X-0.924999X0.499999X-0.924999X0*%
%ADD13RoundRect,0.250000X0.412500X0.650000X-0.412500X0.650000X-0.412500X-0.650000X0.412500X-0.650000X0*%
%ADD14RoundRect,0.250001X-0.924999X0.499999X-0.924999X-0.499999X0.924999X-0.499999X0.924999X0.499999X0*%
%ADD15RoundRect,0.250000X-0.412500X-0.650000X0.412500X-0.650000X0.412500X0.650000X-0.412500X0.650000X0*%
%ADD16RoundRect,0.250000X-0.625000X0.400000X-0.625000X-0.400000X0.625000X-0.400000X0.625000X0.400000X0*%
%ADD17RoundRect,0.250000X0.650000X-0.412500X0.650000X0.412500X-0.650000X0.412500X-0.650000X-0.412500X0*%
%ADD18RoundRect,0.400000X-0.850000X0.400000X-0.850000X-0.400000X0.850000X-0.400000X0.850000X0.400000X0*%
%ADD19RoundRect,0.500000X0.750000X-0.500000X0.750000X0.500000X-0.750000X0.500000X-0.750000X-0.500000X0*%
%ADD20RoundRect,0.400000X0.850000X-0.400000X0.850000X0.400000X-0.850000X0.400000X-0.850000X-0.400000X0*%
%ADD21RoundRect,0.150000X0.825000X0.150000X-0.825000X0.150000X-0.825000X-0.150000X0.825000X-0.150000X0*%
%ADD22RoundRect,0.250000X-0.650000X0.412500X-0.650000X-0.412500X0.650000X-0.412500X0.650000X0.412500X0*%
%ADD23RoundRect,0.250001X0.924999X-0.499999X0.924999X0.499999X-0.924999X0.499999X-0.924999X-0.499999X0*%
%ADD24RoundRect,0.250000X-0.400000X-0.625000X0.400000X-0.625000X0.400000X0.625000X-0.400000X0.625000X0*%
%ADD25RoundRect,0.250001X-0.499999X-0.924999X0.499999X-0.924999X0.499999X0.924999X-0.499999X0.924999X0*%
%ADD26RoundRect,0.250000X0.625000X-0.400000X0.625000X0.400000X-0.625000X0.400000X-0.625000X-0.400000X0*%
%ADD27RoundRect,0.250000X0.400000X0.625000X-0.400000X0.625000X-0.400000X-0.625000X0.400000X-0.625000X0*%
%ADD28RoundRect,0.250001X-0.462499X-0.624999X0.462499X-0.624999X0.462499X0.624999X-0.462499X0.624999X0*%
%ADD29RoundRect,0.162500X-0.617500X-0.162500X0.617500X-0.162500X0.617500X0.162500X-0.617500X0.162500X0*%
G04 APERTURE END LIST*
D10*
X93065000Y-89450000D03*
X91135000Y-96950000D03*
X91135000Y-89450000D03*
X93065000Y-96950000D03*
D11*
X93950000Y-90950000D03*
X93950000Y-93950000D03*
X93950000Y-95450000D03*
D12*
X143125000Y-95200000D03*
X139875000Y-95200000D03*
D13*
X128762500Y-93300000D03*
X125637500Y-93300000D03*
D14*
X146500000Y-109875000D03*
X146500000Y-113125000D03*
D15*
X118937500Y-96500000D03*
X122062500Y-96500000D03*
D16*
X132900000Y-109950000D03*
X132900000Y-113050000D03*
D17*
X130400000Y-106962500D03*
X130400000Y-103837500D03*
D16*
X146200000Y-92450000D03*
X146200000Y-95550000D03*
D18*
X123750000Y-122240000D03*
D19*
X119250000Y-123400000D03*
D20*
X123750000Y-124560000D03*
D15*
X112337500Y-106900000D03*
X115462500Y-106900000D03*
D16*
X130000000Y-115550000D03*
X130000000Y-118650000D03*
D21*
X116375000Y-102205000D03*
X116375000Y-100935000D03*
X116375000Y-99665000D03*
X116375000Y-98395000D03*
X111425000Y-98395000D03*
X111425000Y-99665000D03*
X111425000Y-100935000D03*
X111425000Y-102205000D03*
D22*
X121700000Y-98737500D03*
X121700000Y-101862500D03*
D16*
X108600000Y-98750000D03*
X108600000Y-101850000D03*
D13*
X100662500Y-104300000D03*
X97537500Y-104300000D03*
D15*
X145937500Y-90200000D03*
X149062500Y-90200000D03*
D21*
X140675000Y-113405000D03*
X140675000Y-112135000D03*
X140675000Y-110865000D03*
X140675000Y-109595000D03*
X135725000Y-109595000D03*
X135725000Y-110865000D03*
X135725000Y-112135000D03*
X135725000Y-113405000D03*
D22*
X127500000Y-115537500D03*
X127500000Y-118662500D03*
D23*
X127400000Y-101925000D03*
X127400000Y-98675000D03*
D16*
X125900000Y-87950000D03*
X125900000Y-91050000D03*
D22*
X122000000Y-115537500D03*
X122000000Y-118662500D03*
D24*
X97550000Y-101800000D03*
X100650000Y-101800000D03*
D17*
X151200000Y-95562500D03*
X151200000Y-92437500D03*
D21*
X140675000Y-102205000D03*
X140675000Y-100935000D03*
X140675000Y-99665000D03*
X140675000Y-98395000D03*
X135725000Y-98395000D03*
X135725000Y-99665000D03*
X135725000Y-100935000D03*
X135725000Y-102205000D03*
D18*
X132750000Y-122240000D03*
D19*
X128250000Y-123400000D03*
D20*
X132750000Y-124560000D03*
D23*
X149000000Y-101925000D03*
X149000000Y-98675000D03*
D14*
X122200000Y-109875000D03*
X122200000Y-113125000D03*
D21*
X116375000Y-113405000D03*
X116375000Y-112135000D03*
X116375000Y-110865000D03*
X116375000Y-109595000D03*
X111425000Y-109595000D03*
X111425000Y-110865000D03*
X111425000Y-112135000D03*
X111425000Y-113405000D03*
D25*
X131275000Y-95200000D03*
X134525000Y-95200000D03*
D22*
X106100000Y-98737500D03*
X106100000Y-101862500D03*
D13*
X123662500Y-88200000D03*
X120537500Y-88200000D03*
D16*
X146000000Y-98750000D03*
X146000000Y-101850000D03*
D26*
X128400000Y-91050000D03*
X128400000Y-87950000D03*
X132890000Y-106950000D03*
X132890000Y-103850000D03*
X119200000Y-113050000D03*
X119200000Y-109950000D03*
D13*
X108862500Y-96500000D03*
X105737500Y-96500000D03*
D26*
X148700000Y-95550000D03*
X148700000Y-92450000D03*
D27*
X122950000Y-107200000D03*
X119850000Y-107200000D03*
D16*
X124500000Y-115550000D03*
X124500000Y-118650000D03*
D23*
X129900000Y-113125000D03*
X129900000Y-109875000D03*
X105600000Y-113125000D03*
X105600000Y-109875000D03*
D24*
X99550000Y-112730000D03*
X96450000Y-112730000D03*
D16*
X108600000Y-109950000D03*
X108600000Y-113050000D03*
D28*
X99487500Y-110130000D03*
X96512500Y-110130000D03*
D18*
X114750000Y-122240000D03*
D19*
X110250000Y-123400000D03*
D20*
X114750000Y-124560000D03*
D26*
X143500000Y-113050000D03*
X143500000Y-109950000D03*
D15*
X136637500Y-106900000D03*
X139762500Y-106900000D03*
X112337500Y-115600000D03*
X115462500Y-115600000D03*
X136637500Y-104400000D03*
X139762500Y-104400000D03*
X97537500Y-88200000D03*
X100662500Y-88200000D03*
D26*
X132900000Y-101850000D03*
X132900000Y-98750000D03*
D16*
X130400000Y-98750000D03*
X130400000Y-101850000D03*
D15*
X134647500Y-88000000D03*
X137772500Y-88000000D03*
D24*
X104850000Y-107200000D03*
X107950000Y-107200000D03*
D26*
X143500000Y-106950000D03*
X143500000Y-103850000D03*
D18*
X141750000Y-122240000D03*
D19*
X137250000Y-123400000D03*
D20*
X141750000Y-124560000D03*
D26*
X143500000Y-101850000D03*
X143500000Y-98750000D03*
D27*
X100650000Y-99300000D03*
X97550000Y-99300000D03*
D15*
X136637500Y-115600000D03*
X139762500Y-115600000D03*
D17*
X146000000Y-106962500D03*
X146000000Y-103837500D03*
D16*
X119200000Y-98750000D03*
X119200000Y-101850000D03*
D15*
X112337500Y-104400000D03*
X115462500Y-104400000D03*
D29*
X97750000Y-95150000D03*
X97750000Y-96100000D03*
X97750000Y-97050000D03*
X100450000Y-97050000D03*
X100450000Y-95150000D03*
M02*
