G04 #@! TF.GenerationSoftware,KiCad,Pcbnew,(6.0.2)*
G04 #@! TF.CreationDate,2022-03-22T22:10:50-04:00*
G04 #@! TF.ProjectId,PCB,5043422e-6b69-4636-9164-5f7063625858,rev?*
G04 #@! TF.SameCoordinates,Original*
G04 #@! TF.FileFunction,Legend,Top*
G04 #@! TF.FilePolarity,Positive*
%FSLAX46Y46*%
G04 Gerber Fmt 4.6, Leading zero omitted, Abs format (unit mm)*
G04 Created by KiCad (PCBNEW (6.0.2)) date 2022-03-22 22:10:50*
%MOMM*%
%LPD*%
G01*
G04 APERTURE LIST*
G04 Aperture macros list*
%AMRoundRect*
0 Rectangle with rounded corners*
0 $1 Rounding radius*
0 $2 $3 $4 $5 $6 $7 $8 $9 X,Y pos of 4 corners*
0 Add a 4 corners polygon primitive as box body*
4,1,4,$2,$3,$4,$5,$6,$7,$8,$9,$2,$3,0*
0 Add four circle primitives for the rounded corners*
1,1,$1+$1,$2,$3*
1,1,$1+$1,$4,$5*
1,1,$1+$1,$6,$7*
1,1,$1+$1,$8,$9*
0 Add four rect primitives between the rounded corners*
20,1,$1+$1,$2,$3,$4,$5,0*
20,1,$1+$1,$4,$5,$6,$7,0*
20,1,$1+$1,$6,$7,$8,$9,0*
20,1,$1+$1,$8,$9,$2,$3,0*%
G04 Aperture macros list end*
%ADD10C,0.150000*%
%ADD11C,0.120000*%
%ADD12C,1.625000*%
%ADD13R,1.700000X1.700000*%
%ADD14O,1.700000X1.700000*%
%ADD15RoundRect,0.200000X-0.200000X0.400000X-0.200000X-0.400000X0.200000X-0.400000X0.200000X0.400000X0*%
%ADD16RoundRect,0.175000X-0.675000X0.175000X-0.675000X-0.175000X0.675000X-0.175000X0.675000X0.175000X0*%
%ADD17RoundRect,0.250001X0.499999X0.924999X-0.499999X0.924999X-0.499999X-0.924999X0.499999X-0.924999X0*%
%ADD18RoundRect,0.250000X0.412500X0.650000X-0.412500X0.650000X-0.412500X-0.650000X0.412500X-0.650000X0*%
%ADD19C,2.500000*%
%ADD20RoundRect,0.250001X-0.924999X0.499999X-0.924999X-0.499999X0.924999X-0.499999X0.924999X0.499999X0*%
%ADD21RoundRect,0.250000X-0.412500X-0.650000X0.412500X-0.650000X0.412500X0.650000X-0.412500X0.650000X0*%
%ADD22RoundRect,0.250000X-0.625000X0.400000X-0.625000X-0.400000X0.625000X-0.400000X0.625000X0.400000X0*%
%ADD23RoundRect,0.250000X0.650000X-0.412500X0.650000X0.412500X-0.650000X0.412500X-0.650000X-0.412500X0*%
%ADD24RoundRect,0.400000X-0.850000X0.400000X-0.850000X-0.400000X0.850000X-0.400000X0.850000X0.400000X0*%
%ADD25RoundRect,0.500000X0.750000X-0.500000X0.750000X0.500000X-0.750000X0.500000X-0.750000X-0.500000X0*%
%ADD26RoundRect,0.400000X0.850000X-0.400000X0.850000X0.400000X-0.850000X0.400000X-0.850000X-0.400000X0*%
%ADD27RoundRect,0.150000X0.825000X0.150000X-0.825000X0.150000X-0.825000X-0.150000X0.825000X-0.150000X0*%
%ADD28RoundRect,0.250000X-0.650000X0.412500X-0.650000X-0.412500X0.650000X-0.412500X0.650000X0.412500X0*%
%ADD29RoundRect,0.250001X0.924999X-0.499999X0.924999X0.499999X-0.924999X0.499999X-0.924999X-0.499999X0*%
%ADD30RoundRect,0.250000X-0.400000X-0.625000X0.400000X-0.625000X0.400000X0.625000X-0.400000X0.625000X0*%
%ADD31RoundRect,0.250001X-0.499999X-0.924999X0.499999X-0.924999X0.499999X0.924999X-0.499999X0.924999X0*%
%ADD32RoundRect,0.250000X0.625000X-0.400000X0.625000X0.400000X-0.625000X0.400000X-0.625000X-0.400000X0*%
%ADD33RoundRect,0.250000X0.400000X0.625000X-0.400000X0.625000X-0.400000X-0.625000X0.400000X-0.625000X0*%
%ADD34RoundRect,0.250001X-0.462499X-0.624999X0.462499X-0.624999X0.462499X0.624999X-0.462499X0.624999X0*%
%ADD35RoundRect,0.162500X-0.617500X-0.162500X0.617500X-0.162500X0.617500X0.162500X-0.617500X0.162500X0*%
G04 APERTURE END LIST*
D10*
X96486666Y-116162380D02*
X96486666Y-116876666D01*
X96439047Y-117019523D01*
X96343809Y-117114761D01*
X96200952Y-117162380D01*
X96105714Y-117162380D01*
X96867619Y-116162380D02*
X97486666Y-116162380D01*
X97153333Y-116543333D01*
X97296190Y-116543333D01*
X97391428Y-116590952D01*
X97439047Y-116638571D01*
X97486666Y-116733809D01*
X97486666Y-116971904D01*
X97439047Y-117067142D01*
X97391428Y-117114761D01*
X97296190Y-117162380D01*
X97010476Y-117162380D01*
X96915238Y-117114761D01*
X96867619Y-117067142D01*
X142306666Y-88082380D02*
X142306666Y-88796666D01*
X142259047Y-88939523D01*
X142163809Y-89034761D01*
X142020952Y-89082380D01*
X141925714Y-89082380D01*
X143306666Y-89082380D02*
X142735238Y-89082380D01*
X143020952Y-89082380D02*
X143020952Y-88082380D01*
X142925714Y-88225238D01*
X142830476Y-88320476D01*
X142735238Y-88368095D01*
X90756666Y-88144761D02*
X90899523Y-88192380D01*
X91137619Y-88192380D01*
X91232857Y-88144761D01*
X91280476Y-88097142D01*
X91328095Y-88001904D01*
X91328095Y-87906666D01*
X91280476Y-87811428D01*
X91232857Y-87763809D01*
X91137619Y-87716190D01*
X90947142Y-87668571D01*
X90851904Y-87620952D01*
X90804285Y-87573333D01*
X90756666Y-87478095D01*
X90756666Y-87382857D01*
X90804285Y-87287619D01*
X90851904Y-87240000D01*
X90947142Y-87192380D01*
X91185238Y-87192380D01*
X91328095Y-87240000D01*
X91661428Y-87192380D02*
X91899523Y-88192380D01*
X92090000Y-87478095D01*
X92280476Y-88192380D01*
X92518571Y-87192380D01*
X93423333Y-88192380D02*
X92851904Y-88192380D01*
X93137619Y-88192380D02*
X93137619Y-87192380D01*
X93042380Y-87335238D01*
X92947142Y-87430476D01*
X92851904Y-87478095D01*
X138557142Y-95366666D02*
X138604761Y-95414285D01*
X138652380Y-95557142D01*
X138652380Y-95652380D01*
X138604761Y-95795238D01*
X138509523Y-95890476D01*
X138414285Y-95938095D01*
X138223809Y-95985714D01*
X138080952Y-95985714D01*
X137890476Y-95938095D01*
X137795238Y-95890476D01*
X137700000Y-95795238D01*
X137652380Y-95652380D01*
X137652380Y-95557142D01*
X137700000Y-95414285D01*
X137747619Y-95366666D01*
X137985714Y-94509523D02*
X138652380Y-94509523D01*
X137604761Y-94747619D02*
X138319047Y-94985714D01*
X138319047Y-94366666D01*
X127033333Y-95507142D02*
X126985714Y-95554761D01*
X126842857Y-95602380D01*
X126747619Y-95602380D01*
X126604761Y-95554761D01*
X126509523Y-95459523D01*
X126461904Y-95364285D01*
X126414285Y-95173809D01*
X126414285Y-95030952D01*
X126461904Y-94840476D01*
X126509523Y-94745238D01*
X126604761Y-94650000D01*
X126747619Y-94602380D01*
X126842857Y-94602380D01*
X126985714Y-94650000D01*
X127033333Y-94697619D01*
X127414285Y-94697619D02*
X127461904Y-94650000D01*
X127557142Y-94602380D01*
X127795238Y-94602380D01*
X127890476Y-94650000D01*
X127938095Y-94697619D01*
X127985714Y-94792857D01*
X127985714Y-94888095D01*
X127938095Y-95030952D01*
X127366666Y-95602380D01*
X127985714Y-95602380D01*
X149007142Y-111817142D02*
X148959523Y-111864761D01*
X148816666Y-111912380D01*
X148721428Y-111912380D01*
X148578571Y-111864761D01*
X148483333Y-111769523D01*
X148435714Y-111674285D01*
X148388095Y-111483809D01*
X148388095Y-111340952D01*
X148435714Y-111150476D01*
X148483333Y-111055238D01*
X148578571Y-110960000D01*
X148721428Y-110912380D01*
X148816666Y-110912380D01*
X148959523Y-110960000D01*
X149007142Y-111007619D01*
X149959523Y-111912380D02*
X149388095Y-111912380D01*
X149673809Y-111912380D02*
X149673809Y-110912380D01*
X149578571Y-111055238D01*
X149483333Y-111150476D01*
X149388095Y-111198095D01*
X150292857Y-110912380D02*
X150959523Y-110912380D01*
X150530952Y-111912380D01*
X119857142Y-95007142D02*
X119809523Y-95054761D01*
X119666666Y-95102380D01*
X119571428Y-95102380D01*
X119428571Y-95054761D01*
X119333333Y-94959523D01*
X119285714Y-94864285D01*
X119238095Y-94673809D01*
X119238095Y-94530952D01*
X119285714Y-94340476D01*
X119333333Y-94245238D01*
X119428571Y-94150000D01*
X119571428Y-94102380D01*
X119666666Y-94102380D01*
X119809523Y-94150000D01*
X119857142Y-94197619D01*
X120190476Y-94102380D02*
X120809523Y-94102380D01*
X120476190Y-94483333D01*
X120619047Y-94483333D01*
X120714285Y-94530952D01*
X120761904Y-94578571D01*
X120809523Y-94673809D01*
X120809523Y-94911904D01*
X120761904Y-95007142D01*
X120714285Y-95054761D01*
X120619047Y-95102380D01*
X120333333Y-95102380D01*
X120238095Y-95054761D01*
X120190476Y-95007142D01*
X121428571Y-94102380D02*
X121523809Y-94102380D01*
X121619047Y-94150000D01*
X121666666Y-94197619D01*
X121714285Y-94292857D01*
X121761904Y-94483333D01*
X121761904Y-94721428D01*
X121714285Y-94911904D01*
X121666666Y-95007142D01*
X121619047Y-95054761D01*
X121523809Y-95102380D01*
X121428571Y-95102380D01*
X121333333Y-95054761D01*
X121285714Y-95007142D01*
X121238095Y-94911904D01*
X121190476Y-94721428D01*
X121190476Y-94483333D01*
X121238095Y-94292857D01*
X121285714Y-94197619D01*
X121333333Y-94150000D01*
X121428571Y-94102380D01*
X132387142Y-115382380D02*
X132053809Y-114906190D01*
X131815714Y-115382380D02*
X131815714Y-114382380D01*
X132196666Y-114382380D01*
X132291904Y-114430000D01*
X132339523Y-114477619D01*
X132387142Y-114572857D01*
X132387142Y-114715714D01*
X132339523Y-114810952D01*
X132291904Y-114858571D01*
X132196666Y-114906190D01*
X131815714Y-114906190D01*
X133339523Y-115382380D02*
X132768095Y-115382380D01*
X133053809Y-115382380D02*
X133053809Y-114382380D01*
X132958571Y-114525238D01*
X132863333Y-114620476D01*
X132768095Y-114668095D01*
X133720476Y-114477619D02*
X133768095Y-114430000D01*
X133863333Y-114382380D01*
X134101428Y-114382380D01*
X134196666Y-114430000D01*
X134244285Y-114477619D01*
X134291904Y-114572857D01*
X134291904Y-114668095D01*
X134244285Y-114810952D01*
X133672857Y-115382380D01*
X134291904Y-115382380D01*
X120973809Y-127342380D02*
X120973809Y-126342380D01*
X121402380Y-126437619D02*
X121450000Y-126390000D01*
X121545238Y-126342380D01*
X121783333Y-126342380D01*
X121878571Y-126390000D01*
X121926190Y-126437619D01*
X121973809Y-126532857D01*
X121973809Y-126628095D01*
X121926190Y-126770952D01*
X121354761Y-127342380D01*
X121973809Y-127342380D01*
X127287142Y-106352857D02*
X127334761Y-106400476D01*
X127382380Y-106543333D01*
X127382380Y-106638571D01*
X127334761Y-106781428D01*
X127239523Y-106876666D01*
X127144285Y-106924285D01*
X126953809Y-106971904D01*
X126810952Y-106971904D01*
X126620476Y-106924285D01*
X126525238Y-106876666D01*
X126430000Y-106781428D01*
X126382380Y-106638571D01*
X126382380Y-106543333D01*
X126430000Y-106400476D01*
X126477619Y-106352857D01*
X127382380Y-105400476D02*
X127382380Y-105971904D01*
X127382380Y-105686190D02*
X126382380Y-105686190D01*
X126525238Y-105781428D01*
X126620476Y-105876666D01*
X126668095Y-105971904D01*
X126382380Y-104495714D02*
X126382380Y-104971904D01*
X126858571Y-105019523D01*
X126810952Y-104971904D01*
X126763333Y-104876666D01*
X126763333Y-104638571D01*
X126810952Y-104543333D01*
X126858571Y-104495714D01*
X126953809Y-104448095D01*
X127191904Y-104448095D01*
X127287142Y-104495714D01*
X127334761Y-104543333D01*
X127382380Y-104638571D01*
X127382380Y-104876666D01*
X127334761Y-104971904D01*
X127287142Y-105019523D01*
X145993333Y-97512380D02*
X145660000Y-97036190D01*
X145421904Y-97512380D02*
X145421904Y-96512380D01*
X145802857Y-96512380D01*
X145898095Y-96560000D01*
X145945714Y-96607619D01*
X145993333Y-96702857D01*
X145993333Y-96845714D01*
X145945714Y-96940952D01*
X145898095Y-96988571D01*
X145802857Y-97036190D01*
X145421904Y-97036190D01*
X146945714Y-97512380D02*
X146374285Y-97512380D01*
X146660000Y-97512380D02*
X146660000Y-96512380D01*
X146564761Y-96655238D01*
X146469523Y-96750476D01*
X146374285Y-96798095D01*
X109397142Y-107267142D02*
X109349523Y-107314761D01*
X109206666Y-107362380D01*
X109111428Y-107362380D01*
X108968571Y-107314761D01*
X108873333Y-107219523D01*
X108825714Y-107124285D01*
X108778095Y-106933809D01*
X108778095Y-106790952D01*
X108825714Y-106600476D01*
X108873333Y-106505238D01*
X108968571Y-106410000D01*
X109111428Y-106362380D01*
X109206666Y-106362380D01*
X109349523Y-106410000D01*
X109397142Y-106457619D01*
X109778095Y-106457619D02*
X109825714Y-106410000D01*
X109920952Y-106362380D01*
X110159047Y-106362380D01*
X110254285Y-106410000D01*
X110301904Y-106457619D01*
X110349523Y-106552857D01*
X110349523Y-106648095D01*
X110301904Y-106790952D01*
X109730476Y-107362380D01*
X110349523Y-107362380D01*
X111206666Y-106362380D02*
X111016190Y-106362380D01*
X110920952Y-106410000D01*
X110873333Y-106457619D01*
X110778095Y-106600476D01*
X110730476Y-106790952D01*
X110730476Y-107171904D01*
X110778095Y-107267142D01*
X110825714Y-107314761D01*
X110920952Y-107362380D01*
X111111428Y-107362380D01*
X111206666Y-107314761D01*
X111254285Y-107267142D01*
X111301904Y-107171904D01*
X111301904Y-106933809D01*
X111254285Y-106838571D01*
X111206666Y-106790952D01*
X111111428Y-106743333D01*
X110920952Y-106743333D01*
X110825714Y-106790952D01*
X110778095Y-106838571D01*
X110730476Y-106933809D01*
X134052380Y-117932857D02*
X133576190Y-118266190D01*
X134052380Y-118504285D02*
X133052380Y-118504285D01*
X133052380Y-118123333D01*
X133100000Y-118028095D01*
X133147619Y-117980476D01*
X133242857Y-117932857D01*
X133385714Y-117932857D01*
X133480952Y-117980476D01*
X133528571Y-118028095D01*
X133576190Y-118123333D01*
X133576190Y-118504285D01*
X134052380Y-116980476D02*
X134052380Y-117551904D01*
X134052380Y-117266190D02*
X133052380Y-117266190D01*
X133195238Y-117361428D01*
X133290476Y-117456666D01*
X133338095Y-117551904D01*
X133385714Y-116123333D02*
X134052380Y-116123333D01*
X133004761Y-116361428D02*
X133719047Y-116599523D01*
X133719047Y-115980476D01*
X138923809Y-127432380D02*
X138923809Y-126432380D01*
X139923809Y-127432380D02*
X139352380Y-127432380D01*
X139638095Y-127432380D02*
X139638095Y-126432380D01*
X139542857Y-126575238D01*
X139447619Y-126670476D01*
X139352380Y-126718095D01*
X111998095Y-96382380D02*
X111998095Y-97191904D01*
X112045714Y-97287142D01*
X112093333Y-97334761D01*
X112188571Y-97382380D01*
X112379047Y-97382380D01*
X112474285Y-97334761D01*
X112521904Y-97287142D01*
X112569523Y-97191904D01*
X112569523Y-96382380D01*
X113521904Y-96382380D02*
X113045714Y-96382380D01*
X112998095Y-96858571D01*
X113045714Y-96810952D01*
X113140952Y-96763333D01*
X113379047Y-96763333D01*
X113474285Y-96810952D01*
X113521904Y-96858571D01*
X113569523Y-96953809D01*
X113569523Y-97191904D01*
X113521904Y-97287142D01*
X113474285Y-97334761D01*
X113379047Y-97382380D01*
X113140952Y-97382380D01*
X113045714Y-97334761D01*
X112998095Y-97287142D01*
X125327142Y-101032857D02*
X125374761Y-101080476D01*
X125422380Y-101223333D01*
X125422380Y-101318571D01*
X125374761Y-101461428D01*
X125279523Y-101556666D01*
X125184285Y-101604285D01*
X124993809Y-101651904D01*
X124850952Y-101651904D01*
X124660476Y-101604285D01*
X124565238Y-101556666D01*
X124470000Y-101461428D01*
X124422380Y-101318571D01*
X124422380Y-101223333D01*
X124470000Y-101080476D01*
X124517619Y-101032857D01*
X124517619Y-100651904D02*
X124470000Y-100604285D01*
X124422380Y-100509047D01*
X124422380Y-100270952D01*
X124470000Y-100175714D01*
X124517619Y-100128095D01*
X124612857Y-100080476D01*
X124708095Y-100080476D01*
X124850952Y-100128095D01*
X125422380Y-100699523D01*
X125422380Y-100080476D01*
X124850952Y-99509047D02*
X124803333Y-99604285D01*
X124755714Y-99651904D01*
X124660476Y-99699523D01*
X124612857Y-99699523D01*
X124517619Y-99651904D01*
X124470000Y-99604285D01*
X124422380Y-99509047D01*
X124422380Y-99318571D01*
X124470000Y-99223333D01*
X124517619Y-99175714D01*
X124612857Y-99128095D01*
X124660476Y-99128095D01*
X124755714Y-99175714D01*
X124803333Y-99223333D01*
X124850952Y-99318571D01*
X124850952Y-99509047D01*
X124898571Y-99604285D01*
X124946190Y-99651904D01*
X125041428Y-99699523D01*
X125231904Y-99699523D01*
X125327142Y-99651904D01*
X125374761Y-99604285D01*
X125422380Y-99509047D01*
X125422380Y-99318571D01*
X125374761Y-99223333D01*
X125327142Y-99175714D01*
X125231904Y-99128095D01*
X125041428Y-99128095D01*
X124946190Y-99175714D01*
X124898571Y-99223333D01*
X124850952Y-99318571D01*
X107907142Y-104012380D02*
X107573809Y-103536190D01*
X107335714Y-104012380D02*
X107335714Y-103012380D01*
X107716666Y-103012380D01*
X107811904Y-103060000D01*
X107859523Y-103107619D01*
X107907142Y-103202857D01*
X107907142Y-103345714D01*
X107859523Y-103440952D01*
X107811904Y-103488571D01*
X107716666Y-103536190D01*
X107335714Y-103536190D01*
X108288095Y-103107619D02*
X108335714Y-103060000D01*
X108430952Y-103012380D01*
X108669047Y-103012380D01*
X108764285Y-103060000D01*
X108811904Y-103107619D01*
X108859523Y-103202857D01*
X108859523Y-103298095D01*
X108811904Y-103440952D01*
X108240476Y-104012380D01*
X108859523Y-104012380D01*
X109478571Y-103012380D02*
X109573809Y-103012380D01*
X109669047Y-103060000D01*
X109716666Y-103107619D01*
X109764285Y-103202857D01*
X109811904Y-103393333D01*
X109811904Y-103631428D01*
X109764285Y-103821904D01*
X109716666Y-103917142D01*
X109669047Y-103964761D01*
X109573809Y-104012380D01*
X109478571Y-104012380D01*
X109383333Y-103964761D01*
X109335714Y-103917142D01*
X109288095Y-103821904D01*
X109240476Y-103631428D01*
X109240476Y-103393333D01*
X109288095Y-103202857D01*
X109335714Y-103107619D01*
X109383333Y-103060000D01*
X109478571Y-103012380D01*
X98257142Y-106587142D02*
X98209523Y-106634761D01*
X98066666Y-106682380D01*
X97971428Y-106682380D01*
X97828571Y-106634761D01*
X97733333Y-106539523D01*
X97685714Y-106444285D01*
X97638095Y-106253809D01*
X97638095Y-106110952D01*
X97685714Y-105920476D01*
X97733333Y-105825238D01*
X97828571Y-105730000D01*
X97971428Y-105682380D01*
X98066666Y-105682380D01*
X98209523Y-105730000D01*
X98257142Y-105777619D01*
X99209523Y-106682380D02*
X98638095Y-106682380D01*
X98923809Y-106682380D02*
X98923809Y-105682380D01*
X98828571Y-105825238D01*
X98733333Y-105920476D01*
X98638095Y-105968095D01*
X99590476Y-105777619D02*
X99638095Y-105730000D01*
X99733333Y-105682380D01*
X99971428Y-105682380D01*
X100066666Y-105730000D01*
X100114285Y-105777619D01*
X100161904Y-105872857D01*
X100161904Y-105968095D01*
X100114285Y-106110952D01*
X99542857Y-106682380D01*
X100161904Y-106682380D01*
X147333333Y-88707142D02*
X147285714Y-88754761D01*
X147142857Y-88802380D01*
X147047619Y-88802380D01*
X146904761Y-88754761D01*
X146809523Y-88659523D01*
X146761904Y-88564285D01*
X146714285Y-88373809D01*
X146714285Y-88230952D01*
X146761904Y-88040476D01*
X146809523Y-87945238D01*
X146904761Y-87850000D01*
X147047619Y-87802380D01*
X147142857Y-87802380D01*
X147285714Y-87850000D01*
X147333333Y-87897619D01*
X148285714Y-88802380D02*
X147714285Y-88802380D01*
X148000000Y-88802380D02*
X148000000Y-87802380D01*
X147904761Y-87945238D01*
X147809523Y-88040476D01*
X147714285Y-88088095D01*
X134148095Y-107902380D02*
X134148095Y-108711904D01*
X134195714Y-108807142D01*
X134243333Y-108854761D01*
X134338571Y-108902380D01*
X134529047Y-108902380D01*
X134624285Y-108854761D01*
X134671904Y-108807142D01*
X134719523Y-108711904D01*
X134719523Y-107902380D01*
X135100476Y-107902380D02*
X135719523Y-107902380D01*
X135386190Y-108283333D01*
X135529047Y-108283333D01*
X135624285Y-108330952D01*
X135671904Y-108378571D01*
X135719523Y-108473809D01*
X135719523Y-108711904D01*
X135671904Y-108807142D01*
X135624285Y-108854761D01*
X135529047Y-108902380D01*
X135243333Y-108902380D01*
X135148095Y-108854761D01*
X135100476Y-108807142D01*
X132377142Y-117952857D02*
X132424761Y-118000476D01*
X132472380Y-118143333D01*
X132472380Y-118238571D01*
X132424761Y-118381428D01*
X132329523Y-118476666D01*
X132234285Y-118524285D01*
X132043809Y-118571904D01*
X131900952Y-118571904D01*
X131710476Y-118524285D01*
X131615238Y-118476666D01*
X131520000Y-118381428D01*
X131472380Y-118238571D01*
X131472380Y-118143333D01*
X131520000Y-118000476D01*
X131567619Y-117952857D01*
X131567619Y-117571904D02*
X131520000Y-117524285D01*
X131472380Y-117429047D01*
X131472380Y-117190952D01*
X131520000Y-117095714D01*
X131567619Y-117048095D01*
X131662857Y-117000476D01*
X131758095Y-117000476D01*
X131900952Y-117048095D01*
X132472380Y-117619523D01*
X132472380Y-117000476D01*
X131567619Y-116619523D02*
X131520000Y-116571904D01*
X131472380Y-116476666D01*
X131472380Y-116238571D01*
X131520000Y-116143333D01*
X131567619Y-116095714D01*
X131662857Y-116048095D01*
X131758095Y-116048095D01*
X131900952Y-116095714D01*
X132472380Y-116667142D01*
X132472380Y-116048095D01*
X124857142Y-97357142D02*
X124809523Y-97404761D01*
X124666666Y-97452380D01*
X124571428Y-97452380D01*
X124428571Y-97404761D01*
X124333333Y-97309523D01*
X124285714Y-97214285D01*
X124238095Y-97023809D01*
X124238095Y-96880952D01*
X124285714Y-96690476D01*
X124333333Y-96595238D01*
X124428571Y-96500000D01*
X124571428Y-96452380D01*
X124666666Y-96452380D01*
X124809523Y-96500000D01*
X124857142Y-96547619D01*
X125809523Y-97452380D02*
X125238095Y-97452380D01*
X125523809Y-97452380D02*
X125523809Y-96452380D01*
X125428571Y-96595238D01*
X125333333Y-96690476D01*
X125238095Y-96738095D01*
X126761904Y-97452380D02*
X126190476Y-97452380D01*
X126476190Y-97452380D02*
X126476190Y-96452380D01*
X126380952Y-96595238D01*
X126285714Y-96690476D01*
X126190476Y-96738095D01*
X123603333Y-90492380D02*
X123270000Y-90016190D01*
X123031904Y-90492380D02*
X123031904Y-89492380D01*
X123412857Y-89492380D01*
X123508095Y-89540000D01*
X123555714Y-89587619D01*
X123603333Y-89682857D01*
X123603333Y-89825714D01*
X123555714Y-89920952D01*
X123508095Y-89968571D01*
X123412857Y-90016190D01*
X123031904Y-90016190D01*
X124460476Y-89825714D02*
X124460476Y-90492380D01*
X124222380Y-89444761D02*
X123984285Y-90159047D01*
X124603333Y-90159047D01*
X118607142Y-117912857D02*
X118654761Y-117960476D01*
X118702380Y-118103333D01*
X118702380Y-118198571D01*
X118654761Y-118341428D01*
X118559523Y-118436666D01*
X118464285Y-118484285D01*
X118273809Y-118531904D01*
X118130952Y-118531904D01*
X117940476Y-118484285D01*
X117845238Y-118436666D01*
X117750000Y-118341428D01*
X117702380Y-118198571D01*
X117702380Y-118103333D01*
X117750000Y-117960476D01*
X117797619Y-117912857D01*
X117797619Y-117531904D02*
X117750000Y-117484285D01*
X117702380Y-117389047D01*
X117702380Y-117150952D01*
X117750000Y-117055714D01*
X117797619Y-117008095D01*
X117892857Y-116960476D01*
X117988095Y-116960476D01*
X118130952Y-117008095D01*
X118702380Y-117579523D01*
X118702380Y-116960476D01*
X118702380Y-116008095D02*
X118702380Y-116579523D01*
X118702380Y-116293809D02*
X117702380Y-116293809D01*
X117845238Y-116389047D01*
X117940476Y-116484285D01*
X117988095Y-116579523D01*
X96402380Y-102472857D02*
X95926190Y-102806190D01*
X96402380Y-103044285D02*
X95402380Y-103044285D01*
X95402380Y-102663333D01*
X95450000Y-102568095D01*
X95497619Y-102520476D01*
X95592857Y-102472857D01*
X95735714Y-102472857D01*
X95830952Y-102520476D01*
X95878571Y-102568095D01*
X95926190Y-102663333D01*
X95926190Y-103044285D01*
X95497619Y-102091904D02*
X95450000Y-102044285D01*
X95402380Y-101949047D01*
X95402380Y-101710952D01*
X95450000Y-101615714D01*
X95497619Y-101568095D01*
X95592857Y-101520476D01*
X95688095Y-101520476D01*
X95830952Y-101568095D01*
X96402380Y-102139523D01*
X96402380Y-101520476D01*
X95497619Y-101139523D02*
X95450000Y-101091904D01*
X95402380Y-100996666D01*
X95402380Y-100758571D01*
X95450000Y-100663333D01*
X95497619Y-100615714D01*
X95592857Y-100568095D01*
X95688095Y-100568095D01*
X95830952Y-100615714D01*
X96402380Y-101187142D01*
X96402380Y-100568095D01*
X153173333Y-94467142D02*
X153125714Y-94514761D01*
X152982857Y-94562380D01*
X152887619Y-94562380D01*
X152744761Y-94514761D01*
X152649523Y-94419523D01*
X152601904Y-94324285D01*
X152554285Y-94133809D01*
X152554285Y-93990952D01*
X152601904Y-93800476D01*
X152649523Y-93705238D01*
X152744761Y-93610000D01*
X152887619Y-93562380D01*
X152982857Y-93562380D01*
X153125714Y-93610000D01*
X153173333Y-93657619D01*
X153506666Y-93562380D02*
X154173333Y-93562380D01*
X153744761Y-94562380D01*
X136138095Y-96352380D02*
X136138095Y-97161904D01*
X136185714Y-97257142D01*
X136233333Y-97304761D01*
X136328571Y-97352380D01*
X136519047Y-97352380D01*
X136614285Y-97304761D01*
X136661904Y-97257142D01*
X136709523Y-97161904D01*
X136709523Y-96352380D01*
X137709523Y-97352380D02*
X137138095Y-97352380D01*
X137423809Y-97352380D02*
X137423809Y-96352380D01*
X137328571Y-96495238D01*
X137233333Y-96590476D01*
X137138095Y-96638095D01*
X151597142Y-102677142D02*
X151549523Y-102724761D01*
X151406666Y-102772380D01*
X151311428Y-102772380D01*
X151168571Y-102724761D01*
X151073333Y-102629523D01*
X151025714Y-102534285D01*
X150978095Y-102343809D01*
X150978095Y-102200952D01*
X151025714Y-102010476D01*
X151073333Y-101915238D01*
X151168571Y-101820000D01*
X151311428Y-101772380D01*
X151406666Y-101772380D01*
X151549523Y-101820000D01*
X151597142Y-101867619D01*
X152549523Y-102772380D02*
X151978095Y-102772380D01*
X152263809Y-102772380D02*
X152263809Y-101772380D01*
X152168571Y-101915238D01*
X152073333Y-102010476D01*
X151978095Y-102058095D01*
X153168571Y-101772380D02*
X153263809Y-101772380D01*
X153359047Y-101820000D01*
X153406666Y-101867619D01*
X153454285Y-101962857D01*
X153501904Y-102153333D01*
X153501904Y-102391428D01*
X153454285Y-102581904D01*
X153406666Y-102677142D01*
X153359047Y-102724761D01*
X153263809Y-102772380D01*
X153168571Y-102772380D01*
X153073333Y-102724761D01*
X153025714Y-102677142D01*
X152978095Y-102581904D01*
X152930476Y-102391428D01*
X152930476Y-102153333D01*
X152978095Y-101962857D01*
X153025714Y-101867619D01*
X153073333Y-101820000D01*
X153168571Y-101772380D01*
X124697142Y-113327142D02*
X124649523Y-113374761D01*
X124506666Y-113422380D01*
X124411428Y-113422380D01*
X124268571Y-113374761D01*
X124173333Y-113279523D01*
X124125714Y-113184285D01*
X124078095Y-112993809D01*
X124078095Y-112850952D01*
X124125714Y-112660476D01*
X124173333Y-112565238D01*
X124268571Y-112470000D01*
X124411428Y-112422380D01*
X124506666Y-112422380D01*
X124649523Y-112470000D01*
X124697142Y-112517619D01*
X125078095Y-112517619D02*
X125125714Y-112470000D01*
X125220952Y-112422380D01*
X125459047Y-112422380D01*
X125554285Y-112470000D01*
X125601904Y-112517619D01*
X125649523Y-112612857D01*
X125649523Y-112708095D01*
X125601904Y-112850952D01*
X125030476Y-113422380D01*
X125649523Y-113422380D01*
X126506666Y-112755714D02*
X126506666Y-113422380D01*
X126268571Y-112374761D02*
X126030476Y-113089047D01*
X126649523Y-113089047D01*
X117476666Y-89262380D02*
X117476666Y-89976666D01*
X117429047Y-90119523D01*
X117333809Y-90214761D01*
X117190952Y-90262380D01*
X117095714Y-90262380D01*
X117905238Y-89357619D02*
X117952857Y-89310000D01*
X118048095Y-89262380D01*
X118286190Y-89262380D01*
X118381428Y-89310000D01*
X118429047Y-89357619D01*
X118476666Y-89452857D01*
X118476666Y-89548095D01*
X118429047Y-89690952D01*
X117857619Y-90262380D01*
X118476666Y-90262380D01*
X109848095Y-107732380D02*
X109848095Y-108541904D01*
X109895714Y-108637142D01*
X109943333Y-108684761D01*
X110038571Y-108732380D01*
X110229047Y-108732380D01*
X110324285Y-108684761D01*
X110371904Y-108637142D01*
X110419523Y-108541904D01*
X110419523Y-107732380D01*
X111324285Y-108065714D02*
X111324285Y-108732380D01*
X111086190Y-107684761D02*
X110848095Y-108399047D01*
X111467142Y-108399047D01*
X130294761Y-127567619D02*
X130199523Y-127520000D01*
X130104285Y-127424761D01*
X129961428Y-127281904D01*
X129866190Y-127234285D01*
X129770952Y-127234285D01*
X129818571Y-127472380D02*
X129723333Y-127424761D01*
X129628095Y-127329523D01*
X129580476Y-127139047D01*
X129580476Y-126805714D01*
X129628095Y-126615238D01*
X129723333Y-126520000D01*
X129818571Y-126472380D01*
X130009047Y-126472380D01*
X130104285Y-126520000D01*
X130199523Y-126615238D01*
X130247142Y-126805714D01*
X130247142Y-127139047D01*
X130199523Y-127329523D01*
X130104285Y-127424761D01*
X130009047Y-127472380D01*
X129818571Y-127472380D01*
X131199523Y-127472380D02*
X130628095Y-127472380D01*
X130913809Y-127472380D02*
X130913809Y-126472380D01*
X130818571Y-126615238D01*
X130723333Y-126710476D01*
X130628095Y-126758095D01*
X136657142Y-95366666D02*
X136704761Y-95414285D01*
X136752380Y-95557142D01*
X136752380Y-95652380D01*
X136704761Y-95795238D01*
X136609523Y-95890476D01*
X136514285Y-95938095D01*
X136323809Y-95985714D01*
X136180952Y-95985714D01*
X135990476Y-95938095D01*
X135895238Y-95890476D01*
X135800000Y-95795238D01*
X135752380Y-95652380D01*
X135752380Y-95557142D01*
X135800000Y-95414285D01*
X135847619Y-95366666D01*
X135752380Y-94461904D02*
X135752380Y-94938095D01*
X136228571Y-94985714D01*
X136180952Y-94938095D01*
X136133333Y-94842857D01*
X136133333Y-94604761D01*
X136180952Y-94509523D01*
X136228571Y-94461904D01*
X136323809Y-94414285D01*
X136561904Y-94414285D01*
X136657142Y-94461904D01*
X136704761Y-94509523D01*
X136752380Y-94604761D01*
X136752380Y-94842857D01*
X136704761Y-94938095D01*
X136657142Y-94985714D01*
X104577142Y-100922857D02*
X104624761Y-100970476D01*
X104672380Y-101113333D01*
X104672380Y-101208571D01*
X104624761Y-101351428D01*
X104529523Y-101446666D01*
X104434285Y-101494285D01*
X104243809Y-101541904D01*
X104100952Y-101541904D01*
X103910476Y-101494285D01*
X103815238Y-101446666D01*
X103720000Y-101351428D01*
X103672380Y-101208571D01*
X103672380Y-101113333D01*
X103720000Y-100970476D01*
X103767619Y-100922857D01*
X103767619Y-100541904D02*
X103720000Y-100494285D01*
X103672380Y-100399047D01*
X103672380Y-100160952D01*
X103720000Y-100065714D01*
X103767619Y-100018095D01*
X103862857Y-99970476D01*
X103958095Y-99970476D01*
X104100952Y-100018095D01*
X104672380Y-100589523D01*
X104672380Y-99970476D01*
X104672380Y-99494285D02*
X104672380Y-99303809D01*
X104624761Y-99208571D01*
X104577142Y-99160952D01*
X104434285Y-99065714D01*
X104243809Y-99018095D01*
X103862857Y-99018095D01*
X103767619Y-99065714D01*
X103720000Y-99113333D01*
X103672380Y-99208571D01*
X103672380Y-99399047D01*
X103720000Y-99494285D01*
X103767619Y-99541904D01*
X103862857Y-99589523D01*
X104100952Y-99589523D01*
X104196190Y-99541904D01*
X104243809Y-99494285D01*
X104291428Y-99399047D01*
X104291428Y-99208571D01*
X104243809Y-99113333D01*
X104196190Y-99065714D01*
X104100952Y-99018095D01*
X117733333Y-88557142D02*
X117685714Y-88604761D01*
X117542857Y-88652380D01*
X117447619Y-88652380D01*
X117304761Y-88604761D01*
X117209523Y-88509523D01*
X117161904Y-88414285D01*
X117114285Y-88223809D01*
X117114285Y-88080952D01*
X117161904Y-87890476D01*
X117209523Y-87795238D01*
X117304761Y-87700000D01*
X117447619Y-87652380D01*
X117542857Y-87652380D01*
X117685714Y-87700000D01*
X117733333Y-87747619D01*
X118304761Y-88080952D02*
X118209523Y-88033333D01*
X118161904Y-87985714D01*
X118114285Y-87890476D01*
X118114285Y-87842857D01*
X118161904Y-87747619D01*
X118209523Y-87700000D01*
X118304761Y-87652380D01*
X118495238Y-87652380D01*
X118590476Y-87700000D01*
X118638095Y-87747619D01*
X118685714Y-87842857D01*
X118685714Y-87890476D01*
X118638095Y-87985714D01*
X118590476Y-88033333D01*
X118495238Y-88080952D01*
X118304761Y-88080952D01*
X118209523Y-88128571D01*
X118161904Y-88176190D01*
X118114285Y-88271428D01*
X118114285Y-88461904D01*
X118161904Y-88557142D01*
X118209523Y-88604761D01*
X118304761Y-88652380D01*
X118495238Y-88652380D01*
X118590476Y-88604761D01*
X118638095Y-88557142D01*
X118685714Y-88461904D01*
X118685714Y-88271428D01*
X118638095Y-88176190D01*
X118590476Y-88128571D01*
X118495238Y-88080952D01*
X153272380Y-100496666D02*
X152796190Y-100830000D01*
X153272380Y-101068095D02*
X152272380Y-101068095D01*
X152272380Y-100687142D01*
X152320000Y-100591904D01*
X152367619Y-100544285D01*
X152462857Y-100496666D01*
X152605714Y-100496666D01*
X152700952Y-100544285D01*
X152748571Y-100591904D01*
X152796190Y-100687142D01*
X152796190Y-101068095D01*
X152272380Y-99591904D02*
X152272380Y-100068095D01*
X152748571Y-100115714D01*
X152700952Y-100068095D01*
X152653333Y-99972857D01*
X152653333Y-99734761D01*
X152700952Y-99639523D01*
X152748571Y-99591904D01*
X152843809Y-99544285D01*
X153081904Y-99544285D01*
X153177142Y-99591904D01*
X153224761Y-99639523D01*
X153272380Y-99734761D01*
X153272380Y-99972857D01*
X153224761Y-100068095D01*
X153177142Y-100115714D01*
X130363333Y-89532380D02*
X130030000Y-89056190D01*
X129791904Y-89532380D02*
X129791904Y-88532380D01*
X130172857Y-88532380D01*
X130268095Y-88580000D01*
X130315714Y-88627619D01*
X130363333Y-88722857D01*
X130363333Y-88865714D01*
X130315714Y-88960952D01*
X130268095Y-89008571D01*
X130172857Y-89056190D01*
X129791904Y-89056190D01*
X130696666Y-88532380D02*
X131315714Y-88532380D01*
X130982380Y-88913333D01*
X131125238Y-88913333D01*
X131220476Y-88960952D01*
X131268095Y-89008571D01*
X131315714Y-89103809D01*
X131315714Y-89341904D01*
X131268095Y-89437142D01*
X131220476Y-89484761D01*
X131125238Y-89532380D01*
X130839523Y-89532380D01*
X130744285Y-89484761D01*
X130696666Y-89437142D01*
X128902380Y-106352857D02*
X128426190Y-106686190D01*
X128902380Y-106924285D02*
X127902380Y-106924285D01*
X127902380Y-106543333D01*
X127950000Y-106448095D01*
X127997619Y-106400476D01*
X128092857Y-106352857D01*
X128235714Y-106352857D01*
X128330952Y-106400476D01*
X128378571Y-106448095D01*
X128426190Y-106543333D01*
X128426190Y-106924285D01*
X128902380Y-105400476D02*
X128902380Y-105971904D01*
X128902380Y-105686190D02*
X127902380Y-105686190D01*
X128045238Y-105781428D01*
X128140476Y-105876666D01*
X128188095Y-105971904D01*
X127902380Y-104781428D02*
X127902380Y-104686190D01*
X127950000Y-104590952D01*
X127997619Y-104543333D01*
X128092857Y-104495714D01*
X128283333Y-104448095D01*
X128521428Y-104448095D01*
X128711904Y-104495714D01*
X128807142Y-104543333D01*
X128854761Y-104590952D01*
X128902380Y-104686190D01*
X128902380Y-104781428D01*
X128854761Y-104876666D01*
X128807142Y-104924285D01*
X128711904Y-104971904D01*
X128521428Y-105019523D01*
X128283333Y-105019523D01*
X128092857Y-104971904D01*
X127997619Y-104924285D01*
X127950000Y-104876666D01*
X127902380Y-104781428D01*
X118257142Y-115012380D02*
X117923809Y-114536190D01*
X117685714Y-115012380D02*
X117685714Y-114012380D01*
X118066666Y-114012380D01*
X118161904Y-114060000D01*
X118209523Y-114107619D01*
X118257142Y-114202857D01*
X118257142Y-114345714D01*
X118209523Y-114440952D01*
X118161904Y-114488571D01*
X118066666Y-114536190D01*
X117685714Y-114536190D01*
X119209523Y-115012380D02*
X118638095Y-115012380D01*
X118923809Y-115012380D02*
X118923809Y-114012380D01*
X118828571Y-114155238D01*
X118733333Y-114250476D01*
X118638095Y-114298095D01*
X120114285Y-114012380D02*
X119638095Y-114012380D01*
X119590476Y-114488571D01*
X119638095Y-114440952D01*
X119733333Y-114393333D01*
X119971428Y-114393333D01*
X120066666Y-114440952D01*
X120114285Y-114488571D01*
X120161904Y-114583809D01*
X120161904Y-114821904D01*
X120114285Y-114917142D01*
X120066666Y-114964761D01*
X119971428Y-115012380D01*
X119733333Y-115012380D01*
X119638095Y-114964761D01*
X119590476Y-114917142D01*
X106647142Y-94947142D02*
X106599523Y-94994761D01*
X106456666Y-95042380D01*
X106361428Y-95042380D01*
X106218571Y-94994761D01*
X106123333Y-94899523D01*
X106075714Y-94804285D01*
X106028095Y-94613809D01*
X106028095Y-94470952D01*
X106075714Y-94280476D01*
X106123333Y-94185238D01*
X106218571Y-94090000D01*
X106361428Y-94042380D01*
X106456666Y-94042380D01*
X106599523Y-94090000D01*
X106647142Y-94137619D01*
X106980476Y-94042380D02*
X107599523Y-94042380D01*
X107266190Y-94423333D01*
X107409047Y-94423333D01*
X107504285Y-94470952D01*
X107551904Y-94518571D01*
X107599523Y-94613809D01*
X107599523Y-94851904D01*
X107551904Y-94947142D01*
X107504285Y-94994761D01*
X107409047Y-95042380D01*
X107123333Y-95042380D01*
X107028095Y-94994761D01*
X106980476Y-94947142D01*
X108551904Y-95042380D02*
X107980476Y-95042380D01*
X108266190Y-95042380D02*
X108266190Y-94042380D01*
X108170952Y-94185238D01*
X108075714Y-94280476D01*
X107980476Y-94328095D01*
X148523333Y-97552380D02*
X148190000Y-97076190D01*
X147951904Y-97552380D02*
X147951904Y-96552380D01*
X148332857Y-96552380D01*
X148428095Y-96600000D01*
X148475714Y-96647619D01*
X148523333Y-96742857D01*
X148523333Y-96885714D01*
X148475714Y-96980952D01*
X148428095Y-97028571D01*
X148332857Y-97076190D01*
X147951904Y-97076190D01*
X148904285Y-96647619D02*
X148951904Y-96600000D01*
X149047142Y-96552380D01*
X149285238Y-96552380D01*
X149380476Y-96600000D01*
X149428095Y-96647619D01*
X149475714Y-96742857D01*
X149475714Y-96838095D01*
X149428095Y-96980952D01*
X148856666Y-97552380D01*
X149475714Y-97552380D01*
X120757142Y-105822380D02*
X120423809Y-105346190D01*
X120185714Y-105822380D02*
X120185714Y-104822380D01*
X120566666Y-104822380D01*
X120661904Y-104870000D01*
X120709523Y-104917619D01*
X120757142Y-105012857D01*
X120757142Y-105155714D01*
X120709523Y-105250952D01*
X120661904Y-105298571D01*
X120566666Y-105346190D01*
X120185714Y-105346190D01*
X121709523Y-105822380D02*
X121138095Y-105822380D01*
X121423809Y-105822380D02*
X121423809Y-104822380D01*
X121328571Y-104965238D01*
X121233333Y-105060476D01*
X121138095Y-105108095D01*
X122042857Y-104822380D02*
X122709523Y-104822380D01*
X122280952Y-105822380D01*
X120632380Y-117882857D02*
X120156190Y-118216190D01*
X120632380Y-118454285D02*
X119632380Y-118454285D01*
X119632380Y-118073333D01*
X119680000Y-117978095D01*
X119727619Y-117930476D01*
X119822857Y-117882857D01*
X119965714Y-117882857D01*
X120060952Y-117930476D01*
X120108571Y-117978095D01*
X120156190Y-118073333D01*
X120156190Y-118454285D01*
X120632380Y-116930476D02*
X120632380Y-117501904D01*
X120632380Y-117216190D02*
X119632380Y-117216190D01*
X119775238Y-117311428D01*
X119870476Y-117406666D01*
X119918095Y-117501904D01*
X119632380Y-116597142D02*
X119632380Y-115978095D01*
X120013333Y-116311428D01*
X120013333Y-116168571D01*
X120060952Y-116073333D01*
X120108571Y-116025714D01*
X120203809Y-115978095D01*
X120441904Y-115978095D01*
X120537142Y-116025714D01*
X120584761Y-116073333D01*
X120632380Y-116168571D01*
X120632380Y-116454285D01*
X120584761Y-116549523D01*
X120537142Y-116597142D01*
X126087142Y-110297142D02*
X126039523Y-110344761D01*
X125896666Y-110392380D01*
X125801428Y-110392380D01*
X125658571Y-110344761D01*
X125563333Y-110249523D01*
X125515714Y-110154285D01*
X125468095Y-109963809D01*
X125468095Y-109820952D01*
X125515714Y-109630476D01*
X125563333Y-109535238D01*
X125658571Y-109440000D01*
X125801428Y-109392380D01*
X125896666Y-109392380D01*
X126039523Y-109440000D01*
X126087142Y-109487619D01*
X127039523Y-110392380D02*
X126468095Y-110392380D01*
X126753809Y-110392380D02*
X126753809Y-109392380D01*
X126658571Y-109535238D01*
X126563333Y-109630476D01*
X126468095Y-109678095D01*
X127610952Y-109820952D02*
X127515714Y-109773333D01*
X127468095Y-109725714D01*
X127420476Y-109630476D01*
X127420476Y-109582857D01*
X127468095Y-109487619D01*
X127515714Y-109440000D01*
X127610952Y-109392380D01*
X127801428Y-109392380D01*
X127896666Y-109440000D01*
X127944285Y-109487619D01*
X127991904Y-109582857D01*
X127991904Y-109630476D01*
X127944285Y-109725714D01*
X127896666Y-109773333D01*
X127801428Y-109820952D01*
X127610952Y-109820952D01*
X127515714Y-109868571D01*
X127468095Y-109916190D01*
X127420476Y-110011428D01*
X127420476Y-110201904D01*
X127468095Y-110297142D01*
X127515714Y-110344761D01*
X127610952Y-110392380D01*
X127801428Y-110392380D01*
X127896666Y-110344761D01*
X127944285Y-110297142D01*
X127991904Y-110201904D01*
X127991904Y-110011428D01*
X127944285Y-109916190D01*
X127896666Y-109868571D01*
X127801428Y-109820952D01*
X104827142Y-115357142D02*
X104779523Y-115404761D01*
X104636666Y-115452380D01*
X104541428Y-115452380D01*
X104398571Y-115404761D01*
X104303333Y-115309523D01*
X104255714Y-115214285D01*
X104208095Y-115023809D01*
X104208095Y-114880952D01*
X104255714Y-114690476D01*
X104303333Y-114595238D01*
X104398571Y-114500000D01*
X104541428Y-114452380D01*
X104636666Y-114452380D01*
X104779523Y-114500000D01*
X104827142Y-114547619D01*
X105208095Y-114547619D02*
X105255714Y-114500000D01*
X105350952Y-114452380D01*
X105589047Y-114452380D01*
X105684285Y-114500000D01*
X105731904Y-114547619D01*
X105779523Y-114642857D01*
X105779523Y-114738095D01*
X105731904Y-114880952D01*
X105160476Y-115452380D01*
X105779523Y-115452380D01*
X106684285Y-114452380D02*
X106208095Y-114452380D01*
X106160476Y-114928571D01*
X106208095Y-114880952D01*
X106303333Y-114833333D01*
X106541428Y-114833333D01*
X106636666Y-114880952D01*
X106684285Y-114928571D01*
X106731904Y-115023809D01*
X106731904Y-115261904D01*
X106684285Y-115357142D01*
X106636666Y-115404761D01*
X106541428Y-115452380D01*
X106303333Y-115452380D01*
X106208095Y-115404761D01*
X106160476Y-115357142D01*
X101167142Y-113162380D02*
X100833809Y-112686190D01*
X100595714Y-113162380D02*
X100595714Y-112162380D01*
X100976666Y-112162380D01*
X101071904Y-112210000D01*
X101119523Y-112257619D01*
X101167142Y-112352857D01*
X101167142Y-112495714D01*
X101119523Y-112590952D01*
X101071904Y-112638571D01*
X100976666Y-112686190D01*
X100595714Y-112686190D01*
X101548095Y-112257619D02*
X101595714Y-112210000D01*
X101690952Y-112162380D01*
X101929047Y-112162380D01*
X102024285Y-112210000D01*
X102071904Y-112257619D01*
X102119523Y-112352857D01*
X102119523Y-112448095D01*
X102071904Y-112590952D01*
X101500476Y-113162380D01*
X102119523Y-113162380D01*
X102452857Y-112162380D02*
X103071904Y-112162380D01*
X102738571Y-112543333D01*
X102881428Y-112543333D01*
X102976666Y-112590952D01*
X103024285Y-112638571D01*
X103071904Y-112733809D01*
X103071904Y-112971904D01*
X103024285Y-113067142D01*
X102976666Y-113114761D01*
X102881428Y-113162380D01*
X102595714Y-113162380D01*
X102500476Y-113114761D01*
X102452857Y-113067142D01*
X108227142Y-115432380D02*
X107893809Y-114956190D01*
X107655714Y-115432380D02*
X107655714Y-114432380D01*
X108036666Y-114432380D01*
X108131904Y-114480000D01*
X108179523Y-114527619D01*
X108227142Y-114622857D01*
X108227142Y-114765714D01*
X108179523Y-114860952D01*
X108131904Y-114908571D01*
X108036666Y-114956190D01*
X107655714Y-114956190D01*
X109179523Y-115432380D02*
X108608095Y-115432380D01*
X108893809Y-115432380D02*
X108893809Y-114432380D01*
X108798571Y-114575238D01*
X108703333Y-114670476D01*
X108608095Y-114718095D01*
X110036666Y-114432380D02*
X109846190Y-114432380D01*
X109750952Y-114480000D01*
X109703333Y-114527619D01*
X109608095Y-114670476D01*
X109560476Y-114860952D01*
X109560476Y-115241904D01*
X109608095Y-115337142D01*
X109655714Y-115384761D01*
X109750952Y-115432380D01*
X109941428Y-115432380D01*
X110036666Y-115384761D01*
X110084285Y-115337142D01*
X110131904Y-115241904D01*
X110131904Y-115003809D01*
X110084285Y-114908571D01*
X110036666Y-114860952D01*
X109941428Y-114813333D01*
X109750952Y-114813333D01*
X109655714Y-114860952D01*
X109608095Y-114908571D01*
X109560476Y-115003809D01*
X100611904Y-110622380D02*
X100611904Y-109622380D01*
X100850000Y-109622380D01*
X100992857Y-109670000D01*
X101088095Y-109765238D01*
X101135714Y-109860476D01*
X101183333Y-110050952D01*
X101183333Y-110193809D01*
X101135714Y-110384285D01*
X101088095Y-110479523D01*
X100992857Y-110574761D01*
X100850000Y-110622380D01*
X100611904Y-110622380D01*
X102135714Y-110622380D02*
X101564285Y-110622380D01*
X101850000Y-110622380D02*
X101850000Y-109622380D01*
X101754761Y-109765238D01*
X101659523Y-109860476D01*
X101564285Y-109908095D01*
X142797142Y-115332380D02*
X142463809Y-114856190D01*
X142225714Y-115332380D02*
X142225714Y-114332380D01*
X142606666Y-114332380D01*
X142701904Y-114380000D01*
X142749523Y-114427619D01*
X142797142Y-114522857D01*
X142797142Y-114665714D01*
X142749523Y-114760952D01*
X142701904Y-114808571D01*
X142606666Y-114856190D01*
X142225714Y-114856190D01*
X143749523Y-115332380D02*
X143178095Y-115332380D01*
X143463809Y-115332380D02*
X143463809Y-114332380D01*
X143368571Y-114475238D01*
X143273333Y-114570476D01*
X143178095Y-114618095D01*
X144701904Y-115332380D02*
X144130476Y-115332380D01*
X144416190Y-115332380D02*
X144416190Y-114332380D01*
X144320952Y-114475238D01*
X144225714Y-114570476D01*
X144130476Y-114618095D01*
X134713333Y-106877142D02*
X134665714Y-106924761D01*
X134522857Y-106972380D01*
X134427619Y-106972380D01*
X134284761Y-106924761D01*
X134189523Y-106829523D01*
X134141904Y-106734285D01*
X134094285Y-106543809D01*
X134094285Y-106400952D01*
X134141904Y-106210476D01*
X134189523Y-106115238D01*
X134284761Y-106020000D01*
X134427619Y-105972380D01*
X134522857Y-105972380D01*
X134665714Y-106020000D01*
X134713333Y-106067619D01*
X135189523Y-106972380D02*
X135380000Y-106972380D01*
X135475238Y-106924761D01*
X135522857Y-106877142D01*
X135618095Y-106734285D01*
X135665714Y-106543809D01*
X135665714Y-106162857D01*
X135618095Y-106067619D01*
X135570476Y-106020000D01*
X135475238Y-105972380D01*
X135284761Y-105972380D01*
X135189523Y-106020000D01*
X135141904Y-106067619D01*
X135094285Y-106162857D01*
X135094285Y-106400952D01*
X135141904Y-106496190D01*
X135189523Y-106543809D01*
X135284761Y-106591428D01*
X135475238Y-106591428D01*
X135570476Y-106543809D01*
X135618095Y-106496190D01*
X135665714Y-106400952D01*
X112947142Y-117967142D02*
X112899523Y-118014761D01*
X112756666Y-118062380D01*
X112661428Y-118062380D01*
X112518571Y-118014761D01*
X112423333Y-117919523D01*
X112375714Y-117824285D01*
X112328095Y-117633809D01*
X112328095Y-117490952D01*
X112375714Y-117300476D01*
X112423333Y-117205238D01*
X112518571Y-117110000D01*
X112661428Y-117062380D01*
X112756666Y-117062380D01*
X112899523Y-117110000D01*
X112947142Y-117157619D01*
X113899523Y-118062380D02*
X113328095Y-118062380D01*
X113613809Y-118062380D02*
X113613809Y-117062380D01*
X113518571Y-117205238D01*
X113423333Y-117300476D01*
X113328095Y-117348095D01*
X114375714Y-118062380D02*
X114566190Y-118062380D01*
X114661428Y-118014761D01*
X114709047Y-117967142D01*
X114804285Y-117824285D01*
X114851904Y-117633809D01*
X114851904Y-117252857D01*
X114804285Y-117157619D01*
X114756666Y-117110000D01*
X114661428Y-117062380D01*
X114470952Y-117062380D01*
X114375714Y-117110000D01*
X114328095Y-117157619D01*
X114280476Y-117252857D01*
X114280476Y-117490952D01*
X114328095Y-117586190D01*
X114375714Y-117633809D01*
X114470952Y-117681428D01*
X114661428Y-117681428D01*
X114756666Y-117633809D01*
X114804285Y-117586190D01*
X114851904Y-117490952D01*
X134713333Y-104817142D02*
X134665714Y-104864761D01*
X134522857Y-104912380D01*
X134427619Y-104912380D01*
X134284761Y-104864761D01*
X134189523Y-104769523D01*
X134141904Y-104674285D01*
X134094285Y-104483809D01*
X134094285Y-104340952D01*
X134141904Y-104150476D01*
X134189523Y-104055238D01*
X134284761Y-103960000D01*
X134427619Y-103912380D01*
X134522857Y-103912380D01*
X134665714Y-103960000D01*
X134713333Y-104007619D01*
X135570476Y-103912380D02*
X135380000Y-103912380D01*
X135284761Y-103960000D01*
X135237142Y-104007619D01*
X135141904Y-104150476D01*
X135094285Y-104340952D01*
X135094285Y-104721904D01*
X135141904Y-104817142D01*
X135189523Y-104864761D01*
X135284761Y-104912380D01*
X135475238Y-104912380D01*
X135570476Y-104864761D01*
X135618095Y-104817142D01*
X135665714Y-104721904D01*
X135665714Y-104483809D01*
X135618095Y-104388571D01*
X135570476Y-104340952D01*
X135475238Y-104293333D01*
X135284761Y-104293333D01*
X135189523Y-104340952D01*
X135141904Y-104388571D01*
X135094285Y-104483809D01*
X95553333Y-88577142D02*
X95505714Y-88624761D01*
X95362857Y-88672380D01*
X95267619Y-88672380D01*
X95124761Y-88624761D01*
X95029523Y-88529523D01*
X94981904Y-88434285D01*
X94934285Y-88243809D01*
X94934285Y-88100952D01*
X94981904Y-87910476D01*
X95029523Y-87815238D01*
X95124761Y-87720000D01*
X95267619Y-87672380D01*
X95362857Y-87672380D01*
X95505714Y-87720000D01*
X95553333Y-87767619D01*
X95886666Y-87672380D02*
X96505714Y-87672380D01*
X96172380Y-88053333D01*
X96315238Y-88053333D01*
X96410476Y-88100952D01*
X96458095Y-88148571D01*
X96505714Y-88243809D01*
X96505714Y-88481904D01*
X96458095Y-88577142D01*
X96410476Y-88624761D01*
X96315238Y-88672380D01*
X96029523Y-88672380D01*
X95934285Y-88624761D01*
X95886666Y-88577142D01*
X132723333Y-97862380D02*
X132390000Y-97386190D01*
X132151904Y-97862380D02*
X132151904Y-96862380D01*
X132532857Y-96862380D01*
X132628095Y-96910000D01*
X132675714Y-96957619D01*
X132723333Y-97052857D01*
X132723333Y-97195714D01*
X132675714Y-97290952D01*
X132628095Y-97338571D01*
X132532857Y-97386190D01*
X132151904Y-97386190D01*
X133294761Y-97290952D02*
X133199523Y-97243333D01*
X133151904Y-97195714D01*
X133104285Y-97100476D01*
X133104285Y-97052857D01*
X133151904Y-96957619D01*
X133199523Y-96910000D01*
X133294761Y-96862380D01*
X133485238Y-96862380D01*
X133580476Y-96910000D01*
X133628095Y-96957619D01*
X133675714Y-97052857D01*
X133675714Y-97100476D01*
X133628095Y-97195714D01*
X133580476Y-97243333D01*
X133485238Y-97290952D01*
X133294761Y-97290952D01*
X133199523Y-97338571D01*
X133151904Y-97386190D01*
X133104285Y-97481428D01*
X133104285Y-97671904D01*
X133151904Y-97767142D01*
X133199523Y-97814761D01*
X133294761Y-97862380D01*
X133485238Y-97862380D01*
X133580476Y-97814761D01*
X133628095Y-97767142D01*
X133675714Y-97671904D01*
X133675714Y-97481428D01*
X133628095Y-97386190D01*
X133580476Y-97338571D01*
X133485238Y-97290952D01*
X130203333Y-97862380D02*
X129870000Y-97386190D01*
X129631904Y-97862380D02*
X129631904Y-96862380D01*
X130012857Y-96862380D01*
X130108095Y-96910000D01*
X130155714Y-96957619D01*
X130203333Y-97052857D01*
X130203333Y-97195714D01*
X130155714Y-97290952D01*
X130108095Y-97338571D01*
X130012857Y-97386190D01*
X129631904Y-97386190D01*
X131060476Y-96862380D02*
X130870000Y-96862380D01*
X130774761Y-96910000D01*
X130727142Y-96957619D01*
X130631904Y-97100476D01*
X130584285Y-97290952D01*
X130584285Y-97671904D01*
X130631904Y-97767142D01*
X130679523Y-97814761D01*
X130774761Y-97862380D01*
X130965238Y-97862380D01*
X131060476Y-97814761D01*
X131108095Y-97767142D01*
X131155714Y-97671904D01*
X131155714Y-97433809D01*
X131108095Y-97338571D01*
X131060476Y-97290952D01*
X130965238Y-97243333D01*
X130774761Y-97243333D01*
X130679523Y-97290952D01*
X130631904Y-97338571D01*
X130584285Y-97433809D01*
X131537142Y-88037142D02*
X131489523Y-88084761D01*
X131346666Y-88132380D01*
X131251428Y-88132380D01*
X131108571Y-88084761D01*
X131013333Y-87989523D01*
X130965714Y-87894285D01*
X130918095Y-87703809D01*
X130918095Y-87560952D01*
X130965714Y-87370476D01*
X131013333Y-87275238D01*
X131108571Y-87180000D01*
X131251428Y-87132380D01*
X131346666Y-87132380D01*
X131489523Y-87180000D01*
X131537142Y-87227619D01*
X131918095Y-87227619D02*
X131965714Y-87180000D01*
X132060952Y-87132380D01*
X132299047Y-87132380D01*
X132394285Y-87180000D01*
X132441904Y-87227619D01*
X132489523Y-87322857D01*
X132489523Y-87418095D01*
X132441904Y-87560952D01*
X131870476Y-88132380D01*
X132489523Y-88132380D01*
X132822857Y-87132380D02*
X133441904Y-87132380D01*
X133108571Y-87513333D01*
X133251428Y-87513333D01*
X133346666Y-87560952D01*
X133394285Y-87608571D01*
X133441904Y-87703809D01*
X133441904Y-87941904D01*
X133394285Y-88037142D01*
X133346666Y-88084761D01*
X133251428Y-88132380D01*
X132965714Y-88132380D01*
X132870476Y-88084761D01*
X132822857Y-88037142D01*
X105757142Y-105912380D02*
X105423809Y-105436190D01*
X105185714Y-105912380D02*
X105185714Y-104912380D01*
X105566666Y-104912380D01*
X105661904Y-104960000D01*
X105709523Y-105007619D01*
X105757142Y-105102857D01*
X105757142Y-105245714D01*
X105709523Y-105340952D01*
X105661904Y-105388571D01*
X105566666Y-105436190D01*
X105185714Y-105436190D01*
X106709523Y-105912380D02*
X106138095Y-105912380D01*
X106423809Y-105912380D02*
X106423809Y-104912380D01*
X106328571Y-105055238D01*
X106233333Y-105150476D01*
X106138095Y-105198095D01*
X107280952Y-105340952D02*
X107185714Y-105293333D01*
X107138095Y-105245714D01*
X107090476Y-105150476D01*
X107090476Y-105102857D01*
X107138095Y-105007619D01*
X107185714Y-104960000D01*
X107280952Y-104912380D01*
X107471428Y-104912380D01*
X107566666Y-104960000D01*
X107614285Y-105007619D01*
X107661904Y-105102857D01*
X107661904Y-105150476D01*
X107614285Y-105245714D01*
X107566666Y-105293333D01*
X107471428Y-105340952D01*
X107280952Y-105340952D01*
X107185714Y-105388571D01*
X107138095Y-105436190D01*
X107090476Y-105531428D01*
X107090476Y-105721904D01*
X107138095Y-105817142D01*
X107185714Y-105864761D01*
X107280952Y-105912380D01*
X107471428Y-105912380D01*
X107566666Y-105864761D01*
X107614285Y-105817142D01*
X107661904Y-105721904D01*
X107661904Y-105531428D01*
X107614285Y-105436190D01*
X107566666Y-105388571D01*
X107471428Y-105340952D01*
X112234761Y-127557619D02*
X112139523Y-127510000D01*
X112044285Y-127414761D01*
X111901428Y-127271904D01*
X111806190Y-127224285D01*
X111710952Y-127224285D01*
X111758571Y-127462380D02*
X111663333Y-127414761D01*
X111568095Y-127319523D01*
X111520476Y-127129047D01*
X111520476Y-126795714D01*
X111568095Y-126605238D01*
X111663333Y-126510000D01*
X111758571Y-126462380D01*
X111949047Y-126462380D01*
X112044285Y-126510000D01*
X112139523Y-126605238D01*
X112187142Y-126795714D01*
X112187142Y-127129047D01*
X112139523Y-127319523D01*
X112044285Y-127414761D01*
X111949047Y-127462380D01*
X111758571Y-127462380D01*
X112568095Y-126557619D02*
X112615714Y-126510000D01*
X112710952Y-126462380D01*
X112949047Y-126462380D01*
X113044285Y-126510000D01*
X113091904Y-126557619D01*
X113139523Y-126652857D01*
X113139523Y-126748095D01*
X113091904Y-126890952D01*
X112520476Y-127462380D01*
X113139523Y-127462380D01*
X148432380Y-106006666D02*
X147956190Y-106340000D01*
X148432380Y-106578095D02*
X147432380Y-106578095D01*
X147432380Y-106197142D01*
X147480000Y-106101904D01*
X147527619Y-106054285D01*
X147622857Y-106006666D01*
X147765714Y-106006666D01*
X147860952Y-106054285D01*
X147908571Y-106101904D01*
X147956190Y-106197142D01*
X147956190Y-106578095D01*
X148432380Y-105530476D02*
X148432380Y-105340000D01*
X148384761Y-105244761D01*
X148337142Y-105197142D01*
X148194285Y-105101904D01*
X148003809Y-105054285D01*
X147622857Y-105054285D01*
X147527619Y-105101904D01*
X147480000Y-105149523D01*
X147432380Y-105244761D01*
X147432380Y-105435238D01*
X147480000Y-105530476D01*
X147527619Y-105578095D01*
X147622857Y-105625714D01*
X147860952Y-105625714D01*
X147956190Y-105578095D01*
X148003809Y-105530476D01*
X148051428Y-105435238D01*
X148051428Y-105244761D01*
X148003809Y-105149523D01*
X147956190Y-105101904D01*
X147860952Y-105054285D01*
X151942380Y-100506666D02*
X151466190Y-100840000D01*
X151942380Y-101078095D02*
X150942380Y-101078095D01*
X150942380Y-100697142D01*
X150990000Y-100601904D01*
X151037619Y-100554285D01*
X151132857Y-100506666D01*
X151275714Y-100506666D01*
X151370952Y-100554285D01*
X151418571Y-100601904D01*
X151466190Y-100697142D01*
X151466190Y-101078095D01*
X150942380Y-100173333D02*
X150942380Y-99506666D01*
X151942380Y-99935238D01*
X102712380Y-100412857D02*
X102236190Y-100746190D01*
X102712380Y-100984285D02*
X101712380Y-100984285D01*
X101712380Y-100603333D01*
X101760000Y-100508095D01*
X101807619Y-100460476D01*
X101902857Y-100412857D01*
X102045714Y-100412857D01*
X102140952Y-100460476D01*
X102188571Y-100508095D01*
X102236190Y-100603333D01*
X102236190Y-100984285D01*
X101807619Y-100031904D02*
X101760000Y-99984285D01*
X101712380Y-99889047D01*
X101712380Y-99650952D01*
X101760000Y-99555714D01*
X101807619Y-99508095D01*
X101902857Y-99460476D01*
X101998095Y-99460476D01*
X102140952Y-99508095D01*
X102712380Y-100079523D01*
X102712380Y-99460476D01*
X102712380Y-98508095D02*
X102712380Y-99079523D01*
X102712380Y-98793809D02*
X101712380Y-98793809D01*
X101855238Y-98889047D01*
X101950476Y-98984285D01*
X101998095Y-99079523D01*
X137557142Y-117957142D02*
X137509523Y-118004761D01*
X137366666Y-118052380D01*
X137271428Y-118052380D01*
X137128571Y-118004761D01*
X137033333Y-117909523D01*
X136985714Y-117814285D01*
X136938095Y-117623809D01*
X136938095Y-117480952D01*
X136985714Y-117290476D01*
X137033333Y-117195238D01*
X137128571Y-117100000D01*
X137271428Y-117052380D01*
X137366666Y-117052380D01*
X137509523Y-117100000D01*
X137557142Y-117147619D01*
X138509523Y-118052380D02*
X137938095Y-118052380D01*
X138223809Y-118052380D02*
X138223809Y-117052380D01*
X138128571Y-117195238D01*
X138033333Y-117290476D01*
X137938095Y-117338095D01*
X138842857Y-117052380D02*
X139461904Y-117052380D01*
X139128571Y-117433333D01*
X139271428Y-117433333D01*
X139366666Y-117480952D01*
X139414285Y-117528571D01*
X139461904Y-117623809D01*
X139461904Y-117861904D01*
X139414285Y-117957142D01*
X139366666Y-118004761D01*
X139271428Y-118052380D01*
X138985714Y-118052380D01*
X138890476Y-118004761D01*
X138842857Y-117957142D01*
X149717142Y-106762857D02*
X149764761Y-106810476D01*
X149812380Y-106953333D01*
X149812380Y-107048571D01*
X149764761Y-107191428D01*
X149669523Y-107286666D01*
X149574285Y-107334285D01*
X149383809Y-107381904D01*
X149240952Y-107381904D01*
X149050476Y-107334285D01*
X148955238Y-107286666D01*
X148860000Y-107191428D01*
X148812380Y-107048571D01*
X148812380Y-106953333D01*
X148860000Y-106810476D01*
X148907619Y-106762857D01*
X149812380Y-105810476D02*
X149812380Y-106381904D01*
X149812380Y-106096190D02*
X148812380Y-106096190D01*
X148955238Y-106191428D01*
X149050476Y-106286666D01*
X149098095Y-106381904D01*
X149145714Y-104953333D02*
X149812380Y-104953333D01*
X148764761Y-105191428D02*
X149479047Y-105429523D01*
X149479047Y-104810476D01*
X124042380Y-100942857D02*
X123566190Y-101276190D01*
X124042380Y-101514285D02*
X123042380Y-101514285D01*
X123042380Y-101133333D01*
X123090000Y-101038095D01*
X123137619Y-100990476D01*
X123232857Y-100942857D01*
X123375714Y-100942857D01*
X123470952Y-100990476D01*
X123518571Y-101038095D01*
X123566190Y-101133333D01*
X123566190Y-101514285D01*
X124042380Y-99990476D02*
X124042380Y-100561904D01*
X124042380Y-100276190D02*
X123042380Y-100276190D01*
X123185238Y-100371428D01*
X123280476Y-100466666D01*
X123328095Y-100561904D01*
X124042380Y-99514285D02*
X124042380Y-99323809D01*
X123994761Y-99228571D01*
X123947142Y-99180952D01*
X123804285Y-99085714D01*
X123613809Y-99038095D01*
X123232857Y-99038095D01*
X123137619Y-99085714D01*
X123090000Y-99133333D01*
X123042380Y-99228571D01*
X123042380Y-99419047D01*
X123090000Y-99514285D01*
X123137619Y-99561904D01*
X123232857Y-99609523D01*
X123470952Y-99609523D01*
X123566190Y-99561904D01*
X123613809Y-99514285D01*
X123661428Y-99419047D01*
X123661428Y-99228571D01*
X123613809Y-99133333D01*
X123566190Y-99085714D01*
X123470952Y-99038095D01*
X117847142Y-104737142D02*
X117799523Y-104784761D01*
X117656666Y-104832380D01*
X117561428Y-104832380D01*
X117418571Y-104784761D01*
X117323333Y-104689523D01*
X117275714Y-104594285D01*
X117228095Y-104403809D01*
X117228095Y-104260952D01*
X117275714Y-104070476D01*
X117323333Y-103975238D01*
X117418571Y-103880000D01*
X117561428Y-103832380D01*
X117656666Y-103832380D01*
X117799523Y-103880000D01*
X117847142Y-103927619D01*
X118228095Y-103927619D02*
X118275714Y-103880000D01*
X118370952Y-103832380D01*
X118609047Y-103832380D01*
X118704285Y-103880000D01*
X118751904Y-103927619D01*
X118799523Y-104022857D01*
X118799523Y-104118095D01*
X118751904Y-104260952D01*
X118180476Y-104832380D01*
X118799523Y-104832380D01*
X119418571Y-103832380D02*
X119513809Y-103832380D01*
X119609047Y-103880000D01*
X119656666Y-103927619D01*
X119704285Y-104022857D01*
X119751904Y-104213333D01*
X119751904Y-104451428D01*
X119704285Y-104641904D01*
X119656666Y-104737142D01*
X119609047Y-104784761D01*
X119513809Y-104832380D01*
X119418571Y-104832380D01*
X119323333Y-104784761D01*
X119275714Y-104737142D01*
X119228095Y-104641904D01*
X119180476Y-104451428D01*
X119180476Y-104213333D01*
X119228095Y-104022857D01*
X119275714Y-103927619D01*
X119323333Y-103880000D01*
X119418571Y-103832380D01*
X101788095Y-95552380D02*
X101788095Y-96361904D01*
X101835714Y-96457142D01*
X101883333Y-96504761D01*
X101978571Y-96552380D01*
X102169047Y-96552380D01*
X102264285Y-96504761D01*
X102311904Y-96457142D01*
X102359523Y-96361904D01*
X102359523Y-95552380D01*
X102788095Y-95647619D02*
X102835714Y-95600000D01*
X102930952Y-95552380D01*
X103169047Y-95552380D01*
X103264285Y-95600000D01*
X103311904Y-95647619D01*
X103359523Y-95742857D01*
X103359523Y-95838095D01*
X103311904Y-95980952D01*
X102740476Y-96552380D01*
X103359523Y-96552380D01*
D11*
X91110000Y-120750000D02*
X99740000Y-120750000D01*
X99740000Y-122380000D02*
X100150000Y-122380000D01*
X99740000Y-127460000D02*
X100150000Y-127460000D01*
X99740000Y-119120000D02*
X100090000Y-119120000D01*
X99740000Y-118150000D02*
X99740000Y-128430000D01*
X91110000Y-118150000D02*
X91110000Y-128430000D01*
X91110000Y-123290000D02*
X99740000Y-123290000D01*
X99740000Y-126740000D02*
X100150000Y-126740000D01*
X91110000Y-118150000D02*
X99740000Y-118150000D01*
X101200000Y-118150000D02*
X102310000Y-118150000D01*
X99740000Y-121660000D02*
X100150000Y-121660000D01*
X99740000Y-124920000D02*
X100150000Y-124920000D01*
X91110000Y-125830000D02*
X99740000Y-125830000D01*
X99740000Y-124200000D02*
X100150000Y-124200000D01*
X99740000Y-119840000D02*
X100090000Y-119840000D01*
X102310000Y-118150000D02*
X102310000Y-119480000D01*
X91110000Y-128430000D02*
X99740000Y-128430000D01*
X133360000Y-89895000D02*
X143580000Y-89895000D01*
X133360000Y-92555000D02*
X143580000Y-92555000D01*
X130760000Y-91225000D02*
X130760000Y-89895000D01*
X130760000Y-89895000D02*
X132090000Y-89895000D01*
X143580000Y-92555000D02*
X143580000Y-89895000D01*
X133360000Y-92555000D02*
X133360000Y-89895000D01*
X90700000Y-90350000D02*
X90700000Y-96100000D01*
X92350000Y-89750000D02*
X91850000Y-89750000D01*
X92350000Y-96650000D02*
X91850000Y-96650000D01*
X93500000Y-93250000D02*
X93500000Y-91650000D01*
X144135000Y-96710000D02*
X144135000Y-93690000D01*
X139750000Y-96710000D02*
X144135000Y-96710000D01*
X144135000Y-93690000D02*
X139750000Y-93690000D01*
X127911252Y-92390000D02*
X126488748Y-92390000D01*
X127911252Y-94210000D02*
X126488748Y-94210000D01*
X116150000Y-128900000D02*
G75*
G03*
X116150000Y-128900000I-1450000J0D01*
G01*
X144990000Y-108865000D02*
X144990000Y-113250000D01*
X148010000Y-113250000D02*
X148010000Y-108865000D01*
X148010000Y-108865000D02*
X144990000Y-108865000D01*
X119788748Y-97410000D02*
X121211252Y-97410000D01*
X119788748Y-95590000D02*
X121211252Y-95590000D01*
X131990000Y-110772936D02*
X131990000Y-112227064D01*
X133810000Y-110772936D02*
X133810000Y-112227064D01*
X120650000Y-128900000D02*
G75*
G03*
X120650000Y-128900000I-1450000J0D01*
G01*
X129490000Y-106111252D02*
X129490000Y-104688748D01*
X131310000Y-106111252D02*
X131310000Y-104688748D01*
X145290000Y-93272936D02*
X145290000Y-94727064D01*
X147110000Y-93272936D02*
X147110000Y-94727064D01*
X121500000Y-125900000D02*
X119250000Y-125900000D01*
X121500000Y-120900000D02*
X123500000Y-120900000D01*
X123500000Y-120900000D02*
X123500000Y-121150000D01*
X121500000Y-120900000D02*
X119250000Y-120900000D01*
X119250000Y-125900000D02*
X119250000Y-124650000D01*
X119250000Y-120900000D02*
X119250000Y-122150000D01*
X123750000Y-125900000D02*
X123750000Y-125650000D01*
X121500000Y-125900000D02*
X123750000Y-125900000D01*
X113188748Y-107810000D02*
X114611252Y-107810000D01*
X114075000Y-105990000D02*
X114611252Y-105990000D01*
X130910000Y-116372936D02*
X130910000Y-117827064D01*
X129090000Y-116372936D02*
X129090000Y-117827064D01*
X138650000Y-128900000D02*
G75*
G03*
X138650000Y-128900000I-1450000J0D01*
G01*
X143150000Y-128900000D02*
G75*
G03*
X143150000Y-128900000I-1450000J0D01*
G01*
X114100000Y-102860000D02*
X117350000Y-102860000D01*
X113900000Y-97740000D02*
X115850000Y-97740000D01*
X113900000Y-97740000D02*
X111950000Y-97740000D01*
X120790000Y-99588748D02*
X120790000Y-101011252D01*
X122610000Y-99588748D02*
X122610000Y-101011252D01*
X107690000Y-99572936D02*
X107690000Y-101027064D01*
X109510000Y-99572936D02*
X109510000Y-101027064D01*
X99811252Y-105210000D02*
X98388748Y-105210000D01*
X99811252Y-103390000D02*
X98388748Y-103390000D01*
X146788748Y-91110000D02*
X148211252Y-91110000D01*
X146788748Y-89290000D02*
X148211252Y-89290000D01*
X138200000Y-114060000D02*
X136250000Y-114060000D01*
X138200000Y-108940000D02*
X136250000Y-108940000D01*
X138200000Y-108940000D02*
X140150000Y-108940000D01*
X138200000Y-114060000D02*
X141650000Y-114060000D01*
X128410000Y-116388748D02*
X128410000Y-117811252D01*
X126590000Y-116388748D02*
X126590000Y-117811252D01*
X128910000Y-102935000D02*
X128910000Y-98550000D01*
X125890000Y-98550000D02*
X125890000Y-102935000D01*
X125890000Y-102935000D02*
X128910000Y-102935000D01*
X126810000Y-88772936D02*
X126810000Y-90227064D01*
X124990000Y-88772936D02*
X124990000Y-90227064D01*
X122910000Y-116388748D02*
X122910000Y-117811252D01*
X121090000Y-116388748D02*
X121090000Y-117811252D01*
X98372936Y-102710000D02*
X99827064Y-102710000D01*
X98372936Y-100890000D02*
X99827064Y-100890000D01*
X152110000Y-94711252D02*
X152110000Y-93288748D01*
X150290000Y-94711252D02*
X150290000Y-93288748D01*
X138200000Y-97740000D02*
X136250000Y-97740000D01*
X138200000Y-102860000D02*
X141650000Y-102860000D01*
X138200000Y-102860000D02*
X136250000Y-102860000D01*
X138200000Y-97740000D02*
X140150000Y-97740000D01*
X130500000Y-120900000D02*
X128250000Y-120900000D01*
X130500000Y-125900000D02*
X128250000Y-125900000D01*
X130500000Y-125900000D02*
X132750000Y-125900000D01*
X130500000Y-120900000D02*
X132500000Y-120900000D01*
X128250000Y-120900000D02*
X128250000Y-122150000D01*
X128250000Y-125900000D02*
X128250000Y-124650000D01*
X132500000Y-120900000D02*
X132500000Y-121150000D01*
X132750000Y-125900000D02*
X132750000Y-125650000D01*
X150510000Y-102935000D02*
X150510000Y-98550000D01*
X147490000Y-102935000D02*
X150510000Y-102935000D01*
X147490000Y-98550000D02*
X147490000Y-102935000D01*
X120690000Y-108865000D02*
X120690000Y-113250000D01*
X123710000Y-113250000D02*
X123710000Y-108865000D01*
X123710000Y-108865000D02*
X120690000Y-108865000D01*
X134150000Y-128900000D02*
G75*
G03*
X134150000Y-128900000I-1450000J0D01*
G01*
X120060000Y-90670000D02*
X120060000Y-93330000D01*
X122660000Y-93330000D02*
X121330000Y-93330000D01*
X120060000Y-90670000D02*
X97140000Y-90670000D01*
X122660000Y-92000000D02*
X122660000Y-93330000D01*
X120060000Y-93330000D02*
X97140000Y-93330000D01*
X97140000Y-90670000D02*
X97140000Y-93330000D01*
X113900000Y-108940000D02*
X111950000Y-108940000D01*
X113900000Y-114060000D02*
X117350000Y-114060000D01*
X113900000Y-114060000D02*
X111950000Y-114060000D01*
X113900000Y-108940000D02*
X115850000Y-108940000D01*
X129650000Y-128900000D02*
G75*
G03*
X129650000Y-128900000I-1450000J0D01*
G01*
X134650000Y-93690000D02*
X130265000Y-93690000D01*
X130265000Y-96710000D02*
X134650000Y-96710000D01*
X130265000Y-93690000D02*
X130265000Y-96710000D01*
X107010000Y-99588748D02*
X107010000Y-101011252D01*
X105190000Y-99588748D02*
X105190000Y-101011252D01*
X122811252Y-89110000D02*
X121388748Y-89110000D01*
X122811252Y-87290000D02*
X121388748Y-87290000D01*
X145090000Y-99572936D02*
X145090000Y-101027064D01*
X146910000Y-99572936D02*
X146910000Y-101027064D01*
X129310000Y-90227064D02*
X129310000Y-88772936D01*
X127490000Y-90227064D02*
X127490000Y-88772936D01*
X133800000Y-106127064D02*
X133800000Y-104672936D01*
X131980000Y-106127064D02*
X131980000Y-104672936D01*
X118290000Y-112227064D02*
X118290000Y-110772936D01*
X120110000Y-112227064D02*
X120110000Y-110772936D01*
X108011252Y-97410000D02*
X106588748Y-97410000D01*
X108011252Y-95590000D02*
X106588748Y-95590000D01*
X147790000Y-94727064D02*
X147790000Y-93272936D01*
X149610000Y-94727064D02*
X149610000Y-93272936D01*
X125150000Y-128900000D02*
G75*
G03*
X125150000Y-128900000I-1450000J0D01*
G01*
X122127064Y-108110000D02*
X120672936Y-108110000D01*
X122127064Y-106290000D02*
X120672936Y-106290000D01*
X125410000Y-116372936D02*
X125410000Y-117827064D01*
X123590000Y-116372936D02*
X123590000Y-117827064D01*
X131410000Y-114135000D02*
X131410000Y-109750000D01*
X128390000Y-109750000D02*
X128390000Y-114135000D01*
X128390000Y-114135000D02*
X131410000Y-114135000D01*
X107110000Y-114135000D02*
X107110000Y-109750000D01*
X104090000Y-110950000D02*
X104090000Y-114135000D01*
X104090000Y-114135000D02*
X107110000Y-114135000D01*
X97272936Y-111820000D02*
X98727064Y-111820000D01*
X97272936Y-113640000D02*
X98727064Y-113640000D01*
X109510000Y-110772936D02*
X109510000Y-112227064D01*
X107690000Y-110772936D02*
X107690000Y-112227064D01*
X99600000Y-108995000D02*
X95540000Y-108995000D01*
X95540000Y-108995000D02*
X95540000Y-111265000D01*
X95540000Y-111265000D02*
X99600000Y-111265000D01*
X110250000Y-120900000D02*
X110250000Y-122150000D01*
X112500000Y-125900000D02*
X110250000Y-125900000D01*
X112500000Y-120900000D02*
X114500000Y-120900000D01*
X112500000Y-120900000D02*
X110250000Y-120900000D01*
X112500000Y-125900000D02*
X114750000Y-125900000D01*
X110250000Y-125900000D02*
X110250000Y-124650000D01*
X114500000Y-120900000D02*
X114500000Y-121150000D01*
X114750000Y-125900000D02*
X114750000Y-125650000D01*
X142590000Y-112227064D02*
X142590000Y-110772936D01*
X144410000Y-112227064D02*
X144410000Y-110772936D01*
X137488748Y-107810000D02*
X138911252Y-107810000D01*
X137488748Y-105990000D02*
X138911252Y-105990000D01*
X113188748Y-114690000D02*
X114611252Y-114690000D01*
X113188748Y-116510000D02*
X114611252Y-116510000D01*
X137488748Y-105310000D02*
X138911252Y-105310000D01*
X137488748Y-103490000D02*
X138911252Y-103490000D01*
X98388748Y-89110000D02*
X99811252Y-89110000D01*
X98388748Y-87290000D02*
X99811252Y-87290000D01*
X131990000Y-101027064D02*
X131990000Y-99572936D01*
X133810000Y-101027064D02*
X133810000Y-99572936D01*
X131310000Y-99572936D02*
X131310000Y-101027064D01*
X129490000Y-99572936D02*
X129490000Y-101027064D01*
X135498748Y-87090000D02*
X136921252Y-87090000D01*
X135498748Y-88910000D02*
X136921252Y-88910000D01*
X105672936Y-106290000D02*
X107127064Y-106290000D01*
X105672936Y-108110000D02*
X107127064Y-108110000D01*
X111650000Y-128900000D02*
G75*
G03*
X111650000Y-128900000I-1450000J0D01*
G01*
X142590000Y-106127064D02*
X142590000Y-104672936D01*
X144410000Y-106127064D02*
X144410000Y-104672936D01*
X137250000Y-120900000D02*
X137250000Y-122150000D01*
X139500000Y-120900000D02*
X137250000Y-120900000D01*
X139500000Y-125900000D02*
X137250000Y-125900000D01*
X137250000Y-125900000D02*
X137250000Y-124650000D01*
X141750000Y-125900000D02*
X141750000Y-125650000D01*
X139500000Y-125900000D02*
X141750000Y-125900000D01*
X141500000Y-120900000D02*
X141500000Y-121150000D01*
X139500000Y-120900000D02*
X141500000Y-120900000D01*
X142590000Y-101027064D02*
X142590000Y-99572936D01*
X144410000Y-101027064D02*
X144410000Y-99572936D01*
X99827064Y-98390000D02*
X98372936Y-98390000D01*
X99827064Y-100210000D02*
X98372936Y-100210000D01*
X137488748Y-114690000D02*
X138911252Y-114690000D01*
X137488748Y-116510000D02*
X138911252Y-116510000D01*
X146910000Y-106111252D02*
X146910000Y-104688748D01*
X145090000Y-106111252D02*
X145090000Y-104688748D01*
X120110000Y-99572936D02*
X120110000Y-101027064D01*
X118290000Y-99572936D02*
X118290000Y-101027064D01*
X113188748Y-103490000D02*
X114611252Y-103490000D01*
X114050000Y-105310000D02*
X114611252Y-105310000D01*
X100000000Y-94490000D02*
X97550000Y-94490000D01*
X98200000Y-97710000D02*
X100000000Y-97710000D01*
%LPC*%
D12*
X153687500Y-83500000D02*
G75*
G03*
X153687500Y-83500000I-2187500J0D01*
G01*
X153687500Y-132500000D02*
G75*
G03*
X153687500Y-132500000I-2187500J0D01*
G01*
X95687500Y-132500000D02*
G75*
G03*
X95687500Y-132500000I-2187500J0D01*
G01*
X95687500Y-83500000D02*
G75*
G03*
X95687500Y-83500000I-2187500J0D01*
G01*
D13*
X101200000Y-119480000D03*
D14*
X101200000Y-122020000D03*
X101200000Y-124560000D03*
X101200000Y-127100000D03*
X142250000Y-91225000D03*
X139710000Y-91225000D03*
X137170000Y-91225000D03*
X134630000Y-91225000D03*
D13*
X132090000Y-91225000D03*
D15*
X93065000Y-89450000D03*
X91135000Y-96950000D03*
X91135000Y-89450000D03*
X93065000Y-96950000D03*
D16*
X93950000Y-90950000D03*
X93950000Y-93950000D03*
X93950000Y-95450000D03*
D17*
X143125000Y-95200000D03*
X139875000Y-95200000D03*
D18*
X128762500Y-93300000D03*
X125637500Y-93300000D03*
D19*
X114700000Y-128900000D03*
D20*
X146500000Y-109875000D03*
X146500000Y-113125000D03*
D21*
X118937500Y-96500000D03*
X122062500Y-96500000D03*
D22*
X132900000Y-109950000D03*
X132900000Y-113050000D03*
D19*
X119200000Y-128900000D03*
D23*
X130400000Y-106962500D03*
X130400000Y-103837500D03*
D22*
X146200000Y-92450000D03*
X146200000Y-95550000D03*
D24*
X123750000Y-122240000D03*
D25*
X119250000Y-123400000D03*
D26*
X123750000Y-124560000D03*
D21*
X112337500Y-106900000D03*
X115462500Y-106900000D03*
D22*
X130000000Y-115550000D03*
X130000000Y-118650000D03*
D19*
X137200000Y-128900000D03*
X141700000Y-128900000D03*
D27*
X116375000Y-102205000D03*
X116375000Y-100935000D03*
X116375000Y-99665000D03*
X116375000Y-98395000D03*
X111425000Y-98395000D03*
X111425000Y-99665000D03*
X111425000Y-100935000D03*
X111425000Y-102205000D03*
D28*
X121700000Y-98737500D03*
X121700000Y-101862500D03*
D22*
X108600000Y-98750000D03*
X108600000Y-101850000D03*
D18*
X100662500Y-104300000D03*
X97537500Y-104300000D03*
D21*
X145937500Y-90200000D03*
X149062500Y-90200000D03*
D27*
X140675000Y-113405000D03*
X140675000Y-112135000D03*
X140675000Y-110865000D03*
X140675000Y-109595000D03*
X135725000Y-109595000D03*
X135725000Y-110865000D03*
X135725000Y-112135000D03*
X135725000Y-113405000D03*
D28*
X127500000Y-115537500D03*
X127500000Y-118662500D03*
D29*
X127400000Y-101925000D03*
X127400000Y-98675000D03*
D22*
X125900000Y-87950000D03*
X125900000Y-91050000D03*
D28*
X122000000Y-115537500D03*
X122000000Y-118662500D03*
D30*
X97550000Y-101800000D03*
X100650000Y-101800000D03*
D23*
X151200000Y-95562500D03*
X151200000Y-92437500D03*
D27*
X140675000Y-102205000D03*
X140675000Y-100935000D03*
X140675000Y-99665000D03*
X140675000Y-98395000D03*
X135725000Y-98395000D03*
X135725000Y-99665000D03*
X135725000Y-100935000D03*
X135725000Y-102205000D03*
D24*
X132750000Y-122240000D03*
D25*
X128250000Y-123400000D03*
D26*
X132750000Y-124560000D03*
D29*
X149000000Y-101925000D03*
X149000000Y-98675000D03*
D20*
X122200000Y-109875000D03*
X122200000Y-113125000D03*
D19*
X132700000Y-128900000D03*
D13*
X121330000Y-92000000D03*
D14*
X118790000Y-92000000D03*
X116250000Y-92000000D03*
X113710000Y-92000000D03*
X111170000Y-92000000D03*
X108630000Y-92000000D03*
X106090000Y-92000000D03*
X103550000Y-92000000D03*
X101010000Y-92000000D03*
X98470000Y-92000000D03*
D27*
X116375000Y-113405000D03*
X116375000Y-112135000D03*
X116375000Y-110865000D03*
X116375000Y-109595000D03*
X111425000Y-109595000D03*
X111425000Y-110865000D03*
X111425000Y-112135000D03*
X111425000Y-113405000D03*
D19*
X128200000Y-128900000D03*
D31*
X131275000Y-95200000D03*
X134525000Y-95200000D03*
D28*
X106100000Y-98737500D03*
X106100000Y-101862500D03*
D18*
X123662500Y-88200000D03*
X120537500Y-88200000D03*
D22*
X146000000Y-98750000D03*
X146000000Y-101850000D03*
D32*
X128400000Y-91050000D03*
X128400000Y-87950000D03*
X132890000Y-106950000D03*
X132890000Y-103850000D03*
X119200000Y-113050000D03*
X119200000Y-109950000D03*
D18*
X108862500Y-96500000D03*
X105737500Y-96500000D03*
D32*
X148700000Y-95550000D03*
X148700000Y-92450000D03*
D19*
X123700000Y-128900000D03*
D33*
X122950000Y-107200000D03*
X119850000Y-107200000D03*
D22*
X124500000Y-115550000D03*
X124500000Y-118650000D03*
D29*
X129900000Y-113125000D03*
X129900000Y-109875000D03*
X105600000Y-113125000D03*
X105600000Y-109875000D03*
D30*
X99550000Y-112730000D03*
X96450000Y-112730000D03*
D22*
X108600000Y-109950000D03*
X108600000Y-113050000D03*
D34*
X99487500Y-110130000D03*
X96512500Y-110130000D03*
D24*
X114750000Y-122240000D03*
D25*
X110250000Y-123400000D03*
D26*
X114750000Y-124560000D03*
D32*
X143500000Y-113050000D03*
X143500000Y-109950000D03*
D21*
X136637500Y-106900000D03*
X139762500Y-106900000D03*
X112337500Y-115600000D03*
X115462500Y-115600000D03*
X136637500Y-104400000D03*
X139762500Y-104400000D03*
X97537500Y-88200000D03*
X100662500Y-88200000D03*
D32*
X132900000Y-101850000D03*
X132900000Y-98750000D03*
D22*
X130400000Y-98750000D03*
X130400000Y-101850000D03*
D21*
X134647500Y-88000000D03*
X137772500Y-88000000D03*
D30*
X104850000Y-107200000D03*
X107950000Y-107200000D03*
D19*
X110200000Y-128900000D03*
D32*
X143500000Y-106950000D03*
X143500000Y-103850000D03*
D24*
X141750000Y-122240000D03*
D25*
X137250000Y-123400000D03*
D26*
X141750000Y-124560000D03*
D32*
X143500000Y-101850000D03*
X143500000Y-98750000D03*
D33*
X100650000Y-99300000D03*
X97550000Y-99300000D03*
D21*
X136637500Y-115600000D03*
X139762500Y-115600000D03*
D23*
X146000000Y-106962500D03*
X146000000Y-103837500D03*
D22*
X119200000Y-98750000D03*
X119200000Y-101850000D03*
D21*
X112337500Y-104400000D03*
X115462500Y-104400000D03*
D35*
X97750000Y-95150000D03*
X97750000Y-96100000D03*
X97750000Y-97050000D03*
X100450000Y-97050000D03*
X100450000Y-95150000D03*
D13*
X98400000Y-84790000D03*
D14*
X98400000Y-82250000D03*
X100940000Y-84790000D03*
X100940000Y-82250000D03*
X103480000Y-84790000D03*
X103480000Y-82250000D03*
X106020000Y-84790000D03*
X106020000Y-82250000D03*
X108560000Y-84790000D03*
X108560000Y-82250000D03*
X111100000Y-84790000D03*
X111100000Y-82250000D03*
X113640000Y-84790000D03*
X113640000Y-82250000D03*
X116180000Y-84790000D03*
X116180000Y-82250000D03*
X118720000Y-84790000D03*
X118720000Y-82250000D03*
X121260000Y-84790000D03*
X121260000Y-82250000D03*
X123800000Y-84790000D03*
X123800000Y-82250000D03*
X126340000Y-84790000D03*
X126340000Y-82250000D03*
X128880000Y-84790000D03*
X128880000Y-82250000D03*
X131420000Y-84790000D03*
X131420000Y-82250000D03*
X133960000Y-84790000D03*
X133960000Y-82250000D03*
X136500000Y-84790000D03*
X136500000Y-82250000D03*
X139040000Y-84790000D03*
X139040000Y-82250000D03*
X141580000Y-84790000D03*
X141580000Y-82250000D03*
X144120000Y-84790000D03*
X144120000Y-82250000D03*
X146660000Y-84790000D03*
X146660000Y-82250000D03*
M02*
