<?xml version="1.0" standalone="no"?>
<!DOCTYPE svg PUBLIC "-//W3C//DTD SVG 20010904//EN"
 "http://www.w3.org/TR/2001/REC-SVG-20010904/DTD/svg10.dtd">
<svg version="1.0" xmlns="http://www.w3.org/2000/svg"
 width="512.000000pt" height="512.000000pt" viewBox="0 0 512.000000 512.000000"
 preserveAspectRatio="xMidYMid meet">

<g transform="translate(0.000000,512.000000) scale(0.100000,-0.100000)"
fill="#000000" stroke="none">
<path d="M2121 4624 c-83 -22 -165 -71 -224 -133 -99 -104 -137 -210 -137
-383 l0 -107 -509 -3 c-497 -3 -510 -4 -537 -24 -53 -39 -69 -71 -69 -134 0
-63 16 -95 69 -134 23 -18 45 -22 136 -24 l110 -4 2 -1266 c3 -1379 -1 -1278
58 -1434 66 -177 261 -372 438 -438 153 -58 98 -55 1102 -55 1004 0 949 -3
1102 55 177 66 372 261 438 438 59 156 55 55 58 1434 l2 1266 110 4 c91 2 113
6 136 24 53 39 69 71 69 134 0 63 -16 95 -69 134 -27 20 -40 21 -537 24 l-509
3 0 107 c0 173 -38 279 -137 383 -61 64 -141 111 -228 134 -84 21 -793 21
-874 -1z m845 -330 c60 -44 69 -67 72 -185 l4 -109 -481 0 -481 0 0 94 c0 102
9 137 43 175 46 50 56 51 449 48 353 -2 368 -3 394 -23z m874 -1833 c0 -787
-4 -1237 -10 -1272 -34 -177 -177 -327 -355 -374 -87 -22 -1741 -23 -1828 0
-173 45 -307 178 -352 350 -13 52 -15 217 -15 1287 l0 1228 1280 0 1280 0 0
-1219z"/>
<path d="M1855 3026 c-41 -18 -83 -69 -90 -109 -3 -18 -5 -334 -3 -704 3 -660
3 -672 24 -699 39 -53 71 -69 134 -69 63 0 95 16 134 69 21 27 21 36 21 726 0
690 0 699 -21 726 -11 15 -32 37 -46 47 -33 25 -113 32 -153 13z"/>
<path d="M2495 3026 c-41 -18 -83 -69 -90 -109 -3 -18 -5 -334 -3 -704 3 -660
3 -672 24 -699 39 -53 71 -69 134 -69 63 0 95 16 134 69 21 27 21 36 21 726 0
690 0 699 -21 726 -11 15 -32 37 -46 47 -33 25 -113 32 -153 13z"/>
<path d="M3135 3026 c-41 -18 -83 -69 -90 -109 -3 -18 -5 -334 -3 -704 3 -660
3 -672 24 -699 39 -53 71 -69 134 -69 63 0 95 16 134 69 21 27 21 36 21 726 0
690 0 699 -21 726 -11 15 -32 37 -46 47 -33 25 -113 32 -153 13z"/>
</g>
</svg>
