<svg xmlns="http://www.w3.org/2000/svg" viewBox="0 0 1000 1000">
  <defs>
    <style>
      .cls-1 {
        fill: #fca232;
      }
    </style>
  </defs>
  <title>GroupS01_Logo-02-darker-02</title>
  <g id="Layer_10" data-name="Layer 10">
    <path
      class="cls-1"
      d="M674.11,649.08c-16.5,5.28-30.24,10.2-44.28,14-28,7.67-55.81,16-84.31,21.64A86.51,86.51,0,0,1,522.11,686c-8-.59-10.88-4-9-11.77a64.43,64.43,0,0,1,6.57-16.65c19.82-34.88,38.24-70.54,59.41-104.68,42.6-68.67,90.7-133.52,138.56-198.48,23.51-31.91,46.89-64,71.36-95.18,4.16-5.31,6.15-11.81,11.93-16.46,10.71-8.6,23.16-10.77,35.89-12.92,5.11-.86,8.66,1.53,12.3,4.79,32.87,29.44,49.41,67,54.71,110.07,7,56.95-8.58,108-38.45,156.2-32.48,52.41-77.53,90.75-129.77,121.72A195.21,195.21,0,0,1,699,639c-6.08,2.08-8.65,5.34-9.19,11.87-5.11,61.73-33.48,112.22-76.62,155.1-20,19.87-44.5,32.61-71.49,40.51-7.49,2.2-15.06,4.21-22.67,5.92-19.55,4.39-38.5-.1-57.16-5-51.39-13.47-88.95-45-115.5-90.37-13.07-22.3-25.39-44.93-31.66-70.37-3.54-14.37-4.62-29.05-6.34-43.61-.8-6.8-3.55-9.29-9.23-11.53C249.35,611.85,207,581,171.08,541.82c-31.52-34.38-54.86-74-68.47-118.89-3.48-11.49-5.92-23.26-5.67-35.34.2-9.72-2.65-19.07-2.4-28.86.92-36.93,12.08-70.78,31.19-101.86,6.65-10.82,16.81-19.49,25.38-29.12a12.59,12.59,0,0,1,11.25-4.12c19.85,2,36.36,7.8,48.27,26.68,16,25.26,35.15,48.49,53.2,72.42,58.89,78.06,117,156.73,167.85,240.34,18.45,30.31,35,61.81,51.62,93.18,10,18.87,5.54,25.24-15.56,24-14.8-.87-28.89-5.62-43.19-9.14-31.34-7.73-62.35-16.59-92.83-27.23-2.11-.74-4.18-1.73-7.82-.59a88.26,88.26,0,0,0,9.22,27A280.89,280.89,0,0,0,403,756.79c21.06,17.63,46,24.38,72,29.35,30.45,5.82,59.49-.65,88-10.09,21.58-7.13,38.43-22,53.88-37.82a310.26,310.26,0,0,0,40.62-52.32C664.25,675.27,669.15,664,674.11,649.08Zm-149.4,25.38c5.36,1.88,8.64-.11,12.13-1.17,17.27-5.24,33.53-13,49.91-20.37,47.12-21.26,93.78-43.39,134.94-75.33,38.58-29.94,73-63.69,96.64-107.1,22.55-41.34,31.86-85.24,24-131.94-3.18-19-10.42-37-20.35-55.11C722.28,414.29,618,539.75,524.71,674.46ZM178.83,277.19c-23.5,40.23-28.26,82.72-18.9,127.1,9.19,43.57,31.23,80.57,60.75,113.23C259.15,560.09,304.79,593.24,356,619c33.81,17,68.14,32.76,103.47,46.28,5.13,2,10.39,5.55,16.93,3.2C382.67,533.45,278.25,407.55,178.83,277.19Z"
    />
    <path
      class="cls-1"
      d="M716.59,305.49c-.51,4-3.36,4.49-6.15,4.22-5.37-.51-9.4-4-12.92-7.52-33.7-33.81-75.73-52.82-121.07-62.9-26.19-5.82-53.92-5.51-81.23-4.26C452.7,237,414.2,251,377.6,271.53c-19.38,10.88-35.54,26.21-53.49,39.06-3.74,2.68-7.43,5.44-11.19,8.1-2.46,1.75-5.09,2.38-7.51,0a6.55,6.55,0,0,1-1.74-7.58c1.05-2.55,2.35-5,3.54-7.5,13.5-28.49,35.39-49.19,61.67-65.58,54.82-34.19,115.16-47.27,178.7-40.88,44.66,4.5,85.28,22.27,120.78,50.79,13.8,11.08,25.13,24.33,36.76,37.4C710.39,291.3,713.47,298.56,716.59,305.49Z"
    />
    <path
      class="cls-1"
      d="M660.88,386.05c-5.93-1.22-9.91-5.79-14.68-9-47.73-31.73-99.39-46.4-157.09-38.36-24.43,3.41-47.36,11.31-70.59,18.57-9.81,3.07-17.72,9.68-26,15.54s-16.1,12.39-24.7,17.69c-4.51,2.78-9.4,10.74-15.26,4.58-5.16-5.42,1.2-11.15,4.16-15.82,9.24-14.55,21.45-26.55,35.43-36.42,50-35.32,105.26-42.81,164.61-31.79,43.37,8.05,76.09,31,101.57,65.87C660.14,379.38,663.25,381.51,660.88,386.05Z"
    />
    <path
      class="cls-1"
      d="M503.55,394.86c40,2.89,76.63,14.12,105.46,44,2.93,3.05,8.8,6.2,4.46,11.22-3.84,4.44-8.53.48-12.42-1.76C568.53,429.59,534,419,496,419.07c-31.37.09-57.12,12.23-79.46,34.76A85.38,85.38,0,0,1,405.07,463c-2.56,1.82-5.48,6.25-8.92,3-3.23-3.07-6.14-7-3.15-12.19,7.44-12.91,16.49-24.47,28.8-33C446.29,403.81,473.27,394.44,503.55,394.86Z"
    />
    <path
      class="cls-1"
      d="M501.19,475.62c33,1.27,53.33,16.84,70.68,37.64.85,1,1.68,2.3.69,3.72a4.05,4.05,0,0,1-4.76,1.8,30.15,30.15,0,0,1-7.4-3.52c-5.31-3.79-11.42-5.84-17.18-8.67-30.89-15.18-58.8-7.48-85.53,10.59C452,521,446,524.51,440.27,528.29c-3.28,2.14-6.44,3.71-10,.59-3.78-3.35-3.46-7.22-1.36-11.24a36.77,36.77,0,0,1,3.48-5.92C451.13,488.1,477.11,479.32,501.19,475.62Z"
    />
    <path
      class="cls-1"
      d="M503.4,550.73c16,.16,27.46,9.11,38,19.75,1.24,1.25,2.21,3.11,1,5a3.87,3.87,0,0,1-4.8,1.53,61.54,61.54,0,0,1-6.36-2.61c-18.87-8.63-36.71-4.86-54.07,4.5-1.61.87-3,2.08-4.58,3.08-3.14,2-6.21,1.36-9-.57-3.65-2.49-3.62-6.28-2.66-9.94,1.37-5.23,5.33-8.57,9.66-11.28C480.56,553.93,491.63,551.16,503.4,550.73Z"
    />
  </g>
</svg>
