<?xml version="1.0" encoding="utf-8"?>
<!-- Generator: Adobe Illustrator 22.1.0, SVG Export Plug-In . SVG Version: 6.00 Build 0)  -->
<svg version="1.1" xmlns="http://www.w3.org/2000/svg" xmlns:xlink="http://www.w3.org/1999/xlink" x="0px" y="0px"
	 viewBox="0 0 1000 1000" style="enable-background:new 0 0 1000 1000;" xml:space="preserve">
<style type="text/css">
	.st0{fill:#1C2541;}
	.st1{display:none;}
	.st2{display:inline;fill:#EDA578;}
	.st3{display:inline;fill:#FFFEFE;}
	.st4{display:inline;fill:#FFFFFF;}
	.st5{display:inline;fill:#EDA477;}
	.st6{display:inline;fill:#EDA579;}
	.st7{fill:#EDA578;}
	.st8{fill:#FFFEFE;}
	.st9{fill:#FFFFFF;}
	.st10{fill:#C4E675;}
	.st11{fill:#3A506B;}
	.st12{fill:#EDA477;}
	.st13{fill:#EDA579;}
	.st14{fill:#F28E44;}
</style>
<g id="Layer_7">
</g>
<g id="Layer_1" class="st1">
</g>
<g id="Layer_3">
</g>
<g id="Layer_5" class="st1">
</g>
<g id="Layer_6">
</g>
<g id="Layer_10">
	<path class="st7" d="M674.1,649.1c-16.5,5.3-30.2,10.2-44.3,14c-28,7.7-55.8,16-84.3,21.6c-7.8,1.6-15.6,1.8-23.4,1.3
		c-8-0.6-10.9-4.1-9-11.8c1.4-5.8,3.6-11.5,6.6-16.7c19.8-34.9,38.2-70.5,59.4-104.7c42.6-68.7,90.7-133.5,138.6-198.5
		c23.5-31.9,46.9-64,71.4-95.2c4.2-5.3,6.1-11.8,11.9-16.5c10.7-8.6,23.2-10.8,35.9-12.9c5.1-0.9,8.7,1.5,12.3,4.8
		c32.9,29.4,49.4,67,54.7,110.1c7,57-8.6,108-38.5,156.2c-32.5,52.4-77.5,90.7-129.8,121.7c-11.5,6.8-23.9,12-36.6,16.4
		c-6.1,2.1-8.6,5.3-9.2,11.9c-5.1,61.7-33.5,112.2-76.6,155.1c-20,19.9-44.5,32.6-71.5,40.5c-7.5,2.2-15.1,4.2-22.7,5.9
		c-19.5,4.4-38.5-0.1-57.2-5c-51.4-13.5-88.9-45-115.5-90.4c-13.1-22.3-25.4-44.9-31.7-70.4c-3.5-14.4-4.6-29.1-6.3-43.6
		c-0.8-6.8-3.5-9.3-9.2-11.5c-49.8-19.7-92.1-50.5-128.1-89.7c-31.5-34.4-54.9-74-68.5-118.9c-3.5-11.5-5.9-23.3-5.7-35.3
		c0.2-9.7-2.6-19.1-2.4-28.9c0.9-36.9,12.1-70.8,31.2-101.9c6.7-10.8,16.8-19.5,25.4-29.1c3-3.4,6.9-4.6,11.3-4.1
		c19.8,2,36.4,7.8,48.3,26.7c15.9,25.3,35.1,48.5,53.2,72.4c58.9,78.1,117,156.7,167.9,240.3c18.4,30.3,35,61.8,51.6,93.2
		c10,18.9,5.5,25.2-15.6,24c-14.8-0.9-28.9-5.6-43.2-9.1c-31.3-7.7-62.3-16.6-92.8-27.2c-2.1-0.7-4.2-1.7-7.8-0.6
		c1.5,9.7,4.9,18.6,9.2,27c17.4,33.5,40.8,62.2,69.9,86.5c21.1,17.6,46,24.4,72,29.4c30.4,5.8,59.5-0.7,88-10.1
		c21.6-7.1,38.4-22,53.9-37.8c15.4-15.8,28.8-33.5,40.6-52.3C664.2,675.3,669.1,664,674.1,649.1z M524.7,674.5
		c5.4,1.9,8.6-0.1,12.1-1.2c17.3-5.2,33.5-13,49.9-20.4c47.1-21.3,93.8-43.4,134.9-75.3c38.6-29.9,73-63.7,96.6-107.1
		c22.6-41.3,31.9-85.2,24-131.9c-3.2-19-10.4-37-20.4-55.1C722.3,414.3,618,539.7,524.7,674.5z M178.8,277.2
		c-23.5,40.2-28.3,82.7-18.9,127.1c9.2,43.6,31.2,80.6,60.7,113.2c38.5,42.6,84.1,75.7,135.3,101.5c33.8,17,68.1,32.8,103.5,46.3
		c5.1,2,10.4,5.6,16.9,3.2C382.7,533.5,278.3,407.5,178.8,277.2z"/>
	<path class="st7" d="M716.6,305.5c-0.5,4-3.4,4.5-6.1,4.2c-5.4-0.5-9.4-4-12.9-7.5c-33.7-33.8-75.7-52.8-121.1-62.9
		c-26.2-5.8-53.9-5.5-81.2-4.3c-42.5,2-81,15.9-117.6,36.5c-19.4,10.9-35.5,26.2-53.5,39.1c-3.7,2.7-7.4,5.4-11.2,8.1
		c-2.5,1.7-5.1,2.4-7.5,0c-2.1-2.1-2.9-4.7-1.7-7.6c1.1-2.6,2.4-5,3.5-7.5c13.5-28.5,35.4-49.2,61.7-65.6
		c54.8-34.2,115.2-47.3,178.7-40.9c44.7,4.5,85.3,22.3,120.8,50.8c13.8,11.1,25.1,24.3,36.8,37.4
		C710.4,291.3,713.5,298.6,716.6,305.5z"/>
	<path class="st7" d="M660.9,386c-5.9-1.2-9.9-5.8-14.7-9c-47.7-31.7-99.4-46.4-157.1-38.4c-24.4,3.4-47.4,11.3-70.6,18.6
		c-9.8,3.1-17.7,9.7-26,15.5c-8.3,5.9-16.1,12.4-24.7,17.7c-4.5,2.8-9.4,10.7-15.3,4.6c-5.2-5.4,1.2-11.2,4.2-15.8
		c9.2-14.5,21.4-26.5,35.4-36.4c50-35.3,105.3-42.8,164.6-31.8c43.4,8.1,76.1,31,101.6,65.9C660.1,379.4,663.2,381.5,660.9,386z"/>
	<path class="st7" d="M503.5,394.9c40,2.9,76.6,14.1,105.5,44c2.9,3,8.8,6.2,4.5,11.2c-3.8,4.4-8.5,0.5-12.4-1.8
		C568.5,429.6,534,419,496,419.1c-31.4,0.1-57.1,12.2-79.5,34.8c-3.5,3.5-7.5,6.3-11.5,9.2c-2.6,1.8-5.5,6.3-8.9,3
		c-3.2-3.1-6.1-7-3.2-12.2c7.4-12.9,16.5-24.5,28.8-33C446.3,403.8,473.3,394.4,503.5,394.9z"/>
	<path class="st7" d="M501.2,475.6c33,1.3,53.3,16.8,70.7,37.6c0.9,1,1.7,2.3,0.7,3.7c-1.2,1.7-2.9,2.5-4.8,1.8
		c-2.6-0.9-5.2-1.9-7.4-3.5c-5.3-3.8-11.4-5.8-17.2-8.7c-30.9-15.2-58.8-7.5-85.5,10.6c-5.7,3.9-11.7,7.3-17.4,11.1
		c-3.3,2.1-6.4,3.7-10,0.6c-3.8-3.3-3.5-7.2-1.4-11.2c1.1-2,2.1-4.1,3.5-5.9C451.1,488.1,477.1,479.3,501.2,475.6z"/>
	<path class="st7" d="M503.4,550.7c16,0.2,27.5,9.1,38,19.7c1.2,1.3,2.2,3.1,1,5c-1.1,1.8-2.9,2.1-4.8,1.5c-2.2-0.7-4.3-1.7-6.4-2.6
		c-18.9-8.6-36.7-4.9-54.1,4.5c-1.6,0.9-3,2.1-4.6,3.1c-3.1,2-6.2,1.4-9-0.6c-3.7-2.5-3.6-6.3-2.7-9.9c1.4-5.2,5.3-8.6,9.7-11.3
		C480.6,553.9,491.6,551.2,503.4,550.7z"/>
	<path class="st8" d="M524.7,674.5C618,539.7,722.3,414.3,822,283.4c9.9,18.1,17.2,36.1,20.4,55.1c7.8,46.7-1.5,90.6-24,131.9
		c-23.7,43.4-58.1,77.2-96.6,107.1c-41.2,31.9-87.8,54.1-134.9,75.3c-16.4,7.4-32.6,15.1-49.9,20.4
		C533.4,674.3,530.1,676.3,524.7,674.5z"/>
	<path class="st8" d="M178.8,277.2c99.4,130.4,203.8,256.3,297.6,391.3c-6.5,2.4-11.8-1.2-16.9-3.2C424.1,651.7,389.8,636,356,619
		c-51.2-25.8-96.9-58.9-135.3-101.5c-29.5-32.7-51.6-69.7-60.7-113.2C150.6,359.9,155.3,317.4,178.8,277.2z"/>
</g>
<g id="Layer_8">
</g>
<g id="Layer_9">
</g>
<g id="Layer_2">
</g>
<g id="Layer_4" class="st1">
</g>
</svg>
