<?xml version="1.0" standalone="no"?>
<!DOCTYPE svg PUBLIC "-//W3C//DTD SVG 20010904//EN"
 "http://www.w3.org/TR/2001/REC-SVG-20010904/DTD/svg10.dtd">
<svg version="1.0" xmlns="http://www.w3.org/2000/svg"
 width="512.000000pt" height="512.000000pt" viewBox="0 0 512.000000 512.000000"
 preserveAspectRatio="xMidYMid meet">

<g transform="translate(0.000000,512.000000) scale(0.100000,-0.100000)"
fill="#000000" stroke="none">
<path d="M2284 4298 c-42 -20 -44 -41 -44 -461 0 -418 -3 -456 -45 -537 -28
-56 -73 -108 -121 -141 -24 -16 -169 -80 -321 -142 -296 -120 -323 -137 -309
-191 9 -36 41 -66 71 -66 36 0 566 214 627 253 101 65 184 171 230 293 22 57
22 73 26 502 l3 442 -30 30 c-31 31 -52 36 -87 18z"/>
<path d="M2763 4298 c-43 -21 -44 -42 -41 -499 4 -419 4 -436 26 -493 46 -122
129 -228 230 -293 61 -39 591 -253 627 -253 30 0 62 30 71 66 14 54 -13 71
-309 191 -152 62 -297 126 -321 142 -55 38 -98 92 -134 168 l-27 58 -5 438 -5
439 -28 24 c-30 26 -50 29 -84 12z"/>
<path d="M1730 3805 c-195 -39 -343 -139 -555 -375 -413 -460 -669 -1015 -750
-1626 -22 -164 -30 -455 -16 -589 14 -135 47 -212 120 -284 101 -99 206 -129
384 -111 344 33 646 109 967 240 154 63 231 113 319 206 83 87 134 173 172
289 22 66 23 88 27 416 l4 346 -25 28 c-33 38 -81 39 -114 1 l-23 -27 0 -307
c0 -339 -7 -397 -58 -499 -84 -165 -182 -237 -468 -346 -282 -107 -641 -184
-879 -189 -106 -2 -151 16 -207 81 -49 58 -58 96 -65 281 -26 713 235 1427
721 1972 218 246 360 333 561 344 101 6 128 15 144 51 17 37 14 52 -18 84 -27
27 -34 29 -103 28 -40 0 -102 -7 -138 -14z"/>
<path d="M3151 3792 c-33 -33 -37 -51 -19 -85 19 -37 41 -46 109 -47 88 0 204
-31 292 -77 54 -29 101 -68 198 -163 430 -426 704 -972 800 -1600 19 -120 23
-188 23 -395 1 -239 0 -252 -22 -300 -28 -61 -64 -100 -117 -128 -141 -74
-826 68 -1198 249 -134 65 -216 144 -279 267 -51 102 -58 160 -58 499 l0 307
-23 27 c-33 38 -81 37 -114 -1 l-25 -28 4 -346 c4 -328 5 -350 27 -416 38
-116 89 -202 172 -289 88 -93 165 -143 319 -206 329 -135 659 -214 1015 -245
131 -11 246 28 336 116 107 104 136 238 126 574 -14 426 -103 801 -282 1190
-198 430 -590 910 -849 1040 -112 56 -183 75 -308 82 l-97 6 -30 -31z"/>
<path d="M2440 2766 c-68 -14 -1062 -412 -1092 -436 -15 -12 -22 -29 -22 -54
0 -47 30 -78 75 -78 20 1 246 86 549 208 l515 208 95 0 95 1 520 -209 c291
-117 533 -209 549 -208 64 2 97 93 48 132 -34 28 -1040 427 -1106 439 -75 14
-155 13 -226 -3z"/>
</g>
</svg>
