<?xml version="1.0" standalone="no"?>
<!DOCTYPE svg PUBLIC "-//W3C//DTD SVG 20010904//EN"
 "http://www.w3.org/TR/2001/REC-SVG-20010904/DTD/svg10.dtd">
<svg version="1.0" xmlns="http://www.w3.org/2000/svg"
 width="512.000000pt" height="512.000000pt" viewBox="0 0 512.000000 512.000000"
 preserveAspectRatio="xMidYMid meet">

<g transform="translate(0.000000,512.000000) scale(0.100000,-0.100000)"
fill="#000000" stroke="none">
<path d="M523 4945 c-175 -48 -317 -195 -353 -368 -7 -35 -10 -226 -8 -584 3
-519 3 -532 24 -559 39 -53 71 -69 134 -69 63 0 95 16 134 69 20 27 21 42 26
566 5 524 6 539 26 566 11 15 33 37 48 48 27 20 42 21 566 26 524 5 539 6 566
26 53 39 69 71 69 134 0 63 -16 95 -69 134 -27 21 -39 21 -569 23 -442 2 -552
-1 -594 -12z"/>
<path d="M3455 4946 c-94 -41 -124 -168 -58 -247 51 -60 44 -59 603 -59 567 0
555 1 606 -66 l29 -37 5 -538 c5 -523 6 -538 26 -565 39 -53 71 -69 134 -69
63 0 95 16 134 69 21 27 21 40 24 553 1 331 -1 546 -8 581 -33 179 -176 330
-355 377 -82 21 -1092 22 -1140 1z"/>
<path d="M2380 3665 c-252 -43 -500 -180 -660 -365 -484 -563 -316 -1414 345
-1742 468 -233 1041 -106 1367 302 339 424 327 1023 -30 1437 -244 283 -654
431 -1022 368z m303 -316 c429 -66 730 -472 668 -899 -84 -571 -719 -871
-1208 -570 -280 172 -430 506 -369 822 84 432 479 713 909 647z"/>
<path d="M255 1746 c-37 -17 -70 -52 -84 -89 -7 -19 -11 -205 -11 -551 0 -574
1 -584 61 -697 62 -116 199 -215 331 -239 35 -7 250 -9 581 -8 513 3 526 3
553 24 53 39 69 71 69 134 0 63 -16 95 -69 134 -27 20 -42 21 -565 26 l-538 5
-36 28 c-20 15 -42 38 -49 50 -10 17 -14 152 -18 559 -5 522 -6 537 -26 564
-11 15 -32 37 -46 47 -34 25 -113 32 -153 13z"/>
<path d="M4740 1749 c-29 -12 -67 -46 -83 -74 -9 -14 -13 -177 -17 -557 -5
-522 -6 -537 -26 -564 -11 -15 -33 -37 -48 -48 -27 -20 -42 -21 -566 -26 -524
-5 -539 -6 -566 -26 -53 -39 -69 -71 -69 -134 0 -63 16 -95 69 -134 27 -21 40
-21 553 -24 327 -1 547 1 582 8 185 33 347 195 381 382 7 35 9 250 8 581 -3
513 -3 526 -24 553 -11 15 -32 37 -46 47 -31 23 -111 32 -148 16z"/>
</g>
</svg>
