<?xml version="1.0" standalone="no"?>
<!DOCTYPE svg PUBLIC "-//W3C//DTD SVG 20010904//EN"
 "http://www.w3.org/TR/2001/REC-SVG-20010904/DTD/svg10.dtd">
<svg version="1.0" xmlns="http://www.w3.org/2000/svg"
 width="512.000000pt" height="512.000000pt" viewBox="0 0 512.000000 512.000000"
 preserveAspectRatio="xMidYMid meet">

<g transform="translate(0.000000,512.000000) scale(0.100000,-0.100000)"
fill="#000000" stroke="none">
<path d="M2469 5107 c-95 -27 -184 -99 -228 -184 -41 -82 -42 -112 -39 -1213
l3 -1055 24 -59 c32 -80 118 -166 197 -196 81 -31 187 -31 268 0 79 30 165
116 197 196 l24 59 3 1055 c2 760 0 1072 -8 1115 -31 162 -163 280 -327 291
-40 2 -87 -2 -114 -9z"/>
<path d="M1317 4156 c-77 -32 -186 -116 -326 -251 -138 -134 -218 -229 -317
-377 -86 -127 -207 -367 -254 -503 -202 -582 -165 -1209 105 -1753 124 -250
234 -402 434 -603 178 -177 317 -282 518 -391 679 -369 1487 -369 2166 0 201
109 340 214 518 391 200 201 310 353 434 603 238 479 297 1029 165 1548 -42
168 -82 277 -165 445 -123 253 -259 439 -466 640 -141 136 -260 226 -336 255
-81 30 -195 25 -275 -12 -141 -66 -225 -227 -198 -380 20 -109 62 -169 185
-266 320 -254 518 -586 586 -983 27 -160 23 -409 -11 -563 -65 -302 -207 -564
-425 -781 -294 -295 -679 -455 -1095 -455 -416 0 -801 160 -1095 455 -218 217
-360 479 -425 781 -34 154 -38 403 -11 563 68 397 266 729 586 983 123 97 165
157 185 266 27 153 -57 314 -198 380 -83 39 -204 42 -285 8z"/>
</g>
</svg>
