<?xml version="1.0" standalone="no"?>
<!DOCTYPE svg PUBLIC "-//W3C//DTD SVG 20010904//EN"
 "http://www.w3.org/TR/2001/REC-SVG-20010904/DTD/svg10.dtd">
<svg version="1.0" xmlns="http://www.w3.org/2000/svg"
 width="512.000000pt" height="512.000000pt" viewBox="0 0 512.000000 512.000000"
 preserveAspectRatio="xMidYMid meet">

<g transform="translate(0.000000,512.000000) scale(0.100000,-0.100000)"
fill="#000000" stroke="none">
<path d="M2430 4314 c-208 -23 -345 -54 -491 -109 -534 -204 -948 -668 -1083
-1214 -39 -156 -50 -256 -50 -431 0 -175 11 -275 50 -431 64 -259 203 -522
382 -725 512 -580 1313 -760 2026 -456 129 55 176 95 196 165 33 121 -44 239
-166 253 -44 6 -63 1 -140 -31 -129 -54 -258 -95 -349 -111 -444 -79 -888 60
-1205 376 -213 214 -345 481 -385 780 -57 421 84 838 385 1140 214 213 481
345 780 385 421 57 838 -84 1140 -385 316 -317 455 -764 376 -1205 -20 -106
-38 -167 -93 -304 -39 -99 -45 -120 -40 -163 11 -88 62 -146 151 -170 54 -14
119 -1 169 34 63 45 173 330 213 553 22 124 25 419 5 545 -121 770 -702 1360
-1461 1486 -85 14 -345 26 -410 18z"/>
<path d="M132 2749 c-48 -14 -109 -80 -123 -131 -23 -89 12 -182 88 -229 57
-36 154 -34 210 3 62 41 88 90 88 168 0 77 -26 127 -85 166 -43 29 -125 39
-178 23z"/>
<path d="M4852 2749 c-48 -14 -109 -80 -123 -131 -23 -89 12 -182 88 -229 57
-36 154 -34 210 3 62 41 88 90 88 168 0 77 -26 127 -85 166 -43 29 -125 39
-178 23z"/>

</g>
</svg>
