<?xml version="1.0" standalone="no"?>
<!DOCTYPE svg PUBLIC "-//W3C//DTD SVG 20010904//EN"
 "http://www.w3.org/TR/2001/REC-SVG-20010904/DTD/svg10.dtd">
<svg version="1.0" xmlns="http://www.w3.org/2000/svg"
 width="512.000000pt" height="512.000000pt" viewBox="0 0 512.000000 512.000000"
 preserveAspectRatio="xMidYMid meet">

<g transform="translate(0.000000,512.000000) scale(0.100000,-0.100000)"
fill="#000000" stroke="none">
<path d="M2492 5109 c-48 -14 -109 -80 -123 -131 -23 -89 12 -182 88 -229 57
-36 154 -34 210 3 62 41 88 90 88 168 0 77 -26 127 -85 166 -43 29 -125 39
-178 23z"/>
<path d="M1745 4984 c-151 -83 -152 -279 -2 -355 61 -32 153 -24 204 17 108
86 108 230 0 318 -33 26 -48 31 -105 33 -48 2 -76 -1 -97 -13z"/>
<path d="M3205 4984 c-102 -53 -142 -167 -92 -264 35 -70 85 -103 161 -108 49
-3 71 0 103 17 116 58 148 204 66 301 -54 65 -168 91 -238 54z"/>
<path d="M1095 4652 c-68 -32 -125 -115 -125 -182 0 -68 57 -151 125 -181 168
-77 337 105 253 271 -47 91 -164 134 -253 92z"/>
<path d="M3887 4660 c-46 -14 -98 -60 -118 -104 -62 -136 35 -286 184 -286 60
0 142 53 172 110 78 154 -72 330 -238 280z"/>
<path d="M2430 4314 c-208 -23 -345 -54 -491 -109 -534 -204 -948 -668 -1083
-1214 -39 -156 -50 -256 -50 -431 0 -175 11 -275 50 -431 64 -259 203 -522
382 -725 512 -580 1313 -760 2026 -456 129 55 176 95 196 165 33 121 -44 239
-166 253 -44 6 -63 1 -140 -31 -129 -54 -258 -95 -349 -111 -444 -79 -888 60
-1205 376 -213 214 -345 481 -385 780 -57 421 84 838 385 1140 214 213 481
345 780 385 421 57 838 -84 1140 -385 316 -317 455 -764 376 -1205 -20 -106
-38 -167 -93 -304 -39 -99 -45 -120 -40 -163 11 -88 62 -146 151 -170 54 -14
119 -1 169 34 63 45 173 330 213 553 22 124 25 419 5 545 -121 770 -702 1360
-1461 1486 -85 14 -345 26 -410 18z"/>
<path d="M585 4135 c-51 -18 -110 -81 -126 -133 -36 -122 60 -251 189 -252
178 -1 266 205 144 333 -54 57 -137 78 -207 52z"/>
<path d="M4416 4140 c-51 -16 -96 -54 -121 -104 -68 -137 25 -287 177 -286
130 1 225 130 188 253 -16 54 -83 121 -135 136 -46 13 -68 13 -109 1z"/>
<path d="M247 3476 c-86 -32 -131 -106 -125 -202 3 -52 9 -70 35 -101 46 -57
88 -78 158 -78 71 0 112 21 159 78 29 36 31 44 31 117 0 73 -2 81 -31 117 -17
21 -45 46 -62 56 -42 24 -118 31 -165 13z"/>
<path d="M4735 3475 c-50 -17 -112 -85 -121 -132 -26 -139 58 -248 191 -248
70 0 112 21 158 78 41 50 50 143 19 203 -50 97 -145 135 -247 99z"/>
<path d="M2465 3304 c-11 -2 -45 -9 -75 -15 -217 -44 -429 -224 -522 -444 -41
-97 -53 -162 -53 -285 0 -123 12 -188 53 -285 93 -219 290 -387 522 -446 71
-18 269 -18 340 0 232 59 429 227 522 446 41 97 53 162 53 285 0 65 -6 139
-14 170 -68 269 -277 482 -546 557 -51 14 -243 26 -280 17z m240 -428 c70 -32
140 -102 173 -174 22 -48 27 -71 27 -142 0 -104 -29 -174 -100 -245 -71 -71
-141 -100 -245 -100 -104 0 -174 29 -245 100 -71 71 -100 141 -100 245 0 71 5
94 27 142 44 95 136 173 235 198 61 15 167 4 228 -24z"/>
<path d="M132 2749 c-48 -14 -109 -80 -123 -131 -23 -89 12 -182 88 -229 57
-36 154 -34 210 3 62 41 88 90 88 168 0 77 -26 127 -85 166 -43 29 -125 39
-178 23z"/>
<path d="M4852 2749 c-48 -14 -109 -80 -123 -131 -23 -89 12 -182 88 -229 57
-36 154 -34 210 3 62 41 88 90 88 168 0 77 -26 127 -85 166 -43 29 -125 39
-178 23z"/>
<path d="M245 2015 c-50 -17 -112 -85 -121 -132 -26 -139 58 -248 191 -248 71
0 112 21 159 78 29 36 31 44 31 117 0 72 -2 81 -31 117 -58 73 -143 98 -229
68z"/>
<path d="M4720 2008 c-24 -13 -58 -40 -74 -61 -29 -36 -31 -45 -31 -117 0 -73
2 -81 31 -117 47 -57 87 -77 159 -77 72 0 112 20 159 77 29 36 31 44 31 117 0
72 -2 81 -31 117 -38 48 -106 83 -159 83 -23 0 -60 -10 -85 -22z"/>
<path d="M563 1351 c-24 -11 -55 -37 -72 -61 -130 -180 90 -403 275 -278 43
29 84 108 84 162 -1 144 -153 237 -287 177z"/>
<path d="M4385 1351 c-99 -46 -141 -158 -96 -256 21 -46 80 -102 116 -110 14
-3 36 -7 49 -10 44 -9 121 22 159 64 146 162 -31 403 -228 312z"/>
<path d="M1100 834 c-135 -58 -168 -218 -66 -320 77 -77 175 -83 265 -16 66
49 89 156 52 237 -44 96 -156 140 -251 99z"/>
<path d="M3865 831 c-164 -76 -149 -312 24 -370 42 -14 65 -14 116 0 54 15
120 82 135 138 42 158 -126 301 -275 232z"/>
<path d="M1742 494 c-63 -32 -112 -111 -112 -179 0 -142 162 -241 288 -176
134 69 149 240 29 335 -32 26 -48 31 -105 34 -48 2 -76 -2 -100 -14z"/>
<path d="M3205 495 c-46 -25 -76 -56 -96 -100 -60 -129 36 -275 181 -275 194
0 270 237 114 356 -30 23 -49 29 -103 32 -47 2 -75 -2 -96 -13z"/>
<path d="M2492 389 c-48 -14 -109 -80 -123 -131 -23 -89 12 -182 88 -229 57
-36 154 -34 210 3 62 41 88 90 88 168 0 77 -26 127 -85 166 -43 29 -125 39
-178 23z"/>
</g>
</svg>
