<?xml version="1.0" standalone="no"?>
<!DOCTYPE svg PUBLIC "-//W3C//DTD SVG 20010904//EN"
 "http://www.w3.org/TR/2001/REC-SVG-20010904/DTD/svg10.dtd">
<svg version="1.0" xmlns="http://www.w3.org/2000/svg"
 width="512.000000pt" height="512.000000pt" viewBox="0 0 512.000000 512.000000"
 preserveAspectRatio="xMidYMid meet">

<g transform="translate(0.000000,512.000000) scale(0.100000,-0.100000)"
fill="#000000" stroke="none">
<path d="M595 5109 c-142 -24 -270 -92 -381 -203 -89 -90 -142 -174 -183 -294
l-26 -77 -3 -594 -3 -594 26 -52 c35 -73 88 -108 169 -113 77 -4 137 24 181
87 l30 43 5 581 5 582 28 57 c32 65 89 121 156 152 45 20 60 21 628 26 l581 5
43 30 c63 44 91 104 87 181 -5 80 -40 133 -111 169 l-51 25 -565 -1 c-312 -1
-588 -5 -616 -10z"/>
<path d="M3292 5094 c-72 -36 -105 -86 -110 -168 -4 -76 24 -137 87 -181 l43
-30 581 -5 c568 -5 583 -6 628 -26 67 -31 124 -87 156 -152 l28 -57 5 -582 5
-581 30 -43 c44 -63 104 -91 181 -87 81 5 134 40 169 113 l26 52 -3 594 -3
594 -26 77 c-41 120 -94 204 -183 294 -90 89 -174 142 -294 183 l-77 26 -595
3 -595 3 -53 -27z"/>
<path d="M2345 3936 c-274 -43 -538 -174 -742 -369 -127 -122 -210 -235 -288
-392 -101 -204 -145 -389 -145 -615 0 -225 44 -411 145 -615 193 -390 538
-656 975 -751 133 -29 420 -27 559 4 548 123 957 537 1077 1092 27 121 26 420
0 540 -75 345 -261 639 -535 846 -105 79 -315 185 -436 219 -186 53 -426 69
-610 41z"/>
<path d="M125 1926 c-45 -19 -91 -70 -110 -119 -14 -38 -16 -105 -13 -632 l3
-590 26 -77 c41 -120 94 -204 183 -294 90 -89 174 -142 294 -183 l77 -26 594
-3 594 -3 52 26 c73 35 108 88 113 169 4 77 -24 137 -87 181 l-43 30 -581 5
-582 5 -57 28 c-65 32 -121 89 -152 156 -20 45 -21 60 -26 628 l-5 581 -30 43
c-55 78 -167 111 -250 75z"/>
<path d="M4820 1918 c-25 -14 -58 -44 -75 -67 l-30 -43 -5 -581 c-5 -568 -6
-583 -26 -628 -31 -67 -87 -124 -152 -156 l-57 -28 -582 -5 -581 -5 -43 -30
c-63 -44 -91 -104 -87 -181 5 -81 40 -134 113 -169 l52 -26 594 3 594 3 80 27
c116 40 199 92 290 183 91 91 143 174 183 290 l27 80 3 594 3 594 -26 52 c-35
73 -88 108 -169 113 -50 3 -69 -1 -106 -20z"/>
</g>
</svg>
